<svg width="2000" height="1540" viewBox="0 0 2000 1540" fill="none" xmlns="http://www.w3.org/2000/svg">
<path d="M812 1540H0V0H2000L812 1540Z" fill="white"/>
<path d="M1183.25 707.986C1199.54 718.358 1199.54 718.358 1203.15 726.502C1203.32 727.327 1203.49 728.152 1203.66 729.002C1204.35 729.002 1205.03 729.002 1205.73 729.002C1206.75 733.457 1206.75 733.457 1207.8 738.002C1208.48 738.002 1209.16 738.002 1209.87 738.002C1214.28 749.81 1212.97 759.86 1212.97 773.002C1181.25 773.002 1149.52 773.002 1116.84 773.002C1119.36 781.515 1122.96 790.19 1130.54 795.689C1131.13 796.123 1131.73 796.556 1132.35 797.002C1132.35 797.662 1132.35 798.322 1132.35 799.002C1144.87 803.235 1158.2 803.896 1170.46 798.439C1175.19 796.123 1178.4 792.539 1181.88 788.732C1184.03 787.002 1184.03 787.002 1186.16 787.174C1186.82 787.447 1187.48 787.72 1188.16 788.002C1189.27 788.353 1190.38 788.703 1191.52 789.064C1192.93 789.529 1192.93 789.529 1194.36 790.002C1194.36 790.662 1194.36 791.322 1194.36 792.002C1195.61 792.095 1195.61 792.095 1196.88 792.189C1201.77 793.267 1205.6 795.518 1209.87 798.002C1208.53 806.03 1199.55 813.877 1193.33 819.002C1189.95 821.28 1187.22 823.002 1182.99 823.002C1182.99 823.662 1182.99 824.322 1182.99 825.002C1180.65 825.815 1178.3 826.627 1175.95 827.439C1175.29 827.67 1174.62 827.9 1173.94 828.137C1166.42 830.738 1160.53 831.218 1152.57 831.252C1151.4 831.273 1150.24 831.293 1149.04 831.314C1137.39 831.366 1127.26 829.015 1116.84 824.002C1116.84 823.342 1116.84 822.682 1116.84 822.002C1116.2 821.693 1115.56 821.383 1114.9 821.064C1113.48 820.377 1112.06 819.689 1110.64 819.002C1110.64 818.342 1110.64 817.682 1110.64 817.002C1109.87 816.775 1109.11 816.548 1108.32 816.314C1104.89 814.733 1103.58 812.934 1101.34 810.002C1100.25 809.043 1100.25 809.043 1099.14 808.064C1096.79 805.564 1096.23 803.173 1095.14 800.002C1094.11 799.672 1093.09 799.342 1092.04 799.002C1090.99 796.692 1090.15 794.525 1089.39 792.127C1089.05 791.105 1089.05 791.105 1088.71 790.063C1082.49 770.576 1083.76 750.753 1093.39 732.428C1103.53 716.943 1117.54 706.533 1135.69 701.581C1151.29 698.42 1169.58 699.913 1183.25 707.986Z" fill="#2B62A0"/>
<path d="M537 655C574.519 655 612.039 655 650.695 655C650.695 665.23 650.695 675.46 650.695 686C624.432 686 598.168 686 571.109 686C571.109 699.86 571.109 713.72 571.109 728C594.643 728 618.178 728 642.426 728C642.426 738.23 642.426 748.46 642.426 759C618.891 759 595.357 759 571.109 759C571.109 781.77 571.109 804.54 571.109 828C559.853 828 548.597 828 537 828C537 770.91 537 713.82 537 655Z" fill="#2E65A1"/>
<path d="M824.34 704C835.254 704 846.169 704 857.415 704C857.415 744.92 857.415 785.84 857.415 828C847.182 828 836.949 828 826.407 828C826.407 822.72 826.407 817.44 826.407 812C823.041 815.25 823.041 815.25 819.697 818.52C809.003 828.193 798.462 832.006 783.964 831.605C772.692 831.027 763.583 829.579 755.089 822C754.44 821.439 753.791 820.879 753.123 820.301C743.802 811.817 739.903 800.522 739.223 788.298C739.06 783.032 739.119 777.77 739.181 772.504C739.189 770.575 739.195 768.646 739.199 766.717C739.215 761.691 739.255 756.666 739.301 751.64C739.344 746.491 739.362 741.342 739.383 736.193C739.427 726.129 739.5 716.064 739.585 706C749.818 706 760.05 706 770.593 706C770.619 708.175 770.645 710.349 770.671 712.59C770.758 719.791 770.849 726.991 770.944 734.191C771.001 738.555 771.056 742.919 771.107 747.283C771.156 751.498 771.21 755.712 771.268 759.927C771.289 761.531 771.308 763.136 771.326 764.741C771.351 766.995 771.382 769.25 771.414 771.504C771.438 773.426 771.438 773.426 771.463 775.387C771.709 780.825 771.928 785.653 775.115 790.25C775.766 791.217 775.766 791.217 776.431 792.203C777.789 794.048 777.789 794.048 779.548 795.609C780.929 797 780.929 797 780.929 799C787.805 802.18 796.911 802.288 804.233 800.277C806.281 799.329 808.038 798.294 809.869 797C811.532 795.855 811.532 795.855 813.229 794.688C817.281 790.856 820.321 786.548 821.239 781C821.921 781 822.603 781 823.306 781C823.647 755.59 823.988 730.18 824.34 704Z" fill="#2B63A1"/>
<path d="M902.893 670C913.808 670 924.722 670 935.968 670C935.968 681.55 935.968 693.1 935.968 705C946.2 705 956.433 705 966.976 705C966.976 713.91 966.976 722.82 966.976 732C956.743 732 946.51 732 935.968 732C936.038 739.73 936.111 747.459 936.211 755.189C936.257 758.789 936.298 762.388 936.326 765.988C936.353 769.457 936.395 772.926 936.447 776.395C936.472 778.358 936.482 780.322 936.493 782.286C936.523 784.087 936.523 784.087 936.555 785.925C936.572 787.507 936.572 787.507 936.589 789.121C937.208 793.441 939.271 796.07 942.169 799.312C946.908 801.891 951.327 801.748 956.64 801C958.999 800.133 961.045 799.145 963.197 797.875C964.908 797 964.908 797 968.009 797C968.009 807.23 968.009 817.46 968.009 828C965.281 828.33 962.552 828.66 959.74 829C959.74 829.66 959.74 830.32 959.74 831C955.348 831.177 950.957 831.282 946.562 831.375C945.335 831.425 944.108 831.476 942.844 831.527C931.433 831.708 921.971 828.101 913.507 820.59C911.297 817.911 910.75 815.344 910.128 812C909.446 812 908.764 812 908.061 812C904.517 803.571 904.517 803.571 904.96 799C904.278 799 903.596 799 902.893 799C902.893 776.89 902.893 754.78 902.893 732C895.73 732 888.567 732 881.188 732C881.188 723.09 881.188 714.18 881.188 705C888.35 705 895.513 705 902.893 705C902.893 693.45 902.893 681.9 902.893 670Z" fill="#2C63A0"/>
<path d="M1006.25 670C1017.17 670 1028.08 670 1039.33 670C1039.33 681.55 1039.33 693.1 1039.33 705C1049.56 705 1059.79 705 1070.33 705C1070.33 713.58 1070.33 722.16 1070.33 731C1059.76 731 1049.19 731 1038.29 731C1038.34 738.861 1038.39 746.72 1038.48 754.58C1038.52 758.24 1038.56 761.9 1038.57 765.561C1038.59 769.088 1038.62 772.615 1038.67 776.143C1038.7 778.139 1038.7 780.136 1038.7 782.133C1038.72 783.354 1038.74 784.575 1038.76 785.833C1038.77 786.905 1038.78 787.978 1038.79 789.083C1039.45 792.663 1041.01 794.304 1043.46 797C1043.46 797.66 1043.46 798.32 1043.46 799C1047.43 800.787 1050.59 801.271 1054.96 801.25C1056.03 801.255 1057.1 801.26 1058.2 801.266C1061.25 801.197 1061.25 801.197 1064.13 799C1065.16 799 1066.18 799 1067.23 799C1067.23 798.34 1067.23 797.68 1067.23 797C1068.6 797 1069.96 797 1071.37 797C1071.44 801.236 1071.5 805.471 1071.54 809.708C1071.55 811.149 1071.57 812.59 1071.6 814.032C1071.64 816.102 1071.66 818.172 1071.67 820.242C1071.69 821.489 1071.7 822.735 1071.72 824.019C1071.6 825.003 1071.49 825.986 1071.37 827C1067.82 829.29 1066.21 829.178 1062.06 829C1062.06 829.66 1062.06 830.32 1062.06 831C1057.59 831.117 1053.11 831.188 1048.63 831.25C1047.37 831.284 1046.1 831.317 1044.8 831.352C1037.23 831.431 1032.32 830.937 1025.89 827C1024.84 826.402 1023.8 825.804 1022.72 825.188C1013.04 818.207 1008.03 810.67 1006.25 799C1005.92 793.896 1005.87 788.796 1005.82 783.684C1005.8 782.217 1005.78 780.75 1005.76 779.283C1005.71 775.451 1005.67 771.619 1005.63 767.787C1005.59 763.865 1005.54 759.943 1005.48 756.021C1005.38 748.348 1005.3 740.674 1005.22 733C998.054 732.67 990.892 732.34 983.512 732C983.512 723.09 983.512 714.18 983.512 705C991.016 705 998.519 705 1006.25 705C1006.25 693.45 1006.25 681.9 1006.25 670Z" fill="#2C63A1"/>
<path d="M1307.99 700.751C1308.8 700.73 1309.62 700.71 1310.45 700.688C1311.25 700.683 1312.05 700.678 1312.87 700.673C1313.58 700.664 1314.29 700.654 1315.03 700.645C1317.36 701.001 1317.36 701.001 1323.56 704.001C1323.56 714.231 1323.56 724.461 1323.56 735.001C1322.2 735.001 1320.83 735.001 1319.43 735.001C1319.43 734.341 1319.43 733.681 1319.43 733.001C1306.68 730.33 1295.69 729.209 1284.28 736.286C1279.34 739.995 1276.64 744.607 1273.95 750.001C1273.27 750.001 1272.58 750.001 1271.88 750.001C1271.54 775.741 1271.2 801.481 1270.85 828.001C1260.27 828.001 1249.7 828.001 1238.81 828.001C1237.77 827.001 1237.77 827.001 1237.65 824.973C1237.65 824.074 1237.65 823.175 1237.65 822.249C1237.65 821.221 1237.65 820.193 1237.64 819.134C1237.65 817.997 1237.65 816.86 1237.66 815.688C1237.66 814.498 1237.66 813.308 1237.66 812.082C1237.66 808.809 1237.66 805.537 1237.67 802.264C1237.67 798.848 1237.68 795.431 1237.68 792.014C1237.68 785.54 1237.69 779.066 1237.7 772.592C1237.71 765.224 1237.72 757.855 1237.72 750.486C1237.73 735.324 1237.75 720.163 1237.77 705.001C1248.01 705.001 1258.24 705.001 1268.78 705.001C1268.78 710.281 1268.78 715.561 1268.78 721.001C1272.74 719.724 1272.9 718.407 1274.98 715.001C1284.79 704.738 1293.84 700.84 1307.99 700.751Z" fill="#2961A0"/>
<path d="M675.5 655C686.074 655 696.647 655 707.541 655C707.541 711.76 707.541 768.52 707.541 827C696.968 827 686.394 827 675.5 827C675.5 770.24 675.5 713.48 675.5 655Z" fill="#2B62A0"/>
<path d="M1150.82 726.687C1151.91 726.695 1151.91 726.695 1153.02 726.702C1160.4 726.863 1165.88 727.777 1171.5 732.5C1172.22 733.325 1172.95 734.15 1173.69 735C1174.31 735.557 1174.93 736.114 1175.57 736.687C1176.79 738 1176.79 738 1176.79 740C1177.48 740 1178.16 740 1178.86 740C1179.54 743.63 1180.22 747.26 1180.93 751C1160.8 751 1140.68 751 1119.95 751C1120.63 748.03 1121.31 745.06 1122.01 742C1122.69 742 1123.38 742 1124.08 742C1124.33 741.261 1124.58 740.523 1124.84 739.761C1126.31 736.661 1127.85 735.069 1130.48 732.812C1131.24 732.138 1132 731.464 1132.78 730.769C1138.31 727.105 1144.28 726.635 1150.82 726.687Z" fill="#F9FCFC"/>
<path d="M673.434 655C674.116 655 674.798 655 675.501 655C675.501 711.76 675.501 768.52 675.501 827C686.075 827 696.648 827 707.542 827C707.542 770.24 707.542 713.48 707.542 655C707.883 655 708.224 655 708.576 655C708.576 712.09 708.576 769.18 708.576 828C696.979 828 685.382 828 673.434 828C673.276 805.591 673.122 783.183 672.976 760.774C672.908 750.37 672.838 739.966 672.764 729.562C672.699 720.497 672.638 711.432 672.581 702.368C672.551 697.565 672.519 692.762 672.482 687.959C672.448 683.444 672.419 678.929 672.393 674.414C672.383 672.752 672.371 671.09 672.357 669.428C672.338 667.169 672.326 664.909 672.315 662.65C672.306 661.383 672.298 660.115 672.289 658.809C672.4 656 672.4 656 673.434 655Z" fill="#BBD3EE"/>
<path d="M737.515 703C749.112 703 760.709 703 772.657 703C772.688 706.657 772.688 706.657 772.719 710.388C772.789 718.435 772.869 726.481 772.955 734.528C773.006 739.407 773.054 744.287 773.093 749.167C773.131 753.874 773.179 758.581 773.234 763.289C773.253 765.086 773.269 766.884 773.281 768.682C773.298 771.196 773.328 773.71 773.361 776.224C773.364 776.971 773.366 777.717 773.368 778.486C773.431 782.197 773.574 783.83 775.758 787C775.887 789.688 775.887 789.688 775.758 792C770.928 787.327 770.686 781.794 770.466 775.387C770.468 774.106 770.47 772.824 770.473 771.504C770.473 770.791 770.473 770.078 770.472 769.343C770.473 767.011 770.481 764.68 770.489 762.348C770.491 760.721 770.493 759.094 770.494 757.468C770.498 753.205 770.508 748.942 770.519 744.679C770.53 740.322 770.534 735.965 770.54 731.607C770.551 723.072 770.569 714.536 770.59 706C760.358 706 750.125 706 739.582 706C739.582 733.72 739.582 761.44 739.582 790C737.345 785.671 737.235 782.61 737.281 777.927C737.28 777.117 737.28 776.306 737.28 775.472C737.281 772.799 737.297 770.126 737.313 767.453C737.317 765.598 737.32 763.743 737.322 761.888C737.33 757.008 737.35 752.129 737.373 747.25C737.394 742.269 737.404 737.289 737.414 732.309C737.436 722.539 737.473 712.77 737.515 703Z" fill="#A3C1DD"/>
<path d="M1238.81 706C1248.36 706 1257.91 706 1267.75 706C1267.75 707.32 1267.75 708.64 1267.75 710C1267.07 710 1266.38 710 1265.68 710C1265 709.34 1264.32 708.68 1263.61 708C1263.27 708.33 1262.93 708.66 1262.58 709C1255.42 709 1248.26 709 1240.88 709C1240.88 747.61 1240.88 786.22 1240.88 826C1240.19 826 1239.51 826 1238.81 826C1238.81 786.4 1238.81 746.8 1238.81 706Z" fill="#2C5985"/>
<path d="M1237.77 705C1238.11 705 1238.46 705 1238.81 705C1238.81 744.93 1238.81 784.86 1238.81 826C1248.36 826 1257.91 826 1267.75 826C1268.84 822.825 1268.94 820.489 1268.99 817.152C1269.01 815.951 1269.03 814.75 1269.06 813.512C1269.07 812.215 1269.09 810.918 1269.11 809.582C1269.13 808.241 1269.15 806.9 1269.17 805.559C1269.23 802.033 1269.28 798.507 1269.33 794.98C1269.38 791.381 1269.44 787.781 1269.5 784.182C1269.61 777.121 1269.71 770.061 1269.81 763C1270.16 763 1270.5 763 1270.85 763C1270.85 784.45 1270.85 805.9 1270.85 828C1260.27 828 1249.7 828 1238.81 828C1237.77 827 1237.77 827 1237.65 824.972C1237.65 824.073 1237.65 823.174 1237.65 822.248C1237.65 821.22 1237.65 820.192 1237.64 819.133C1237.65 817.996 1237.65 816.859 1237.66 815.687C1237.66 814.497 1237.66 813.307 1237.66 812.081C1237.66 808.808 1237.66 805.536 1237.67 802.263C1237.67 798.847 1237.68 795.43 1237.68 792.013C1237.68 785.539 1237.69 779.065 1237.7 772.591C1237.71 765.223 1237.72 757.854 1237.72 750.485C1237.73 735.323 1237.75 720.162 1237.77 705Z" fill="#7396B8"/>
<path d="M739.585 706C749.817 706 760.05 706 770.592 706C769.569 707.485 769.569 707.485 768.525 709C768.184 708.67 767.843 708.34 767.492 708C765.802 707.913 764.108 707.893 762.416 707.902C760.883 707.907 760.883 707.907 759.318 707.912C758.242 707.92 757.166 707.929 756.057 707.938C754.438 707.944 754.438 707.944 752.785 707.951C750.108 707.963 747.43 707.979 744.753 708C742.617 712.234 742.408 716.028 742.467 720.648C742.468 721.402 742.47 722.155 742.471 722.932C742.478 725.413 742.499 727.894 742.52 730.375C742.526 732.105 742.532 733.834 742.536 735.564C742.55 740.113 742.575 744.661 742.604 749.21C742.648 756.49 742.679 763.77 742.703 771.05C742.714 773.59 742.731 776.13 742.749 778.669C742.757 780.23 742.763 781.791 742.77 783.352C742.777 784.055 742.784 784.759 742.791 785.483C742.8 789.12 742.546 792.463 741.652 796C739.017 792.177 739.309 789.101 739.35 784.673C739.35 783.824 739.349 782.975 739.349 782.1C739.35 779.292 739.367 776.484 739.383 773.676C739.387 771.73 739.39 769.783 739.392 767.837C739.399 762.713 739.42 757.588 739.443 752.464C739.464 747.236 739.473 742.008 739.484 736.779C739.506 726.519 739.542 716.26 739.585 706Z" fill="#346793"/>
<path d="M1116.84 773C1148.56 773 1180.29 773 1212.97 773C1212.63 773.66 1212.29 774.32 1211.93 775C1181.92 775.33 1151.9 775.66 1120.98 776C1120.98 777.98 1120.98 779.96 1120.98 782C1118.91 780.875 1118.91 780.875 1116.84 779C1116.84 777.02 1116.84 775.04 1116.84 773Z" fill="#A9C2DA"/>
<path d="M1144.98 769.735C1146.58 769.734 1148.18 769.732 1149.79 769.729C1153.12 769.726 1156.46 769.731 1159.79 769.74C1164.07 769.751 1168.35 769.745 1172.63 769.733C1175.93 769.726 1179.23 769.728 1182.53 769.733C1184.11 769.734 1185.69 769.733 1187.26 769.728C1189.46 769.723 1191.66 769.731 1193.85 769.742C1195.1 769.744 1196.35 769.745 1197.64 769.747C1200.57 770.001 1200.57 770.001 1202.63 772.001C1174.41 773.464 1146.14 773.1 1117.88 773.001C1117.88 772.671 1117.88 772.341 1117.88 772.001C1126.86 769.702 1135.77 769.708 1144.98 769.735Z" fill="#306193"/>
<path d="M1006.25 671C1016.82 671 1027.4 671 1038.29 671C1038.29 681.23 1038.29 691.46 1038.29 702C1036.22 700 1036.22 700 1035.99 697.386C1036 696.307 1036.01 695.229 1036.02 694.117C1036.03 693.066 1036.03 692.016 1036.04 690.933C1036.07 688.924 1036.07 688.924 1036.09 686.875C1036.14 682.626 1036.18 678.378 1036.22 674C1027.01 673.67 1017.81 673.34 1008.32 673C1008.32 683.23 1008.32 693.46 1008.32 704C1007.64 704 1006.95 704 1006.25 704C1006.25 693.11 1006.25 682.22 1006.25 671Z" fill="#305E8E"/>
<path d="M1127.18 736C1127.52 736.66 1127.86 737.32 1128.21 738C1127.22 739.69 1126.18 741.354 1125.11 743C1124.43 744.65 1123.75 746.3 1123.05 748C1141.46 748.33 1159.88 748.66 1178.86 749C1178.35 744.545 1178.35 744.545 1177.83 740C1179.89 743 1179.89 743 1180.93 751C1160.8 751 1140.68 751 1119.95 751C1120.63 748.03 1121.31 745.06 1122.01 742C1122.69 742 1123.38 742 1124.08 742C1124.4 741.196 1124.72 740.391 1125.05 739.562C1126.15 737 1126.15 737 1127.18 736Z" fill="#DBEFFB"/>
<path d="M903.926 671C914.158 671 924.391 671 934.934 671C934.592 671.99 934.251 672.98 933.9 674C933.9 673.34 933.9 672.68 933.9 672C932.877 672.66 931.853 673.32 930.799 674C928.838 674.195 928.838 674.195 926.645 674.125C925.843 674.11 925.042 674.094 924.216 674.078C922.545 674.026 920.873 673.974 919.202 673.922C918.396 673.906 917.591 673.891 916.761 673.875C916.034 673.852 915.306 673.829 914.557 673.805C911.484 673.969 911.484 673.969 905.993 676C905.993 684.91 905.993 693.82 905.993 703C905.311 703 904.629 703 903.926 703C903.926 692.44 903.926 681.88 903.926 671Z" fill="#2C5C8B"/>
<path d="M636.224 756.001C636.224 756.661 636.224 757.321 636.224 758.001C614.395 758.001 592.565 758.001 570.074 758.001C570.415 757.341 570.756 756.681 571.108 756.001C578.388 755.832 585.668 755.672 592.948 755.519C595.42 755.466 597.892 755.411 600.364 755.353C603.935 755.27 607.507 755.195 611.079 755.122C612.168 755.095 613.257 755.068 614.379 755.04C621.724 754.9 628.916 755.282 636.224 756.001Z" fill="#2B598D"/>
<path d="M1088.94 749C1089.28 749 1089.62 749 1089.97 749C1090.1 756.75 1090.1 756.75 1088.94 759C1088.85 761.032 1088.83 763.067 1088.84 765.102C1088.84 766.313 1088.85 767.525 1088.85 768.773C1088.86 770.044 1088.87 771.315 1088.87 772.625C1088.88 773.904 1088.88 775.183 1088.89 776.5C1088.9 779.667 1088.92 782.833 1088.94 786C1089.62 786 1090.3 786 1091.01 786C1091.01 787.32 1091.01 788.64 1091.01 790C1091.69 790 1092.37 790 1093.07 790C1093.27 790.782 1093.47 791.565 1093.68 792.371C1093.95 793.383 1094.22 794.395 1094.5 795.438C1094.76 796.447 1095.02 797.456 1095.29 798.496C1095.89 801.156 1095.89 801.156 1098.24 802C1097.22 802 1096.2 802 1095.14 802C1095.14 801.34 1095.14 800.68 1095.14 800C1094.12 799.67 1093.09 799.34 1092.04 799C1090.99 796.69 1090.16 794.523 1089.39 792.125C1089.06 791.103 1089.06 791.103 1088.71 790.061C1084.99 778.413 1082.3 765.743 1086.87 754C1087.55 754 1088.24 754 1088.94 754C1088.94 752.35 1088.94 750.7 1088.94 749Z" fill="#517AA3"/>
<path d="M825.371 706C835.604 706 845.836 706 856.379 706C852.335 707.956 850.95 708.242 846.64 708.195C845.052 708.186 845.052 708.186 843.431 708.176C842.331 708.159 841.232 708.142 840.1 708.125C838.427 708.111 838.427 708.111 836.72 708.098C833.971 708.074 831.221 708.041 828.472 708C827.059 710.734 827.27 712.95 827.226 716.01C827.205 717.271 827.185 718.533 827.164 719.832C827.146 721.213 827.129 722.595 827.111 723.977C827.09 725.386 827.068 726.796 827.046 728.205C826.989 731.917 826.938 735.63 826.888 739.342C826.836 743.129 826.779 746.916 826.722 750.703C826.61 758.135 826.506 765.568 826.405 773C826.064 773 825.723 773 825.371 773C825.371 750.89 825.371 728.78 825.371 706Z" fill="#346396"/>
<path d="M938.035 706C947.244 706 956.454 706 965.942 706C965.942 714.25 965.942 722.5 965.942 731C965.26 731 964.578 731 963.875 731C963.875 723.41 963.875 715.82 963.875 708C955.348 707.67 946.821 707.34 938.035 707C938.035 706.67 938.035 706.34 938.035 706Z" fill="#2F618E"/>
<path d="M1198.5 793C1202.42 794.45 1206.14 796.152 1209.87 798C1209.27 801.952 1207.23 804.221 1204.64 807.25C1203.88 808.142 1203.12 809.034 1202.34 809.953C1201.75 810.629 1201.17 811.304 1200.57 812C1199.89 810.68 1199.2 809.36 1198.5 808C1199.86 807.67 1201.23 807.34 1202.63 807C1202.61 805.721 1202.59 804.442 1202.57 803.125C1202.51 799.25 1202.51 799.25 1203.67 797C1203.01 796.897 1202.35 796.794 1201.67 796.688C1200.96 796.461 1200.26 796.234 1199.53 796C1199.19 795.01 1198.85 794.02 1198.5 793Z" fill="#3C6899"/>
<path d="M621.754 729C628.235 729 634.715 729 641.392 729C641.392 738.57 641.392 748.14 641.392 758C640.71 757.67 640.028 757.34 639.325 757C638.984 748.09 638.643 739.18 638.291 730C632.834 730 627.377 730 621.754 730C621.754 729.67 621.754 729.34 621.754 729Z" fill="#316396"/>
<path d="M1039.32 706C1049.22 706 1059.11 706 1069.3 706C1069.3 714.25 1069.3 722.5 1069.3 731C1068.96 731 1068.62 731 1068.26 731C1068.24 730.41 1068.22 729.82 1068.2 729.212C1068.1 726.536 1067.99 723.862 1067.88 721.188C1067.85 720.259 1067.81 719.33 1067.78 718.373C1067.74 717.48 1067.7 716.588 1067.66 715.668C1067.61 714.435 1067.61 714.435 1067.56 713.177C1067.35 710.71 1067.35 710.71 1065.16 708C1062.9 707.594 1062.9 707.594 1060.25 707.75C1059.25 707.776 1058.25 707.802 1057.21 707.828C1051.24 708.128 1045.28 708.529 1039.32 709C1039.32 708.01 1039.32 707.02 1039.32 706Z" fill="#356696"/>
<path d="M1106.51 717C1107.17 718.84 1107.17 718.84 1107.54 721C1105.23 723.617 1102.89 725.648 1099.99 727.625C1099.41 728.079 1098.83 728.532 1098.24 729C1098.24 729.99 1098.24 730.98 1098.24 732C1097.41 733.938 1097.41 733.938 1096.3 736C1095.94 736.681 1095.58 737.361 1095.21 738.062C1094.24 739.759 1093.15 741.387 1092.04 743C1091.36 742.67 1090.68 742.34 1089.97 742C1092.23 731.757 1099.3 724.488 1106.51 717Z" fill="#4C78A8"/>
<path d="M1067.23 797C1068.6 797 1069.96 797 1071.37 797C1071.37 806.9 1071.37 816.8 1071.37 827C1069.66 827.66 1067.96 828.32 1066.2 829C1066.54 828.34 1066.88 827.68 1067.23 827C1067.91 827 1068.6 827 1069.3 827C1069.3 817.76 1069.3 808.52 1069.3 799C1068.62 799 1067.94 799 1067.23 799C1067.23 798.34 1067.23 797.68 1067.23 797Z" fill="#789ABC"/>
<path d="M1181.96 785C1184.35 784.75 1184.35 784.75 1187.13 785C1189 787 1189 787 1190.23 789C1189.3 788.75 1188.37 788.5 1187.41 788.242C1184 787.636 1184 787.636 1181.72 789.695C1181.01 790.497 1180.3 791.299 1179.57 792.125C1175.37 796.532 1171.21 799.762 1165.42 802C1164.4 802 1163.38 802 1162.32 802C1162.32 801.34 1162.32 800.68 1162.32 800C1163.61 799.349 1164.91 798.704 1166.2 798.062C1166.92 797.703 1167.64 797.343 1168.38 796.973C1170.49 796.044 1172.46 795.468 1174.73 795C1174.73 794.34 1174.73 793.68 1174.73 793C1175.41 793 1176.09 793 1176.79 793C1177.48 791.68 1178.16 790.36 1178.86 789C1179.54 789 1180.23 789 1180.93 789C1181.27 787.68 1181.61 786.36 1181.96 785Z" fill="#DCF0FB"/>
<path d="M1168.53 730.002C1167.84 730.332 1167.16 730.662 1166.46 731.002C1165.44 730.672 1164.41 730.342 1163.36 730.002C1161.76 729.909 1160.16 729.871 1158.56 729.869C1157.63 729.868 1156.69 729.866 1155.72 729.865C1154.75 729.869 1153.77 729.873 1152.76 729.877C1151.8 729.873 1150.84 729.869 1149.85 729.865C1144.6 729.872 1139.6 730.129 1134.42 731.002C1141.25 723.003 1160.03 726.479 1168.53 730.002Z" fill="#BED9EB"/>
<path d="M882.219 706C889.04 706 895.862 706 902.891 706C902.891 706.33 902.891 706.66 902.891 707C894.705 707.495 894.705 707.495 886.353 708C884.392 712.725 884.392 712.725 883.858 717.426C883.818 718.222 883.778 719.018 883.737 719.838C883.705 720.655 883.673 721.471 883.64 722.312C883.6 723.148 883.56 723.984 883.519 724.846C883.422 726.897 883.336 728.948 883.252 731C882.911 731 882.57 731 882.219 731C882.219 722.75 882.219 714.5 882.219 706Z" fill="#326191"/>
<path d="M812.969 795C813.311 795.66 813.652 796.32 814.003 797C813.321 797 812.639 797 811.936 797C811.254 798.98 810.572 800.96 809.869 803C806.984 803.221 804.099 803.427 801.212 803.625C800.392 803.689 799.571 803.754 798.725 803.82C796.587 803.961 794.441 803.988 792.298 804C791.615 803.34 790.933 802.68 790.23 802C790.955 801.974 791.68 801.948 792.427 801.922C800.744 801.441 806.117 799.42 812.969 795Z" fill="#4A77A1"/>
<path d="M1066.2 799C1067.22 799 1068.24 799 1069.3 799C1069.3 808.24 1069.3 817.48 1069.3 827C1068.28 827 1067.25 827 1066.2 827C1066.54 826.01 1066.88 825.02 1067.23 824C1067.32 822.373 1067.34 820.742 1067.33 819.113C1067.33 818.175 1067.33 817.238 1067.32 816.271C1067.31 815.295 1067.3 814.319 1067.3 813.312C1067.29 811.83 1067.29 811.83 1067.28 810.318C1067.27 807.879 1067.25 805.439 1067.23 803C1066.55 802.67 1065.87 802.34 1065.16 802C1065.51 801.01 1065.85 800.02 1066.2 799Z" fill="#2D5D91"/>
<path d="M1186.16 787.188C1186.82 787.456 1187.48 787.724 1188.16 788.001C1189.82 788.526 1189.82 788.526 1191.52 789.063C1192.46 789.372 1193.4 789.682 1194.36 790.001C1194.36 790.331 1194.36 790.661 1194.36 791.001C1193.58 790.943 1192.79 790.885 1191.98 790.825C1188.91 790.69 1186.04 790.63 1182.99 791.001C1180.61 793.304 1180.61 793.304 1179.89 796.001C1178.53 795.671 1177.16 795.341 1175.76 795.001C1177.03 793.632 1178.33 792.281 1179.63 790.938C1180.35 790.184 1181.07 789.43 1181.81 788.653C1184.03 787.001 1184.03 787.001 1186.16 787.188Z" fill="#567BA3"/>
<path d="M1209.87 752C1210.55 752.33 1211.23 752.66 1211.94 753C1211.94 759.27 1211.94 765.54 1211.94 772C1209.89 772 1207.84 772 1205.73 772C1206.42 771.526 1207.1 771.051 1207.8 770.562C1210.82 766.821 1210.31 763.586 1209.87 759C1209.54 756.998 1209.2 754.997 1208.84 753C1209.18 752.67 1209.52 752.34 1209.87 752Z" fill="#2F6191"/>
<path d="M1125.11 733C1126.14 733.33 1127.16 733.66 1128.21 734C1126.84 736.667 1125.46 739.333 1124.08 742C1123.4 742 1122.72 742 1122.01 742C1121.67 743.65 1121.33 745.3 1120.98 747C1120.64 747 1120.3 747 1119.95 747C1119.95 744.03 1119.95 741.06 1119.95 738C1121.65 737.34 1123.36 736.68 1125.11 736C1125.11 735.01 1125.11 734.02 1125.11 733Z" fill="#436E97"/>
<path d="M1238.81 706C1248.36 706 1257.91 706 1267.75 706C1267.75 707.32 1267.75 708.64 1267.75 710C1267.07 710 1266.38 710 1265.68 710C1265.34 709.34 1265 708.68 1264.65 708C1256.12 708 1247.59 708 1238.81 708C1238.81 707.34 1238.81 706.68 1238.81 706Z" fill="#2F5D8D"/>
<path d="M1096.17 732C1097.21 735 1097.21 735 1096.18 737.043C1095.69 737.751 1095.19 738.458 1094.69 739.188C1094.2 739.903 1093.71 740.618 1093.21 741.355C1092.82 741.898 1092.44 742.441 1092.04 743C1091.36 742.67 1090.68 742.34 1089.97 742C1091.5 735.477 1091.5 735.477 1094.24 733.062C1094.88 732.712 1095.52 732.361 1096.17 732Z" fill="#4775A3"/>
<path d="M1205.73 796C1207.44 796.33 1209.14 796.66 1210.9 797C1210.52 804.262 1210.52 804.262 1207.22 808C1206.39 808.66 1205.56 809.32 1204.7 810C1204.02 809.67 1203.34 809.34 1202.63 809C1203.07 808.457 1203.5 807.915 1203.95 807.355C1204.52 806.64 1205.09 805.925 1205.67 805.188C1206.23 804.48 1206.8 803.772 1207.38 803.043C1209.01 800.959 1209.01 800.959 1209.87 798C1208.5 797.67 1207.14 797.34 1205.73 797C1205.73 796.67 1205.73 796.34 1205.73 796Z" fill="#BACFE4"/>
<path d="M737.519 786C739.62 789.404 739.968 792.323 740.233 796.25C740.31 797.328 740.387 798.405 740.467 799.516C740.543 800.745 740.543 800.745 740.62 802C739.938 802 739.256 802 738.553 802C737.374 798.578 737.418 795.913 737.455 792.312C737.464 791.133 737.473 789.954 737.483 788.738C737.495 787.835 737.507 786.931 737.519 786Z" fill="#E8FAFE"/>
<path d="M937 795C938.36 795.953 939.716 796.913 941.07 797.875C941.825 798.409 942.581 798.942 943.359 799.492C945.269 801 945.269 801 946.302 803C944.597 803 942.891 803 941.134 803C940.793 801.68 940.452 800.36 940.101 799C939.078 799 938.054 799 937 799C937 797.68 937 796.36 937 795Z" fill="#3E6D9E"/>
<path d="M1174.72 796C1175.07 796.99 1175.41 797.98 1175.76 799C1173.12 801.354 1171.92 801.983 1168.26 802.188C1167.33 802.126 1166.39 802.064 1165.42 802C1166.75 799.43 1168 799.096 1170.65 797.875C1171.41 797.522 1172.17 797.169 1172.95 796.805C1173.54 796.539 1174.12 796.274 1174.72 796Z" fill="#5781AB"/>
<path d="M1066.2 724C1066.88 724 1067.56 724 1068.27 724C1068.27 726.31 1068.27 728.62 1068.27 731C1065.2 731 1062.13 731 1058.96 731C1058.96 730.67 1058.96 730.34 1058.96 730C1061.01 729.67 1063.06 729.34 1065.17 729C1065.51 727.35 1065.85 725.7 1066.2 724Z" fill="#2D6294"/>
<path d="M1117.88 774C1120.61 774 1123.34 774 1126.15 774C1126.15 774.33 1126.15 774.66 1126.15 775C1124.44 775.33 1122.74 775.66 1120.98 776C1120.98 777.98 1120.98 779.96 1120.98 782C1120.3 781.67 1119.62 781.34 1118.91 781C1118.49 778.678 1118.14 776.343 1117.88 774Z" fill="#C8E8FB"/>
<path d="M1127.18 736C1127.52 736.66 1127.86 737.32 1128.22 738C1126.66 740.793 1124.87 743.36 1123.05 746C1122.37 746 1121.68 746 1120.98 746C1121.32 744.68 1121.66 743.36 1122.01 742C1122.7 742 1123.38 742 1124.08 742C1124.4 741.196 1124.72 740.391 1125.05 739.562C1126.15 737 1126.15 737 1127.18 736Z" fill="#C2DBEE"/>
<path d="M1133.38 799C1136.96 800.485 1136.96 800.485 1140.62 802C1140.62 802.66 1140.62 803.32 1140.62 804C1141.64 804.33 1142.66 804.66 1143.72 805C1139.65 804.437 1136.74 803.321 1133.38 801C1133.38 800.34 1133.38 799.68 1133.38 799Z" fill="#386694"/>
<path d="M1117.88 706C1119.24 706.33 1120.61 706.66 1122.01 707C1120.85 707.839 1119.69 708.671 1118.52 709.5C1117.55 710.196 1117.55 710.196 1116.56 710.906C1114.78 712 1114.78 712 1112.71 712C1112.71 711.01 1112.71 710.02 1112.71 709C1114.42 708.67 1116.12 708.34 1117.88 708C1117.88 707.34 1117.88 706.68 1117.88 706Z" fill="#D8ECFB"/>
<path d="M1125.11 792C1127.5 793.65 1129.89 795.3 1132.35 797C1129.25 798 1129.25 798 1126.99 797.062C1126.37 796.712 1125.75 796.361 1125.11 796C1125.11 794.68 1125.11 793.36 1125.11 792Z" fill="#5C8AB6"/>
<path d="M1181.96 785C1184.35 784.75 1184.35 784.75 1187.13 785C1189 787 1189 787 1190.23 789C1189.25 788.814 1188.27 788.629 1187.26 788.438C1184.13 787.713 1184.13 787.713 1181.96 789C1181.96 787.68 1181.96 786.36 1181.96 785Z" fill="#BFD1E6"/>
<path d="M1099.27 725C1099.27 727.621 1098.95 729.509 1098.24 732C1096.88 732.33 1095.51 732.66 1094.11 733C1096.95 727.25 1096.95 727.25 1099.27 725Z" fill="#698BAD"/>
<path d="M1125.11 703C1127.5 703 1129.89 703 1132.35 703C1129.31 705.503 1127 706.469 1123.05 707C1123.73 705.68 1124.41 704.36 1125.11 703Z" fill="#B0CAE0"/>
</svg>
