<svg width="2000" height="4000" viewBox="0 0 2000 4000" fill="none" xmlns="http://www.w3.org/2000/svg">
<path d="M812 4000H0V0H2000L812 4000Z" fill="white"/>
<path d="M1183.25 1838.92C1199.54 1865.86 1199.54 1865.86 1203.15 1887.02C1203.32 1889.16 1203.49 1891.3 1203.66 1893.51C1204.35 1893.51 1205.03 1893.51 1205.73 1893.51C1206.75 1905.08 1206.75 1905.08 1207.8 1916.89C1208.48 1916.89 1209.16 1916.89 1209.87 1916.89C1214.28 1947.56 1212.97 1973.66 1212.97 2007.8C1181.25 2007.8 1149.52 2007.8 1116.84 2007.8C1119.36 2029.91 1122.96 2052.44 1130.54 2066.72C1131.13 2067.85 1131.73 2068.97 1132.35 2070.13C1132.35 2071.85 1132.35 2073.56 1132.35 2075.33C1144.87 2086.32 1158.2 2088.04 1170.46 2073.87C1175.19 2067.85 1178.4 2058.54 1181.88 2048.65C1184.03 2044.16 1184.03 2044.16 1186.16 2044.61C1186.82 2045.32 1187.48 2046.02 1188.16 2046.76C1189.27 2047.67 1190.38 2048.58 1191.52 2049.52C1192.93 2050.72 1192.93 2050.72 1194.36 2051.95C1194.36 2053.67 1194.36 2055.38 1194.36 2057.15C1195.61 2057.39 1195.61 2057.39 1196.88 2057.63C1201.77 2060.43 1205.6 2066.28 1209.87 2072.73C1208.53 2093.58 1199.55 2113.96 1193.33 2127.28C1189.95 2133.19 1187.22 2137.67 1182.99 2137.67C1182.99 2139.38 1182.99 2141.09 1182.99 2142.86C1180.65 2144.97 1178.3 2147.08 1175.95 2149.19C1175.29 2149.79 1174.62 2150.39 1173.94 2151C1166.42 2157.76 1160.53 2159.01 1152.57 2159.09C1151.4 2159.15 1150.24 2159.2 1149.04 2159.26C1137.39 2159.39 1127.26 2153.28 1116.84 2140.26C1116.84 2138.55 1116.84 2136.83 1116.84 2135.07C1116.2 2134.26 1115.56 2133.46 1114.9 2132.63C1113.48 2130.85 1112.06 2129.06 1110.64 2127.28C1110.64 2125.56 1110.64 2123.85 1110.64 2122.08C1109.87 2121.49 1109.11 2120.9 1108.32 2120.3C1104.89 2116.19 1103.58 2111.51 1101.34 2103.9C1100.25 2101.41 1100.25 2101.41 1099.14 2098.87C1096.79 2092.37 1096.23 2086.16 1095.14 2077.93C1094.11 2077.07 1093.09 2076.21 1092.04 2075.33C1090.99 2069.33 1090.15 2063.7 1089.39 2057.47C1089.05 2054.82 1089.05 2054.82 1088.71 2052.11C1082.49 2001.49 1083.76 1950 1093.39 1902.41C1103.53 1862.19 1117.54 1835.15 1135.69 1822.29C1151.29 1814.08 1169.58 1817.95 1183.25 1838.92Z" fill="#2B62A0"/>
<path d="M537 1701.3C574.519 1701.3 612.039 1701.3 650.695 1701.3C650.695 1727.87 650.695 1754.44 650.695 1781.82C624.432 1781.82 598.168 1781.82 571.109 1781.82C571.109 1817.82 571.109 1853.82 571.109 1890.91C594.643 1890.91 618.178 1890.91 642.426 1890.91C642.426 1917.48 642.426 1944.05 642.426 1971.43C618.891 1971.43 595.357 1971.43 571.109 1971.43C571.109 2030.57 571.109 2089.71 571.109 2150.65C559.853 2150.65 548.597 2150.65 537 2150.65C537 2002.36 537 1854.08 537 1701.3Z" fill="#2E65A1"/>
<path d="M824.34 1828.57C835.254 1828.57 846.169 1828.57 857.415 1828.57C857.415 1934.86 857.415 2041.14 857.415 2150.65C847.182 2150.65 836.949 2150.65 826.407 2150.65C826.407 2136.94 826.407 2123.22 826.407 2109.09C823.041 2117.53 823.041 2117.53 819.697 2126.03C809.003 2151.15 798.462 2161.05 783.964 2160.02C772.692 2158.51 763.583 2154.75 755.089 2135.07C754.44 2133.61 753.791 2132.15 753.123 2130.65C743.802 2108.62 739.903 2079.28 739.223 2047.53C739.06 2033.85 739.119 2020.18 739.181 2006.5C739.189 2001.49 739.195 1996.48 739.199 1991.47C739.215 1978.42 739.255 1965.37 739.301 1952.31C739.344 1938.94 739.362 1925.57 739.383 1912.19C739.427 1886.05 739.5 1859.91 739.585 1833.77C749.818 1833.77 760.05 1833.77 770.593 1833.77C770.619 1839.42 770.645 1845.06 770.671 1850.88C770.758 1869.59 770.849 1888.29 770.944 1906.99C771.001 1918.33 771.056 1929.66 771.107 1941C771.156 1951.94 771.21 1962.89 771.268 1973.84C771.289 1978 771.308 1982.17 771.326 1986.34C771.351 1992.2 771.382 1998.05 771.414 2003.91C771.438 2008.9 771.438 2008.9 771.463 2013.99C771.709 2028.12 771.928 2040.66 775.115 2052.6C775.766 2055.11 775.766 2055.11 776.431 2057.67C777.789 2062.46 777.789 2062.46 779.548 2066.52C780.929 2070.13 780.929 2070.13 780.929 2075.33C787.805 2083.59 796.911 2083.86 804.233 2078.64C806.281 2076.18 808.038 2073.49 809.869 2070.13C811.532 2067.16 811.532 2067.16 813.229 2064.12C817.281 2054.17 820.321 2042.98 821.239 2028.57C821.921 2028.57 822.603 2028.57 823.306 2028.57C823.647 1962.57 823.988 1896.57 824.34 1828.57Z" fill="#2B63A1"/>
<path d="M902.893 1740.26C913.808 1740.26 924.722 1740.26 935.968 1740.26C935.968 1770.26 935.968 1800.26 935.968 1831.17C946.2 1831.17 956.433 1831.17 966.976 1831.17C966.976 1854.31 966.976 1877.45 966.976 1901.3C956.743 1901.3 946.51 1901.3 935.968 1901.3C936.038 1921.38 936.111 1941.45 936.211 1961.53C936.257 1970.88 936.298 1980.23 936.326 1989.58C936.353 1998.59 936.395 2007.6 936.447 2016.61C936.472 2021.71 936.482 2026.81 936.493 2031.91C936.523 2036.59 936.523 2036.59 936.555 2041.36C936.572 2045.47 936.572 2045.47 936.589 2049.66C937.208 2060.88 939.271 2067.71 942.169 2076.14C946.908 2082.83 951.327 2082.46 956.64 2080.52C958.999 2078.27 961.045 2075.7 963.197 2072.4C964.908 2070.13 964.908 2070.13 968.009 2070.13C968.009 2096.7 968.009 2123.27 968.009 2150.65C965.281 2151.51 962.552 2152.36 959.74 2153.25C959.74 2154.96 959.74 2156.68 959.74 2158.44C955.348 2158.9 950.957 2159.17 946.562 2159.42C945.335 2159.55 944.108 2159.68 942.844 2159.81C931.433 2160.28 921.971 2150.91 913.507 2131.4C911.297 2124.44 910.75 2117.78 910.128 2109.09C909.446 2109.09 908.764 2109.09 908.061 2109.09C904.517 2087.2 904.517 2087.2 904.96 2075.32C904.278 2075.32 903.596 2075.32 902.893 2075.32C902.893 2017.9 902.893 1960.47 902.893 1901.3C895.73 1901.3 888.567 1901.3 881.188 1901.3C881.188 1878.16 881.188 1855.01 881.188 1831.17C888.35 1831.17 895.513 1831.17 902.893 1831.17C902.893 1801.17 902.893 1771.17 902.893 1740.26Z" fill="#2C63A0"/>
<path d="M1006.25 1740.26C1017.17 1740.26 1028.08 1740.26 1039.33 1740.26C1039.33 1770.26 1039.33 1800.26 1039.33 1831.17C1049.56 1831.17 1059.79 1831.17 1070.33 1831.17C1070.33 1853.45 1070.33 1875.74 1070.33 1898.7C1059.76 1898.7 1049.19 1898.7 1038.29 1898.7C1038.34 1919.12 1038.39 1939.53 1038.48 1959.95C1038.52 1969.45 1038.56 1978.96 1038.57 1988.47C1038.59 1997.63 1038.62 2006.79 1038.67 2015.95C1038.7 2021.14 1038.7 2026.33 1038.7 2031.51C1038.72 2034.69 1038.74 2037.86 1038.76 2041.12C1038.77 2043.91 1038.78 2046.7 1038.79 2049.57C1039.45 2058.86 1041.01 2063.13 1043.46 2070.13C1043.46 2071.84 1043.46 2073.56 1043.46 2075.32C1047.43 2079.97 1050.59 2081.22 1054.96 2081.17C1056.03 2081.18 1057.1 2081.2 1058.2 2081.21C1061.25 2081.03 1061.25 2081.03 1064.13 2075.32C1065.16 2075.32 1066.18 2075.32 1067.23 2075.32C1067.23 2073.61 1067.23 2071.9 1067.23 2070.13C1068.6 2070.13 1069.96 2070.13 1071.37 2070.13C1071.44 2081.13 1071.5 2092.13 1071.54 2103.14C1071.55 2106.88 1071.57 2110.62 1071.6 2114.37C1071.64 2119.75 1071.66 2125.12 1071.67 2130.5C1071.69 2133.74 1071.7 2136.97 1071.72 2140.31C1071.6 2142.86 1071.49 2145.42 1071.37 2148.05C1067.82 2154 1066.21 2153.71 1062.06 2153.25C1062.06 2154.96 1062.06 2156.68 1062.06 2158.44C1057.59 2158.75 1053.11 2158.93 1048.63 2159.09C1047.37 2159.18 1046.1 2159.27 1044.8 2159.35C1037.23 2159.56 1032.32 2158.28 1025.89 2148.05C1024.84 2146.5 1023.8 2144.94 1022.72 2143.34C1013.04 2125.21 1008.03 2105.64 1006.25 2075.32C1005.92 2062.07 1005.87 2048.82 1005.82 2035.54C1005.8 2031.73 1005.78 2027.92 1005.76 2024.11C1005.71 2014.16 1005.67 2004.21 1005.63 1994.25C1005.59 1984.07 1005.54 1973.88 1005.48 1963.69C1005.38 1943.76 1005.3 1923.83 1005.22 1903.9C998.054 1903.04 990.892 1902.18 983.512 1901.3C983.512 1878.16 983.512 1855.01 983.512 1831.17C991.016 1831.17 998.519 1831.17 1006.25 1831.17C1006.25 1801.17 1006.25 1771.17 1006.25 1740.26Z" fill="#2C63A1"/>
<path d="M1307.99 1820.13C1308.8 1820.08 1309.62 1820.02 1310.45 1819.97C1311.25 1819.95 1312.05 1819.94 1312.87 1819.93C1313.58 1819.9 1314.29 1819.88 1315.03 1819.85C1317.36 1820.78 1317.36 1820.78 1323.56 1828.57C1323.56 1855.14 1323.56 1881.71 1323.56 1909.09C1322.2 1909.09 1320.83 1909.09 1319.43 1909.09C1319.43 1907.38 1319.43 1905.66 1319.43 1903.9C1306.68 1896.96 1295.69 1894.05 1284.28 1912.43C1279.34 1922.06 1276.64 1934.04 1273.95 1948.05C1273.27 1948.05 1272.58 1948.05 1271.88 1948.05C1271.54 2014.91 1271.2 2081.77 1270.85 2150.65C1260.27 2150.65 1249.7 2150.65 1238.81 2150.65C1237.77 2148.05 1237.77 2148.05 1237.65 2142.78C1237.65 2140.45 1237.65 2138.11 1237.65 2135.71C1237.65 2133.04 1237.65 2130.37 1237.64 2127.62C1237.65 2124.67 1237.65 2121.71 1237.66 2118.67C1237.66 2115.58 1237.66 2112.49 1237.66 2109.3C1237.66 2100.8 1237.66 2092.3 1237.67 2083.8C1237.67 2074.93 1237.68 2066.05 1237.68 2057.18C1237.68 2040.36 1237.69 2023.55 1237.7 2006.73C1237.71 1987.59 1237.72 1968.45 1237.72 1949.31C1237.73 1909.93 1237.75 1870.55 1237.77 1831.17C1248.01 1831.17 1258.24 1831.17 1268.78 1831.17C1268.78 1844.88 1268.78 1858.6 1268.78 1872.73C1272.74 1869.41 1272.9 1865.99 1274.98 1857.14C1284.79 1830.49 1293.84 1820.36 1307.99 1820.13Z" fill="#2961A0"/>
<path d="M675.5 1701.3C686.074 1701.3 696.647 1701.3 707.541 1701.3C707.541 1848.73 707.541 1996.15 707.541 2148.05C696.968 2148.05 686.394 2148.05 675.5 2148.05C675.5 2000.62 675.5 1853.19 675.5 1701.3Z" fill="#2B62A0"/>
<path d="M1150.82 1887.5C1151.91 1887.52 1151.91 1887.52 1153.02 1887.54C1160.4 1887.96 1165.88 1890.33 1171.5 1902.6C1172.22 1904.74 1172.95 1906.88 1173.69 1909.09C1174.31 1910.54 1174.93 1911.98 1175.57 1913.47C1176.79 1916.88 1176.79 1916.88 1176.79 1922.08C1177.48 1922.08 1178.16 1922.08 1178.86 1922.08C1179.54 1931.5 1180.22 1940.93 1180.93 1950.65C1160.8 1950.65 1140.68 1950.65 1119.95 1950.65C1120.63 1942.93 1121.31 1935.22 1122.01 1927.27C1122.69 1927.27 1123.38 1927.27 1124.08 1927.27C1124.33 1925.35 1124.58 1923.43 1124.84 1921.46C1126.31 1913.4 1127.85 1909.27 1130.48 1903.41C1131.24 1901.66 1132 1899.9 1132.78 1898.1C1138.31 1888.58 1144.28 1887.36 1150.82 1887.5Z" fill="#F9FCFC"/>
<path d="M673.434 1701.3C674.116 1701.3 674.798 1701.3 675.501 1701.3C675.501 1848.73 675.501 1996.15 675.501 2148.05C686.075 2148.05 696.648 2148.05 707.542 2148.05C707.542 2000.62 707.542 1853.19 707.542 1701.3C707.883 1701.3 708.224 1701.3 708.576 1701.3C708.576 1849.58 708.576 1997.87 708.576 2150.65C696.979 2150.65 685.382 2150.65 673.434 2150.65C673.276 2092.44 673.122 2034.24 672.976 1976.03C672.908 1949.01 672.838 1921.99 672.764 1894.96C672.699 1871.42 672.638 1847.87 672.581 1824.33C672.551 1811.86 672.519 1799.38 672.482 1786.91C672.448 1775.18 672.419 1763.45 672.393 1751.72C672.383 1747.41 672.371 1743.09 672.357 1738.77C672.338 1732.9 672.326 1727.04 672.315 1721.17C672.306 1717.87 672.298 1714.58 672.289 1711.19C672.4 1703.89 672.4 1703.89 673.434 1701.3Z" fill="#BBD3EE"/>
<path d="M737.515 1825.97C749.112 1825.97 760.709 1825.97 772.657 1825.97C772.688 1835.47 772.688 1835.47 772.719 1845.16C772.789 1866.06 772.869 1886.96 772.955 1907.87C773.006 1920.54 773.054 1933.21 773.093 1945.89C773.131 1958.12 773.179 1970.34 773.234 1982.57C773.253 1987.24 773.269 1991.91 773.281 1996.58C773.298 2003.11 773.328 2009.64 773.361 2016.17C773.364 2018.11 773.366 2020.05 773.368 2022.04C773.431 2031.68 773.574 2035.92 775.758 2044.16C775.887 2051.14 775.887 2051.14 775.758 2057.14C770.928 2045.01 770.686 2030.63 770.466 2013.99C770.468 2010.66 770.47 2007.34 770.473 2003.91C770.473 2002.06 770.473 2000.2 770.472 1998.3C770.473 1992.24 770.481 1986.18 770.489 1980.12C770.491 1975.9 770.493 1971.67 770.494 1967.45C770.498 1956.38 770.508 1945.3 770.519 1934.23C770.53 1922.91 770.534 1911.6 770.54 1900.28C770.551 1878.11 770.569 1855.94 770.59 1833.77C760.358 1833.77 750.125 1833.77 739.582 1833.77C739.582 1905.77 739.582 1977.77 739.582 2051.95C737.345 2040.71 737.235 2032.75 737.281 2020.59C737.28 2018.49 737.28 2016.38 737.28 2014.21C737.281 2007.27 737.297 2000.33 737.313 1993.39C737.317 1988.57 737.32 1983.75 737.322 1978.93C737.33 1966.26 737.35 1953.58 737.373 1940.91C737.394 1927.97 737.404 1915.04 737.414 1902.1C737.436 1876.73 737.473 1851.35 737.515 1825.97Z" fill="#A3C1DD"/>
<path d="M1238.81 1833.77C1248.36 1833.77 1257.91 1833.77 1267.75 1833.77C1267.75 1837.19 1267.75 1840.62 1267.75 1844.16C1267.07 1844.16 1266.38 1844.16 1265.68 1844.16C1265 1842.44 1264.32 1840.73 1263.61 1838.96C1263.27 1839.82 1262.93 1840.67 1262.58 1841.56C1255.42 1841.56 1248.26 1841.56 1240.88 1841.56C1240.88 1941.84 1240.88 2042.13 1240.88 2145.45C1240.19 2145.45 1239.51 2145.45 1238.81 2145.45C1238.81 2042.6 1238.81 1939.74 1238.81 1833.77Z" fill="#2C5985"/>
<path d="M1237.77 1831.17C1238.11 1831.17 1238.46 1831.17 1238.81 1831.17C1238.81 1934.88 1238.81 2038.59 1238.81 2145.45C1248.36 2145.45 1257.91 2145.45 1267.75 2145.45C1268.84 2137.2 1268.94 2131.14 1268.99 2122.47C1269.01 2119.35 1269.03 2116.23 1269.06 2113.02C1269.07 2109.65 1269.09 2106.28 1269.11 2102.81C1269.13 2099.32 1269.15 2095.84 1269.17 2092.36C1269.23 2083.2 1269.28 2074.04 1269.33 2064.88C1269.38 2055.53 1269.44 2046.18 1269.5 2036.83C1269.61 2018.49 1269.71 2000.15 1269.81 1981.82C1270.16 1981.82 1270.5 1981.82 1270.85 1981.82C1270.85 2037.53 1270.85 2093.24 1270.85 2150.65C1260.27 2150.65 1249.7 2150.65 1238.81 2150.65C1237.77 2148.05 1237.77 2148.05 1237.65 2142.78C1237.65 2140.45 1237.65 2138.11 1237.65 2135.71C1237.65 2133.04 1237.65 2130.37 1237.64 2127.62C1237.65 2124.66 1237.65 2121.71 1237.66 2118.67C1237.66 2115.57 1237.66 2112.48 1237.66 2109.3C1237.66 2100.8 1237.66 2092.3 1237.67 2083.8C1237.67 2074.92 1237.68 2066.05 1237.68 2057.17C1237.68 2040.36 1237.69 2023.54 1237.7 2006.73C1237.71 1987.59 1237.72 1968.45 1237.72 1949.31C1237.73 1909.93 1237.75 1870.55 1237.77 1831.17Z" fill="#7396B8"/>
<path d="M739.585 1833.77C749.817 1833.77 760.05 1833.77 770.592 1833.77C769.569 1837.62 769.569 1837.62 768.525 1841.56C768.184 1840.7 767.843 1839.84 767.492 1838.96C765.802 1838.73 764.108 1838.68 762.416 1838.71C760.883 1838.72 760.883 1838.72 759.318 1838.73C758.242 1838.75 757.166 1838.78 756.057 1838.8C754.438 1838.82 754.438 1838.82 752.785 1838.83C750.108 1838.86 747.43 1838.91 744.753 1838.96C742.617 1849.96 742.408 1859.81 742.467 1871.81C742.468 1873.77 742.47 1875.73 742.471 1877.74C742.478 1884.19 742.499 1890.63 742.52 1897.08C742.526 1901.57 742.532 1906.06 742.536 1910.56C742.55 1922.37 742.575 1934.18 742.604 1946C742.648 1964.91 742.679 1983.82 742.703 2002.73C742.714 2009.32 742.731 2015.92 742.749 2022.52C742.757 2026.57 742.763 2030.62 742.77 2034.68C742.777 2036.51 742.784 2038.33 742.791 2040.22C742.8 2049.66 742.546 2058.35 741.652 2067.53C739.017 2057.6 739.309 2049.61 739.35 2038.11C739.35 2035.91 739.349 2033.7 739.349 2031.43C739.35 2024.13 739.367 2016.84 739.383 2009.55C739.387 2004.49 739.39 1999.44 739.392 1994.38C739.399 1981.07 739.42 1967.76 739.443 1954.45C739.464 1940.87 739.473 1927.29 739.484 1913.71C739.506 1887.06 739.542 1860.41 739.585 1833.77Z" fill="#346793"/>
<path d="M1116.84 2007.79C1148.56 2007.79 1180.29 2007.79 1212.97 2007.79C1212.63 2009.51 1212.29 2011.22 1211.93 2012.99C1181.92 2013.84 1151.9 2014.7 1120.98 2015.58C1120.98 2020.73 1120.98 2025.87 1120.98 2031.17C1118.91 2028.25 1118.91 2028.25 1116.84 2023.38C1116.84 2018.23 1116.84 2013.09 1116.84 2007.79Z" fill="#A9C2DA"/>
<path d="M1144.98 1999.31C1146.58 1999.31 1148.18 1999.3 1149.79 1999.29C1153.12 1999.29 1156.46 1999.3 1159.79 1999.32C1164.07 1999.35 1168.35 1999.33 1172.63 1999.3C1175.93 1999.28 1179.23 1999.29 1182.53 1999.3C1184.11 1999.31 1185.69 1999.3 1187.26 1999.29C1189.46 1999.28 1191.66 1999.3 1193.85 1999.33C1195.1 1999.33 1196.35 1999.34 1197.64 1999.34C1200.57 2000 1200.57 2000 1202.63 2005.19C1174.41 2008.99 1146.14 2008.05 1117.88 2007.79C1117.88 2006.93 1117.88 2006.08 1117.88 2005.19C1126.86 1999.22 1135.77 1999.24 1144.98 1999.31Z" fill="#306193"/>
<path d="M1006.25 1742.86C1016.82 1742.86 1027.4 1742.86 1038.29 1742.86C1038.29 1769.43 1038.29 1796 1038.29 1823.38C1036.22 1818.18 1036.22 1818.18 1035.99 1811.39C1036 1808.59 1036.01 1805.79 1036.02 1802.9C1036.03 1800.17 1036.03 1797.44 1036.04 1794.63C1036.07 1789.41 1036.07 1789.41 1036.09 1784.09C1036.14 1773.06 1036.18 1762.02 1036.22 1750.65C1027.01 1749.79 1017.81 1748.94 1008.32 1748.05C1008.32 1774.62 1008.32 1801.2 1008.32 1828.57C1007.64 1828.57 1006.95 1828.57 1006.25 1828.57C1006.25 1800.29 1006.25 1772 1006.25 1742.86Z" fill="#305E8E"/>
<path d="M1127.18 1911.69C1127.52 1913.4 1127.86 1915.11 1128.21 1916.88C1127.22 1921.27 1126.18 1925.59 1125.11 1929.87C1124.43 1934.15 1123.75 1938.44 1123.05 1942.85C1141.46 1943.71 1159.88 1944.57 1178.86 1945.45C1178.35 1933.88 1178.35 1933.88 1177.83 1922.08C1179.89 1929.87 1179.89 1929.87 1180.93 1950.65C1160.8 1950.65 1140.68 1950.65 1119.95 1950.65C1120.63 1942.93 1121.31 1935.22 1122.01 1927.27C1122.69 1927.27 1123.38 1927.27 1124.08 1927.27C1124.4 1925.18 1124.72 1923.09 1125.05 1920.94C1126.15 1914.28 1126.15 1914.28 1127.18 1911.69Z" fill="#DBEFFB"/>
<path d="M903.926 1742.86C914.158 1742.86 924.391 1742.86 934.934 1742.86C934.592 1745.43 934.251 1748 933.9 1750.65C933.9 1748.94 933.9 1747.22 933.9 1745.45C932.877 1747.17 931.853 1748.88 930.799 1750.65C928.838 1751.16 928.838 1751.16 926.645 1750.97C925.843 1750.93 925.042 1750.89 924.216 1750.85C922.545 1750.72 920.873 1750.58 919.202 1750.45C918.396 1750.41 917.591 1750.37 916.761 1750.32C916.034 1750.26 915.306 1750.2 914.557 1750.14C911.484 1750.57 911.484 1750.57 905.993 1755.84C905.993 1778.99 905.993 1802.13 905.993 1825.97C905.311 1825.97 904.629 1825.97 903.926 1825.97C903.926 1798.55 903.926 1771.12 903.926 1742.86Z" fill="#2C5C8B"/>
<path d="M636.224 1963.63C636.224 1965.35 636.224 1967.06 636.224 1968.83C614.395 1968.83 592.565 1968.83 570.074 1968.83C570.415 1967.12 570.756 1965.4 571.108 1963.63C578.388 1963.19 585.668 1962.78 592.948 1962.38C595.42 1962.24 597.892 1962.1 600.364 1961.95C603.935 1961.74 607.507 1961.54 611.079 1961.35C612.168 1961.28 613.257 1961.21 614.379 1961.14C621.724 1960.78 628.916 1961.77 636.224 1963.63Z" fill="#2B598D"/>
<path d="M1088.94 1945.46C1089.28 1945.46 1089.62 1945.46 1089.97 1945.46C1090.1 1965.58 1090.1 1965.58 1088.94 1971.43C1088.85 1976.71 1088.83 1981.99 1088.84 1987.28C1088.84 1990.42 1088.85 1993.57 1088.85 1996.81C1088.86 2000.12 1088.87 2003.42 1088.87 2006.82C1088.88 2010.14 1088.88 2013.46 1088.89 2016.88C1088.9 2025.11 1088.92 2033.33 1088.94 2041.56C1089.62 2041.56 1090.3 2041.56 1091.01 2041.56C1091.01 2044.99 1091.01 2048.42 1091.01 2051.95C1091.69 2051.95 1092.37 2051.95 1093.07 2051.95C1093.27 2053.98 1093.47 2056.01 1093.68 2058.11C1093.95 2060.74 1094.22 2063.36 1094.5 2066.07C1094.76 2068.69 1095.02 2071.32 1095.29 2074.02C1095.89 2080.92 1095.89 2080.92 1098.24 2083.12C1097.22 2083.12 1096.2 2083.12 1095.14 2083.12C1095.14 2081.4 1095.14 2079.69 1095.14 2077.92C1094.12 2077.07 1093.09 2076.21 1092.04 2075.33C1090.99 2069.32 1090.16 2063.7 1089.39 2057.47C1089.06 2054.81 1089.06 2054.81 1088.71 2052.11C1084.99 2021.85 1082.3 1988.94 1086.87 1958.44C1087.55 1958.44 1088.24 1958.44 1088.94 1958.44C1088.94 1954.16 1088.94 1949.87 1088.94 1945.46Z" fill="#517AA3"/>
<path d="M825.371 1833.77C835.604 1833.77 845.836 1833.77 856.379 1833.77C852.335 1838.85 850.95 1839.59 846.64 1839.47C845.052 1839.44 845.052 1839.44 843.431 1839.42C842.331 1839.37 841.232 1839.33 840.1 1839.29C838.427 1839.25 838.427 1839.25 836.72 1839.21C833.971 1839.15 831.221 1839.07 828.472 1838.96C827.059 1846.06 827.27 1851.82 827.226 1859.77C827.205 1863.04 827.185 1866.32 827.164 1869.69C827.146 1873.28 827.129 1876.87 827.111 1880.46C827.09 1884.12 827.068 1887.78 827.046 1891.44C826.989 1901.08 826.938 1910.73 826.888 1920.37C826.836 1930.2 826.779 1940.04 826.722 1949.88C826.61 1969.18 826.506 1988.49 826.405 2007.79C826.064 2007.79 825.723 2007.79 825.371 2007.79C825.371 1950.36 825.371 1892.93 825.371 1833.77Z" fill="#346396"/>
<path d="M938.035 1833.77C947.244 1833.77 956.454 1833.77 965.942 1833.77C965.942 1855.19 965.942 1876.62 965.942 1898.7C965.26 1898.7 964.578 1898.7 963.875 1898.7C963.875 1878.99 963.875 1859.27 963.875 1838.96C955.348 1838.1 946.821 1837.25 938.035 1836.36C938.035 1835.51 938.035 1834.65 938.035 1833.77Z" fill="#2F618E"/>
<path d="M1198.5 2059.74C1202.42 2063.5 1206.14 2067.92 1209.87 2072.72C1209.27 2082.99 1207.23 2088.88 1204.64 2096.75C1203.88 2099.07 1203.12 2101.38 1202.34 2103.77C1201.75 2105.52 1201.17 2107.28 1200.57 2109.09C1199.89 2105.66 1199.2 2102.23 1198.5 2098.7C1199.86 2097.84 1201.23 2096.98 1202.63 2096.1C1202.61 2092.78 1202.59 2089.46 1202.57 2086.04C1202.51 2075.97 1202.51 2075.97 1203.67 2070.13C1203.01 2069.86 1202.35 2069.59 1201.67 2069.31C1200.96 2068.72 1200.26 2068.14 1199.53 2067.53C1199.19 2064.96 1198.85 2062.39 1198.5 2059.74Z" fill="#3C6899"/>
<path d="M621.754 1893.5C628.235 1893.5 634.715 1893.5 641.392 1893.5C641.392 1918.36 641.392 1943.22 641.392 1968.83C640.71 1967.97 640.028 1967.11 639.325 1966.23C638.984 1943.09 638.643 1919.95 638.291 1896.1C632.834 1896.1 627.377 1896.1 621.754 1896.1C621.754 1895.24 621.754 1894.39 621.754 1893.5Z" fill="#316396"/>
<path d="M1039.32 1833.77C1049.22 1833.77 1059.11 1833.77 1069.3 1833.77C1069.3 1855.19 1069.3 1876.62 1069.3 1898.7C1068.96 1898.7 1068.62 1898.7 1068.26 1898.7C1068.24 1897.17 1068.22 1895.63 1068.2 1894.06C1068.1 1887.11 1067.99 1880.16 1067.88 1873.21C1067.85 1870.8 1067.81 1868.39 1067.78 1865.9C1067.74 1863.58 1067.7 1861.27 1067.66 1858.88C1067.61 1855.67 1067.61 1855.67 1067.56 1852.41C1067.35 1846 1067.35 1846 1065.16 1838.96C1062.9 1837.91 1062.9 1837.91 1060.25 1838.31C1059.25 1838.38 1058.25 1838.45 1057.21 1838.51C1051.24 1839.29 1045.28 1840.33 1039.32 1841.56C1039.32 1838.99 1039.32 1836.41 1039.32 1833.77Z" fill="#356696"/>
<path d="M1106.51 1862.33C1107.17 1867.11 1107.17 1867.11 1107.54 1872.72C1105.23 1879.52 1102.89 1884.8 1099.99 1889.93C1099.41 1891.11 1098.83 1892.29 1098.24 1893.5C1098.24 1896.07 1098.24 1898.65 1098.24 1901.3C1097.41 1906.33 1097.41 1906.33 1096.3 1911.68C1095.94 1913.45 1095.58 1915.22 1095.21 1917.04C1094.24 1921.45 1093.15 1925.68 1092.04 1929.87C1091.36 1929.01 1090.68 1928.15 1089.97 1927.27C1092.23 1900.66 1099.3 1881.78 1106.51 1862.33Z" fill="#4C78A8"/>
<path d="M1067.23 2070.13C1068.6 2070.13 1069.96 2070.13 1071.37 2070.13C1071.37 2095.84 1071.37 2121.56 1071.37 2148.05C1069.66 2149.76 1067.96 2151.48 1066.2 2153.24C1066.54 2151.53 1066.88 2149.82 1067.23 2148.05C1067.91 2148.05 1068.6 2148.05 1069.3 2148.05C1069.3 2124.05 1069.3 2100.05 1069.3 2075.32C1068.62 2075.32 1067.94 2075.32 1067.23 2075.32C1067.23 2073.61 1067.23 2071.89 1067.23 2070.13Z" fill="#789ABC"/>
<path d="M1181.96 2038.96C1184.35 2038.31 1184.35 2038.31 1187.13 2038.96C1189 2044.16 1189 2044.16 1190.23 2049.35C1189.3 2048.7 1188.37 2048.05 1187.41 2047.38C1184 2045.81 1184 2045.81 1181.72 2051.16C1181.01 2053.24 1180.3 2055.32 1179.57 2057.47C1175.37 2068.92 1171.21 2077.3 1165.42 2083.12C1164.4 2083.12 1163.38 2083.12 1162.32 2083.12C1162.32 2081.4 1162.32 2079.69 1162.32 2077.92C1163.61 2076.23 1164.91 2074.56 1166.2 2072.89C1166.92 2071.96 1167.64 2071.02 1168.38 2070.06C1170.49 2067.65 1172.46 2066.15 1174.73 2064.94C1174.73 2063.22 1174.73 2061.51 1174.73 2059.74C1175.41 2059.74 1176.09 2059.74 1176.79 2059.74C1177.48 2056.31 1178.16 2052.88 1178.86 2049.35C1179.54 2049.35 1180.23 2049.35 1180.93 2049.35C1181.27 2045.92 1181.61 2042.49 1181.96 2038.96Z" fill="#DCF0FB"/>
<path d="M1168.53 1896.11C1167.84 1896.96 1167.16 1897.82 1166.46 1898.7C1165.44 1897.85 1164.41 1896.99 1163.36 1896.11C1161.76 1895.87 1160.16 1895.77 1158.56 1895.76C1157.63 1895.76 1156.69 1895.76 1155.72 1895.75C1154.75 1895.76 1153.77 1895.77 1152.76 1895.78C1151.8 1895.77 1150.84 1895.76 1149.85 1895.75C1144.6 1895.77 1139.6 1896.44 1134.42 1898.7C1141.25 1877.93 1160.03 1886.96 1168.53 1896.11Z" fill="#BED9EB"/>
<path d="M882.219 1833.77C889.04 1833.77 895.862 1833.77 902.891 1833.77C902.891 1834.62 902.891 1835.48 902.891 1836.36C894.705 1837.65 894.705 1837.65 886.353 1838.96C884.392 1851.23 884.392 1851.23 883.858 1863.44C883.818 1865.51 883.778 1867.58 883.737 1869.71C883.705 1871.83 883.673 1873.95 883.64 1876.14C883.6 1878.31 883.56 1880.48 883.519 1882.72C883.422 1888.04 883.336 1893.37 883.252 1898.7C882.911 1898.7 882.57 1898.7 882.219 1898.7C882.219 1877.27 882.219 1855.84 882.219 1833.77Z" fill="#326191"/>
<path d="M812.969 2064.93C813.311 2066.64 813.652 2068.36 814.003 2070.12C813.321 2070.12 812.639 2070.12 811.936 2070.12C811.254 2075.27 810.572 2080.41 809.869 2085.71C806.984 2086.28 804.099 2086.82 801.212 2087.33C800.392 2087.5 799.571 2087.67 798.725 2087.84C796.587 2088.2 794.441 2088.27 792.298 2088.3C791.615 2086.59 790.933 2084.88 790.23 2083.11C790.955 2083.04 791.68 2082.98 792.427 2082.91C800.744 2081.66 806.117 2076.41 812.969 2064.93Z" fill="#4A77A1"/>
<path d="M1066.2 2075.32C1067.22 2075.32 1068.24 2075.32 1069.3 2075.32C1069.3 2099.32 1069.3 2123.32 1069.3 2148.05C1068.28 2148.05 1067.25 2148.05 1066.2 2148.05C1066.54 2145.48 1066.88 2142.91 1067.23 2140.26C1067.32 2136.03 1067.34 2131.8 1067.33 2127.56C1067.33 2125.13 1067.33 2122.69 1067.32 2120.18C1067.31 2117.65 1067.3 2115.11 1067.3 2112.5C1067.29 2108.65 1067.29 2108.65 1067.28 2104.72C1067.27 2098.38 1067.25 2092.05 1067.23 2085.71C1066.55 2084.85 1065.87 2084 1065.16 2083.11C1065.51 2080.54 1065.85 2077.97 1066.2 2075.32Z" fill="#2D5D91"/>
<path d="M1186.16 2044.64C1186.82 2045.34 1187.48 2046.04 1188.16 2046.75C1189.82 2048.12 1189.82 2048.12 1191.52 2049.51C1192.46 2050.32 1193.4 2051.12 1194.36 2051.95C1194.36 2052.8 1194.36 2053.66 1194.36 2054.54C1193.58 2054.39 1192.79 2054.24 1191.98 2054.09C1188.91 2053.74 1186.04 2053.58 1182.99 2054.54C1180.61 2060.53 1180.61 2060.53 1179.89 2067.53C1178.53 2066.67 1177.16 2065.82 1175.76 2064.93C1177.03 2061.38 1178.33 2057.87 1179.63 2054.38C1180.35 2052.42 1181.07 2050.47 1181.81 2048.45C1184.03 2044.16 1184.03 2044.16 1186.16 2044.64Z" fill="#567BA3"/>
<path d="M1209.87 1953.25C1210.55 1954.1 1211.23 1954.96 1211.94 1955.84C1211.94 1972.13 1211.94 1988.41 1211.94 2005.19C1209.89 2005.19 1207.84 2005.19 1205.73 2005.19C1206.42 2003.96 1207.1 2002.73 1207.8 2001.46C1210.82 1991.74 1210.31 1983.34 1209.87 1971.43C1209.54 1966.23 1209.2 1961.03 1208.84 1955.84C1209.18 1954.99 1209.52 1954.13 1209.87 1953.25Z" fill="#2F6191"/>
<path d="M1125.11 1903.89C1126.14 1904.75 1127.16 1905.61 1128.21 1906.49C1126.84 1913.42 1125.46 1920.34 1124.08 1927.27C1123.4 1927.27 1122.72 1927.27 1122.01 1927.27C1121.67 1931.56 1121.33 1935.84 1120.98 1940.26C1120.64 1940.26 1120.3 1940.26 1119.95 1940.26C1119.95 1932.54 1119.95 1924.83 1119.95 1916.88C1121.65 1915.17 1123.36 1913.45 1125.11 1911.69C1125.11 1909.12 1125.11 1906.54 1125.11 1903.89Z" fill="#436E97"/>
<path d="M1238.81 1833.77C1248.36 1833.77 1257.91 1833.77 1267.75 1833.77C1267.75 1837.19 1267.75 1840.62 1267.75 1844.16C1267.07 1844.16 1266.38 1844.16 1265.68 1844.16C1265.34 1842.44 1265 1840.73 1264.65 1838.96C1256.12 1838.96 1247.59 1838.96 1238.81 1838.96C1238.81 1837.25 1238.81 1835.53 1238.81 1833.77Z" fill="#2F5D8D"/>
<path d="M1096.17 1901.3C1097.21 1909.09 1097.21 1909.09 1096.18 1914.4C1095.69 1916.23 1095.19 1918.07 1094.69 1919.97C1094.2 1921.82 1093.71 1923.68 1093.21 1925.6C1092.82 1927.01 1092.44 1928.42 1092.04 1929.87C1091.36 1929.01 1090.68 1928.15 1089.97 1927.27C1091.5 1910.33 1091.5 1910.33 1094.24 1904.06C1094.88 1903.15 1095.52 1902.24 1096.17 1901.3Z" fill="#4775A3"/>
<path d="M1205.73 2067.53C1207.44 2068.39 1209.14 2069.24 1210.9 2070.13C1210.52 2088.99 1210.52 2088.99 1207.22 2098.7C1206.39 2100.41 1205.56 2102.13 1204.7 2103.89C1204.02 2103.04 1203.34 2102.18 1202.63 2101.3C1203.07 2099.89 1203.5 2098.48 1203.95 2097.02C1204.52 2095.17 1205.09 2093.31 1205.67 2091.39C1206.23 2089.55 1206.8 2087.72 1207.38 2085.82C1209.01 2080.41 1209.01 2080.41 1209.87 2072.72C1208.5 2071.87 1207.14 2071.01 1205.73 2070.13C1205.73 2069.27 1205.73 2068.41 1205.73 2067.53Z" fill="#BACFE4"/>
<path d="M737.519 2041.55C739.62 2050.39 739.968 2057.98 740.233 2068.18C740.31 2070.98 740.387 2073.77 740.467 2076.66C740.543 2079.85 740.543 2079.85 740.62 2083.11C739.938 2083.11 739.256 2083.11 738.553 2083.11C737.374 2074.22 737.418 2067.3 737.455 2057.95C737.464 2054.89 737.473 2051.82 737.483 2048.67C737.495 2046.32 737.507 2043.97 737.519 2041.55Z" fill="#E8FAFE"/>
<path d="M937 2064.93C938.36 2067.4 939.716 2069.9 941.07 2072.4C941.825 2073.78 942.581 2075.17 943.359 2076.6C945.269 2080.51 945.269 2080.51 946.302 2085.71C944.597 2085.71 942.891 2085.71 941.134 2085.71C940.793 2082.28 940.452 2078.85 940.101 2075.32C939.078 2075.32 938.054 2075.32 937 2075.32C937 2071.89 937 2068.46 937 2064.93Z" fill="#3E6D9E"/>
<path d="M1174.72 2067.53C1175.07 2070.1 1175.41 2072.67 1175.76 2075.32C1173.12 2081.44 1171.92 2083.07 1168.26 2083.6C1167.33 2083.44 1166.39 2083.28 1165.42 2083.11C1166.75 2076.44 1168 2075.57 1170.65 2072.4C1171.41 2071.48 1172.17 2070.56 1172.95 2069.62C1173.54 2068.93 1174.12 2068.24 1174.72 2067.53Z" fill="#5781AB"/>
<path d="M1066.2 1880.52C1066.88 1880.52 1067.56 1880.52 1068.27 1880.52C1068.27 1886.52 1068.27 1892.52 1068.27 1898.7C1065.2 1898.7 1062.13 1898.7 1058.96 1898.7C1058.96 1897.84 1058.96 1896.99 1058.96 1896.1C1061.01 1895.24 1063.06 1894.39 1065.17 1893.5C1065.51 1889.22 1065.85 1884.93 1066.2 1880.52Z" fill="#2D6294"/>
<path d="M1117.88 2010.38C1120.61 2010.38 1123.34 2010.38 1126.15 2010.38C1126.15 2011.24 1126.15 2012.1 1126.15 2012.98C1124.44 2013.84 1122.74 2014.7 1120.98 2015.58C1120.98 2020.72 1120.98 2025.87 1120.98 2031.16C1120.3 2030.31 1119.62 2029.45 1118.91 2028.57C1118.49 2022.54 1118.14 2016.47 1117.88 2010.38Z" fill="#C8E8FB"/>
<path d="M1127.18 1911.69C1127.52 1913.4 1127.86 1915.11 1128.22 1916.88C1126.66 1924.14 1124.87 1930.8 1123.05 1937.66C1122.37 1937.66 1121.68 1937.66 1120.98 1937.66C1121.32 1934.23 1121.66 1930.8 1122.01 1927.27C1122.7 1927.27 1123.38 1927.27 1124.08 1927.27C1124.4 1925.18 1124.72 1923.09 1125.05 1920.94C1126.15 1914.28 1126.15 1914.28 1127.18 1911.69Z" fill="#C2DBEE"/>
<path d="M1133.38 2075.32C1136.96 2079.18 1136.96 2079.18 1140.62 2083.11C1140.62 2084.83 1140.62 2086.54 1140.62 2088.31C1141.64 2089.17 1142.66 2090.02 1143.72 2090.91C1139.65 2089.44 1136.74 2086.55 1133.38 2080.52C1133.38 2078.8 1133.38 2077.09 1133.38 2075.32Z" fill="#386694"/>
<path d="M1117.88 1833.77C1119.24 1834.62 1120.61 1835.48 1122.01 1836.36C1120.85 1838.54 1119.69 1840.7 1118.52 1842.86C1117.55 1844.66 1117.55 1844.66 1116.56 1846.51C1114.78 1849.35 1114.78 1849.35 1112.71 1849.35C1112.71 1846.78 1112.71 1844.21 1112.71 1841.56C1114.42 1840.7 1116.12 1839.84 1117.88 1838.96C1117.88 1837.25 1117.88 1835.53 1117.88 1833.77Z" fill="#D8ECFB"/>
<path d="M1125.11 2057.14C1127.5 2061.42 1129.89 2065.71 1132.35 2070.13C1129.25 2072.72 1129.25 2072.72 1126.99 2070.29C1126.37 2069.38 1125.75 2068.47 1125.11 2067.53C1125.11 2064.1 1125.11 2060.67 1125.11 2057.14Z" fill="#5C8AB6"/>
<path d="M1181.96 2038.96C1184.35 2038.31 1184.35 2038.31 1187.13 2038.96C1189 2044.16 1189 2044.16 1190.23 2049.35C1189.25 2048.87 1188.27 2048.39 1187.26 2047.89C1184.13 2046.01 1184.13 2046.01 1181.96 2049.35C1181.96 2045.92 1181.96 2042.49 1181.96 2038.96Z" fill="#BFD1E6"/>
<path d="M1099.27 1883.11C1099.27 1889.92 1098.95 1894.83 1098.24 1901.3C1096.88 1902.15 1095.51 1903.01 1094.11 1903.89C1096.95 1888.96 1096.95 1888.96 1099.27 1883.11Z" fill="#698BAD"/>
<path d="M1125.11 1825.97C1127.5 1825.97 1129.89 1825.97 1132.35 1825.97C1129.31 1832.48 1127 1834.99 1123.05 1836.36C1123.73 1832.94 1124.41 1829.51 1125.11 1825.97Z" fill="#B0CAE0"/>
</svg>
