<svg width="2000" height="1540" viewBox="0 0 2000 1540" fill="none" xmlns="http://www.w3.org/2000/svg">
<path d="M2000 0V1540H0L1188 0H2000Z" fill="white"/>
<path d="M745.327 648.873C746.083 648.869 746.839 648.864 747.618 648.859C751.802 648.87 755.724 649.158 759.845 649.998C759.845 650.658 759.845 651.318 759.845 651.998C760.981 651.957 762.118 651.916 763.289 651.873C767.664 651.857 771.397 652.78 775.593 653.998C775.593 654.658 775.593 655.318 775.593 655.998C776.709 656.039 777.826 656.081 778.976 656.123C784.387 656.77 788.032 659.813 792.325 662.998C793.299 663.493 793.299 663.493 794.293 663.998C794.293 664.658 794.293 665.318 794.293 665.998C794.862 666.246 795.43 666.493 796.016 666.748C798.53 668.167 800.141 669.939 802.167 671.998C802.878 672.307 803.588 672.617 804.32 672.936C806.104 673.998 806.104 673.998 806.843 676.623C806.924 677.407 807.005 678.191 807.089 678.998C805.779 680.081 805.779 680.081 804.443 681.186C800.747 684.321 797.398 687.728 794.159 691.35C793.007 692.599 793.007 692.599 791.833 693.873C791.112 694.675 790.391 695.477 789.649 696.303C787.404 697.998 787.404 697.998 784.905 697.963C782.225 696.895 780.729 695.714 778.668 693.686C775.221 690.45 771.873 688.197 767.719 685.998C767.719 685.338 767.719 684.678 767.719 683.998C765.77 683.668 763.821 683.338 761.813 682.998C761.813 682.338 761.813 681.678 761.813 680.998C750.445 680.998 739.077 680.998 727.364 680.998C727.364 681.658 727.364 682.318 727.364 682.998C726.38 683.292 726.38 683.292 725.376 683.592C711.929 688.025 701.75 696.94 694.576 709.248C686.744 724.968 686.887 744.389 691.931 760.998C692.19 761.907 692.449 762.816 692.715 763.752C693.659 766.93 693.659 766.93 694.884 769.998C695.858 770.493 695.858 770.493 696.852 770.998C697.34 771.967 697.827 772.937 698.329 773.936C701.35 779.528 706.848 786.686 712.908 788.787C713.456 788.857 714.004 788.926 714.569 788.998C714.569 789.658 714.569 790.318 714.569 790.998C715.245 791.191 715.921 791.385 716.618 791.584C717.505 791.844 718.392 792.105 719.306 792.373C720.185 792.628 721.064 792.884 721.97 793.146C724.411 793.998 724.411 793.998 727.364 795.998C732.299 797.173 737.21 797.191 742.251 797.186C743.075 797.185 743.899 797.184 744.748 797.183C755.626 797.148 755.626 797.148 765.877 793.928C767.719 792.998 767.719 792.998 770.671 792.998C770.671 792.338 770.671 791.678 770.671 790.998C771.686 790.421 772.701 789.843 773.747 789.248C780.248 785.757 780.248 785.757 785.004 780.311C786.419 777.998 786.419 777.998 788.703 777.104C791.341 776.998 791.341 776.998 793.482 778.623C794.176 779.407 794.87 780.191 795.585 780.998C798.435 784.101 801.269 787.049 804.443 789.811C807.079 792.108 809.602 794.45 812.01 796.998C811.21 798.936 811.21 798.936 810.041 800.998C809.067 801.328 808.093 801.658 807.089 801.998C806.815 802.588 806.541 803.179 806.258 803.787C800.952 814.095 782.913 822.049 772.64 825.998C762.912 828.791 753.548 829.464 743.481 829.373C741.54 829.39 741.54 829.39 739.56 829.408C721.345 829.353 701.604 822.846 687.994 809.998C687.994 809.338 687.994 808.678 687.994 807.998C687.121 807.58 687.121 807.58 686.229 807.154C678.959 803.284 674.615 796.87 670.278 789.998C669.702 789.087 669.126 788.175 668.532 787.236C664.372 780.44 664.372 780.44 664.372 776.998C663.722 776.998 663.073 776.998 662.404 776.998C655.338 759.798 655.092 743.361 655.514 724.998C656.163 724.998 656.813 724.998 657.482 724.998C657.496 724.199 657.51 723.4 657.525 722.576C657.888 714.069 659.617 707.574 663.388 699.998C663.947 698.862 664.507 697.727 665.083 696.557C671.159 684.777 680.215 673.721 690.947 665.998C691.921 665.998 692.896 665.998 693.9 665.998C693.9 665.338 693.9 664.678 693.9 663.998C696.011 662.806 698.123 661.617 700.24 660.436C701.824 659.531 703.394 658.597 704.938 657.623C711.725 653.433 718.464 651.998 726.38 651.998C726.38 651.338 726.38 650.678 726.38 649.998C732.715 649.168 738.948 648.889 745.327 648.873Z" fill="#3A80C1"/>
<path d="M1158.56 710.508C1162.29 713.571 1164.99 716.735 1167.33 721C1167.33 721.99 1167.33 722.98 1167.33 724C1167.98 724 1168.63 724 1169.29 724C1173.47 735.559 1173.75 746.198 1173.62 758.398C1173.61 760.329 1173.6 762.259 1173.6 764.19C1173.58 769.224 1173.55 774.257 1173.5 779.291C1173.46 784.447 1173.44 789.602 1173.42 794.758C1173.38 804.839 1173.31 814.919 1173.23 825C1163.49 825 1153.74 825 1143.7 825C1143.7 821.04 1143.7 817.08 1143.7 813C1138.72 814.476 1138.72 814.476 1136.81 818C1136.16 818 1135.51 818 1134.85 818C1134.47 818.926 1134.47 818.926 1134.08 819.871C1132.7 822.316 1131.8 822.899 1129.31 824.062C1128.38 824.513 1128.38 824.513 1127.43 824.973C1126.23 825.481 1126.23 825.481 1125 826C1123.25 826.789 1123.25 826.789 1121.46 827.594C1116.51 829.453 1111.72 829.494 1106.49 829.437C1105.53 829.432 1104.57 829.427 1103.58 829.421C1096.64 829.272 1090.87 828.297 1084.65 825C1083.57 824.526 1082.5 824.051 1081.39 823.562C1076.21 820.503 1072.83 817.266 1069.88 812C1068.91 811.34 1067.94 810.68 1066.93 810C1066.93 808.68 1066.93 807.36 1066.93 806C1066.28 806 1065.63 806 1064.96 806C1063.25 800.007 1062.81 794.452 1062.81 788.25C1062.81 787.517 1062.81 786.784 1062.81 786.029C1062.85 782.236 1063.09 778.688 1063.98 775C1064.63 775 1065.28 775 1065.95 775C1066.02 774.431 1066.09 773.863 1066.17 773.277C1067.62 764.65 1071.68 760.455 1078.44 755.312C1088.86 748.223 1099.65 746.8 1111.9 746.812C1113.19 746.814 1113.19 746.814 1114.51 746.815C1124.19 746.907 1133.39 748.399 1142.72 751C1142.52 748.768 1142.29 746.539 1142.04 744.312C1141.92 743.071 1141.79 741.83 1141.66 740.551C1140.58 736.321 1139.07 734.793 1135.83 732C1135.28 731.489 1134.73 730.979 1134.16 730.453C1127.03 724.353 1118.62 725.377 1109.69 725.778C1101.21 726.561 1094.68 731.076 1088.52 736.742C1086.62 738 1086.62 738 1084.58 737.84C1082.13 736.758 1080.32 735.106 1078.33 733.328C1076.59 731.787 1076.59 731.787 1073.7 729.937C1071.05 728.122 1068.9 726.561 1066.93 724C1066.84 720.943 1068.01 719.898 1070.01 717.625C1070.94 716.759 1071.88 715.892 1072.84 715C1073.36 714.501 1073.88 714.002 1074.42 713.488C1078.97 709.287 1084.19 705 1090.55 705C1090.55 704.34 1090.55 703.68 1090.55 703C1091.91 702.515 1093.26 702.037 1094.61 701.562C1095.74 701.162 1095.74 701.162 1096.9 700.754C1117 694.727 1141.6 698.082 1158.56 710.508Z" fill="#3980C2"/>
<path d="M1389.64 712.288C1401.97 723.001 1407.55 734.911 1409.45 750.999C1409.45 757.599 1409.45 764.199 1409.45 770.999C1379.24 770.999 1349.04 770.999 1317.92 770.999C1321.11 780.236 1321.11 780.236 1325.64 788.245C1326.77 789.999 1326.77 789.999 1327.77 792.175C1328.6 794.215 1328.6 794.215 1330.83 794.749C1331.44 794.831 1332.05 794.914 1332.68 794.999C1332.68 795.659 1332.68 796.319 1332.68 796.999C1342.94 800.783 1355.39 802.257 1365.84 798.311C1369.76 796.416 1372.77 793.94 1375.99 790.999C1376.64 790.999 1377.29 790.999 1377.96 790.999C1378.32 789.823 1378.32 789.823 1378.69 788.624C1379.92 785.999 1379.92 785.999 1381.89 784.624C1383.86 783.999 1383.86 783.999 1385.83 784.999C1385.83 785.659 1385.83 786.319 1385.83 786.999C1387.78 787.329 1389.73 787.659 1391.73 787.999C1391.73 788.659 1391.73 789.319 1391.73 789.999C1392.44 790.111 1393.14 790.223 1393.87 790.339C1396.84 791.044 1399.18 792.132 1401.88 793.561C1402.75 794.017 1403.62 794.472 1404.52 794.94C1405.17 795.29 1405.83 795.639 1406.5 795.999C1405.11 801.869 1402.91 804.745 1398.62 808.999C1397.77 810.175 1397.77 810.175 1396.9 811.374C1394.33 814.418 1391.48 816.46 1388.17 818.561C1387.25 819.148 1387.25 819.148 1386.32 819.747C1381.45 822.798 1376.55 825.302 1371.07 826.999C1369.36 827.531 1369.36 827.531 1367.63 828.073C1362.02 829.457 1356.38 829.367 1350.64 829.374C1349.56 829.398 1348.47 829.423 1347.35 829.448C1333.4 829.498 1318.19 824.037 1308.07 813.999C1294.54 799.644 1287.78 784.253 1287.9 764.249C1287.9 763.116 1287.91 761.983 1287.91 760.815C1288.29 741.966 1295.56 727.523 1308.63 714.334C1312.06 711.089 1315.9 708.481 1319.88 705.999C1320.7 705.458 1321.52 704.916 1322.36 704.358C1325.85 702.415 1328.74 702.338 1332.68 701.999C1332.68 701.339 1332.68 700.679 1332.68 699.999C1353.85 696.965 1372.49 698.4 1389.64 712.288Z" fill="#3A81C1"/>
<path d="M985.732 698.938C986.946 698.945 986.946 698.945 988.184 698.952C990.156 698.963 992.127 698.981 994.098 699C994.098 699.66 994.098 700.32 994.098 701C995.955 700.877 995.955 700.877 997.85 700.75C1003.68 700.75 1008.48 702.685 1013.78 705C1014.53 705.324 1015.28 705.648 1016.05 705.981C1020.41 708.025 1023.35 710.312 1026.58 714C1027.17 714.604 1027.77 715.207 1028.39 715.829C1034.26 722.001 1040.97 731.078 1041.53 739.922C1041.47 740.608 1041.4 741.294 1041.34 742C1041.99 742 1042.64 742 1043.31 742C1044.88 751.541 1044.29 761.328 1044.29 771C1014.41 771 984.531 771 953.743 771C958.605 787.301 958.605 787.301 970.233 797.907C974.308 799.923 978.32 800.124 982.798 800.098C983.803 800.095 984.809 800.092 985.845 800.088C987.403 800.076 987.403 800.076 988.992 800.063C990.578 800.056 990.578 800.056 992.196 800.049C994.799 800.038 997.401 800.021 1000 800C1000 799.34 1000 798.68 1000 798C1000.57 797.721 1001.15 797.441 1001.73 797.153C1007.82 793.98 1012.63 790.335 1015.75 784C1019.17 784.324 1021.19 784.607 1023.88 786.86C1027.46 789.702 1031.39 791.131 1035.61 792.711C1040.04 794.49 1040.04 794.49 1041.52 796.848C1041.24 800.238 1039.44 801.899 1037.28 804.438C1036.51 805.365 1035.73 806.292 1034.94 807.247C1032.55 809.927 1030.17 812.541 1027.56 815C1026.91 815 1026.26 815 1025.59 815C1025.59 815.66 1025.59 816.32 1025.59 817C1008.85 828.765 991.393 830.792 971.56 828.571C955.018 825.209 942.915 815.665 933.013 802.25C922.225 783.866 920.645 764.551 925.1 743.715C930.654 724.686 943.007 712.497 959.649 703C961.79 702.086 961.79 702.086 963.893 701.375C964.58 701.136 965.266 700.896 965.973 700.649C972.527 698.972 979.019 698.866 985.732 698.938Z" fill="#3980C1"/>
<path d="M1212.6 669C1222.67 669 1232.74 669 1243.11 669C1243.44 679.89 1243.76 690.78 1244.1 702C1253.51 702.33 1262.93 702.66 1272.64 703C1272.64 711.58 1272.64 720.16 1272.64 729C1262.89 729 1253.15 729 1243.11 729C1243.16 736.548 1243.21 744.095 1243.29 751.643C1243.33 755.158 1243.36 758.673 1243.38 762.189C1243.4 766.231 1243.44 770.271 1243.5 774.312C1243.5 775.562 1243.5 776.811 1243.5 778.098C1243.63 785.989 1244.3 792.005 1249.86 797.957C1252.65 799.337 1255.03 799.517 1258.12 799.688C1259.71 799.786 1259.71 799.786 1261.33 799.887C1262.14 799.924 1262.95 799.961 1263.78 800C1263.78 799.34 1263.78 798.68 1263.78 798C1267.03 797.01 1270.28 796.02 1273.62 795C1273.62 805.23 1273.62 815.46 1273.62 826C1270.37 826.33 1267.13 826.66 1263.78 827C1263.78 827.66 1263.78 828.32 1263.78 829C1235.87 829.77 1235.87 829.77 1226.17 821.691C1223.81 819.424 1221.72 817.003 1219.71 814.418C1218.54 812.858 1218.54 812.858 1216.54 812C1212.91 801.415 1212.04 791.135 1212.21 780C1212.22 778.543 1212.23 777.086 1212.23 775.629C1212.25 771.855 1212.28 768.081 1212.33 764.306C1212.37 760.431 1212.39 756.555 1212.41 752.68C1212.45 745.119 1212.52 737.56 1212.6 730C1205.78 730 1198.96 730 1191.93 730C1191.93 721.09 1191.93 712.18 1191.93 703C1202.16 702.505 1202.16 702.505 1212.6 702C1212.6 691.11 1212.6 680.22 1212.6 669Z" fill="#3980C2"/>
<path d="M915.353 700.999C916.338 701.999 916.338 701.999 916.449 704.866C916.442 706.744 916.442 706.744 916.434 708.659C916.432 709.323 916.431 709.988 916.429 710.672C916.424 712.802 916.412 714.932 916.399 717.061C916.394 718.502 916.39 719.943 916.386 721.383C916.375 724.922 916.358 728.46 916.338 731.999C912.923 731.54 909.769 731.107 906.495 729.999C904.678 729.916 902.858 729.891 901.039 729.901C899.455 729.906 899.455 729.906 897.839 729.911C896.737 729.919 895.635 729.928 894.499 729.936C892.829 729.943 892.829 729.943 891.126 729.95C888.375 729.962 885.624 729.978 882.873 729.999C882.873 730.659 882.873 731.319 882.873 731.999C881.838 732.587 881.838 732.587 880.781 733.186C875.668 736.461 871.848 741.065 870.078 746.999C869.428 746.999 868.779 746.999 868.109 746.999C867.017 755.671 866.912 764.34 866.814 773.069C866.793 774.602 866.773 776.134 866.752 777.667C866.698 781.668 866.649 785.67 866.601 789.671C866.543 794.49 866.478 799.308 866.414 804.127C866.318 811.417 866.23 818.708 866.141 825.999C856.072 825.999 846.003 825.999 835.629 825.999C835.629 785.409 835.629 744.819 835.629 702.999C845.048 702.999 854.467 702.999 864.172 702.999C864.172 708.279 864.172 713.559 864.172 718.999C865.147 718.999 866.121 718.999 867.125 718.999C867.186 718.462 867.247 717.926 867.31 717.374C869.458 710.992 875.37 706.346 880.905 702.999C891.102 697.928 904.69 696.592 915.353 700.999Z" fill="#3A80C1"/>
<path d="M1137.8 772.002C1137.8 772.662 1137.8 773.322 1137.8 774.002C1140.23 774.497 1140.23 774.497 1142.72 775.002C1143.5 783.449 1140.4 790.038 1135.83 797.002C1133.68 798.439 1133.68 798.439 1130.91 800.002C1129.92 800.685 1128.93 801.368 1127.91 802.072C1123.41 804.683 1119.13 804.557 1114.05 804.439C1112.75 804.45 1112.75 804.45 1111.43 804.461C1106.6 804.413 1103.33 804.145 1099.41 801.002C1098.83 800.55 1098.24 800.099 1097.64 799.634C1093.88 795.828 1093.05 792.829 1092.89 787.439C1093.15 781.981 1093.75 778.965 1097.44 775.002C1107.79 766.136 1125.64 769.704 1137.8 772.002Z" fill="#F7FBFD"/>
<path d="M985.669 724.811C986.408 724.798 987.147 724.786 987.908 724.774C996.548 724.75 1001.45 728.378 1007.88 733.998C1012.2 738.619 1014.77 743.559 1014.77 749.998C994.628 749.998 974.49 749.998 953.742 749.998C955.271 742.232 959.788 735.378 965.553 729.998C972.1 725.752 977.973 724.817 985.669 724.811Z" fill="#F9FDFD"/>
<path d="M1367.13 729C1369.77 731.25 1369.77 731.25 1372.05 734C1372.65 734.611 1373.25 735.222 1373.87 735.851C1374.83 736.853 1374.83 736.853 1375.8 737.875C1376.4 738.491 1376.99 739.107 1377.6 739.742C1378.94 742 1378.94 742 1378.94 749C1359.77 749 1340.61 749 1320.87 749C1322.14 739.958 1325.88 734.885 1332.86 729.254C1342.68 722.38 1357.03 722.901 1367.13 729Z" fill="#F9FDFE"/>
<path d="M1211.62 668C1222.66 668 1233.7 668 1245.08 668C1245.08 678.89 1245.08 689.78 1245.08 701C1254.18 701 1263.27 701 1272.64 701C1272.64 701.66 1272.64 702.32 1272.64 703C1268.59 703.025 1264.55 703.043 1260.5 703.055C1259.12 703.06 1257.74 703.067 1256.37 703.075C1254.39 703.088 1252.41 703.093 1250.44 703.098C1249.25 703.103 1248.06 703.108 1246.83 703.114C1244.1 703 1244.1 703 1243.11 702C1243.03 699.552 1243 697.132 1243.02 694.684C1243.02 693.953 1243.02 693.221 1243.02 692.468C1243.03 690.125 1243.04 687.781 1243.05 685.438C1243.06 683.852 1243.06 682.267 1243.06 680.682C1243.07 676.788 1243.09 672.894 1243.11 669C1233.04 669 1222.97 669 1212.6 669C1212.6 679.89 1212.6 690.78 1212.6 702C1210.29 703.174 1208.92 703.115 1206.35 703.098C1205.22 703.094 1205.22 703.094 1204.06 703.09C1202.63 703.076 1202.63 703.076 1201.16 703.062C1198.11 703.042 1195.07 703.021 1191.93 703C1191.93 711.91 1191.93 720.82 1191.93 730C1198.75 730 1205.57 730 1212.6 730C1212.6 751.12 1212.6 772.24 1212.6 794C1212.28 794 1211.95 794 1211.62 794C1211.62 773.21 1211.62 752.42 1211.62 731C1204.8 731 1197.97 731 1190.95 731C1189.56 728.182 1189.85 725.827 1189.87 722.68C1189.87 721.423 1189.87 720.166 1189.88 718.871C1189.88 717.552 1189.89 716.234 1189.9 714.875C1189.91 713.535 1189.91 712.195 1189.92 710.855C1189.93 707.57 1189.94 704.285 1189.96 701C1197.11 701 1204.25 701 1211.62 701C1211.62 690.11 1211.62 679.22 1211.62 668Z" fill="#B5D5EE"/>
<path d="M842.284 700.902C843.263 700.904 843.263 700.904 844.262 700.906C846.348 700.912 848.433 700.924 850.519 700.937C851.933 700.942 853.347 700.946 854.76 700.95C858.227 700.962 861.693 700.979 865.16 700.999C867.087 704.568 867.211 706.924 867.129 710.999C867.311 711.886 867.494 712.773 867.682 713.687C868.113 715.999 868.113 715.999 867.129 718.999C866.154 718.999 865.18 718.999 864.176 718.999C864.176 713.719 864.176 708.439 864.176 702.999C854.757 702.999 845.337 702.999 835.633 702.999C835.633 743.589 835.633 784.179 835.633 825.999C834.983 825.999 834.333 825.999 833.664 825.999C833.664 785.079 833.664 744.159 833.664 701.999C836.54 700.538 839.076 700.888 842.284 700.902Z" fill="#B9D7F0"/>
<path d="M1173.23 738C1175.37 742.352 1175.47 745.455 1175.42 750.165C1175.42 750.985 1175.42 751.805 1175.42 752.65C1175.42 755.355 1175.41 758.06 1175.39 760.766C1175.39 762.643 1175.38 764.521 1175.38 766.398C1175.37 771.337 1175.36 776.275 1175.33 781.214C1175.31 786.255 1175.3 791.295 1175.29 796.336C1175.27 806.224 1175.24 816.112 1175.2 826C1170.59 826.025 1165.98 826.043 1161.38 826.055C1159.81 826.06 1158.24 826.067 1156.67 826.075C1154.42 826.088 1152.17 826.093 1149.92 826.098C1149.21 826.103 1148.51 826.108 1147.78 826.113C1146.09 826.113 1144.41 826.062 1142.72 826C1141.73 825 1141.73 825 1141.64 822.715C1141.65 821.798 1141.66 820.882 1141.67 819.938C1141.68 819.018 1141.69 818.099 1141.7 817.152C1141.71 816.442 1141.72 815.732 1141.73 815C1140.76 815.99 1139.78 816.98 1138.78 818C1138.13 817.67 1137.48 817.34 1136.81 817C1138.6 815 1138.6 815 1140.75 813C1141.72 813 1142.7 813 1143.7 813C1143.7 816.96 1143.7 820.92 1143.7 825C1153.45 825 1163.19 825 1173.23 825C1173.23 796.29 1173.23 767.58 1173.23 738Z" fill="#C9E2F4"/>
<path d="M953.742 773C982.974 773 1012.21 773 1042.32 773C1040.36 775 1040.36 775 1037.08 775.207C1035.65 775.197 1034.22 775.177 1032.79 775.148C1032.01 775.14 1031.22 775.132 1030.42 775.124C1028.72 775.107 1027.02 775.085 1025.32 775.059C1022.63 775.019 1019.94 774.995 1017.26 774.975C1009.61 774.917 1001.96 774.84 994.319 774.733C989.645 774.668 984.972 774.628 980.298 774.603C978.515 774.589 976.733 774.566 974.951 774.532C972.457 774.487 969.966 774.472 967.472 774.464C966.366 774.432 966.366 774.432 965.238 774.4C962.916 774.359 962.916 774.359 959.648 775C957.161 777.37 957.161 777.37 955.711 780C954.273 777.353 953.742 776.106 953.742 773Z" fill="#EAF8FE"/>
<path d="M1243.11 729C1252.85 729 1262.6 729 1272.64 729C1272.64 729.66 1272.64 730.32 1272.64 731C1263.54 731 1254.45 731 1245.08 731C1245.08 750.8 1245.08 770.6 1245.08 791C1242.82 787.553 1242.87 786.299 1242.89 782.243C1242.89 781.062 1242.89 779.881 1242.89 778.665C1242.9 777.39 1242.91 776.114 1242.92 774.801C1242.92 773.495 1242.92 772.19 1242.93 770.845C1242.93 767.378 1242.95 763.911 1242.97 760.444C1243 756.905 1243 753.365 1243.01 749.826C1243.03 742.884 1243.07 735.942 1243.11 729Z" fill="#B3D6F1"/>
<path d="M962.6 733C962.925 733.66 963.25 734.32 963.585 735C962.136 738.736 962.136 738.736 959.648 740C958.097 742.626 957.679 743.871 957.679 747C975.868 747.33 994.057 747.66 1012.8 748C1012.31 744.535 1012.31 744.535 1011.81 741C1012.46 741.33 1013.11 741.66 1013.78 742C1014.27 745.96 1014.27 745.96 1014.77 750C994.628 750 974.49 750 953.742 750C954.56 745.847 954.939 744.229 957.064 740.938C957.502 740.256 957.939 739.574 958.39 738.871C959.737 736.867 961.117 734.903 962.6 733Z" fill="#A1CEE9"/>
<path d="M1410.43 773C1408.9 774.563 1408.9 774.563 1406.5 776C1404.2 775.691 1401.9 775.352 1399.61 775C1396.56 774.871 1393.51 774.907 1390.46 774.938C1388.64 774.946 1386.82 774.955 1385 774.963C1384.05 774.969 1383.1 774.975 1382.12 774.982C1361.68 775.109 1341.29 774.762 1320.87 774C1320.87 773.67 1320.87 773.34 1320.87 773C1332.25 772.847 1343.64 772.698 1355.03 772.557C1360.32 772.491 1365.6 772.424 1370.89 772.352C1375.99 772.283 1381.09 772.218 1386.19 772.157C1388.14 772.133 1390.09 772.107 1392.03 772.08C1394.76 772.041 1397.48 772.009 1400.2 771.978C1401.01 771.965 1401.82 771.953 1402.66 771.939C1408.24 771.886 1408.24 771.886 1410.43 773Z" fill="#ECFBFE"/>
<path d="M1170.28 735C1170.6 735.99 1170.93 736.98 1171.26 738C1171.91 738 1172.56 738 1173.23 738C1173.23 766.71 1173.23 795.42 1173.23 825C1163.49 825 1153.74 825 1143.7 825C1143.7 821.37 1143.7 817.74 1143.7 814C1144.03 814 1144.35 814 1144.69 814C1144.69 817.3 1144.69 820.6 1144.69 824C1153.78 824 1162.88 824 1172.25 824C1171.92 796.28 1171.6 768.56 1171.26 740C1170.61 739.67 1169.96 739.34 1169.29 739C1169.62 737.68 1169.94 736.36 1170.28 735Z" fill="#4883B1"/>
<path d="M1111.9 746.813C1112.76 746.813 1113.62 746.813 1114.5 746.813C1121.45 746.875 1128.03 747.591 1134.85 749C1136.23 749.281 1136.23 749.281 1137.65 749.567C1138.7 749.781 1138.7 749.781 1139.77 750C1139.77 750.33 1139.77 750.66 1139.77 751C1137.33 751.027 1134.89 751.047 1132.45 751.063C1131.75 751.071 1131.05 751.079 1130.34 751.088C1128.56 751.097 1126.78 751.052 1125 751C1124.52 750.505 1124.52 750.505 1124.02 750C1119.62 749.746 1115.2 749.815 1110.79 749.813C1109.55 749.8 1108.3 749.788 1107.01 749.776C1105.83 749.774 1104.64 749.772 1103.41 749.77C1102.32 749.766 1101.22 749.761 1100.09 749.757C1097.29 749.724 1097.29 749.724 1095.47 752C1093.19 752.694 1090.89 753.362 1088.59 754C1088.26 754.33 1087.94 754.66 1087.6 755C1085.96 755.041 1084.32 755.043 1082.68 755C1083.66 752 1083.66 752 1085.85 750.867C1086.77 750.54 1087.7 750.212 1088.65 749.875C1089.55 749.543 1090.46 749.21 1091.39 748.867C1098.16 746.976 1104.92 746.807 1111.9 746.813Z" fill="#5791BD"/>
<path d="M776.575 826C773.208 828.281 771.967 828.22 768.025 828.125C766.557 828.098 766.557 828.098 765.06 828.071C764.313 828.048 763.566 828.024 762.796 828C762.796 828.66 762.796 829.32 762.796 830C757.311 832.525 752.365 832.331 746.433 832.313C745.419 832.329 744.405 832.345 743.361 832.362C736.288 832.366 730.142 831.234 723.426 829C723.426 828.67 723.426 828.34 723.426 828C724.928 828.024 724.928 828.024 726.46 828.048C730.242 828.103 734.025 828.137 737.807 828.165C739.432 828.18 741.056 828.2 742.681 828.227C752.151 828.376 760.688 828.043 769.893 825.552C772.596 825.009 774.021 825.057 776.575 826Z" fill="#EBFBFE"/>
<path d="M1326.77 735C1326.77 738 1326.77 738 1324.8 747C1342.34 747.33 1359.88 747.66 1377.95 748C1377.95 746.35 1377.95 744.7 1377.95 743C1377.3 743 1376.65 743 1375.99 743C1376.31 741.68 1376.63 740.36 1376.97 739C1378.94 742 1378.94 742 1378.94 749C1359.77 749 1340.61 749 1320.87 749C1321.9 741.662 1322.59 740.341 1326.77 735Z" fill="#C8E9FB"/>
<path d="M706.693 693C707.343 693 707.992 693 708.662 693C708.005 698.08 704.287 700.858 700.915 704.367C698.662 707.197 697.869 709.546 696.851 713C696.201 713.66 695.551 714.32 694.882 715C694.488 717.323 694.154 719.657 693.898 722C692.599 722.33 691.3 722.66 689.961 723C690.297 713.956 694.6 705.511 700.788 699C701.437 699 702.087 699 702.756 699C703.04 698.381 703.325 697.762 703.617 697.125C704.725 695 704.725 695 706.693 693Z" fill="#D0EBF7"/>
<path d="M892.719 698.999C895.385 698.944 898.05 698.905 900.716 698.874C901.464 698.857 902.213 698.84 902.984 698.823C907.504 698.783 911.118 699.188 915.357 700.999C916.341 701.999 916.341 701.999 916.453 704.866C916.447 706.118 916.442 707.369 916.437 708.659C916.436 709.323 916.434 709.988 916.433 710.672C916.427 712.802 916.415 714.932 916.402 717.061C916.397 718.502 916.393 719.943 916.389 721.383C916.378 724.922 916.361 728.46 916.341 731.999C912.93 731.504 912.93 731.504 909.451 730.999C909.451 730.669 909.451 730.339 909.451 729.999C911.075 729.999 912.699 729.999 914.372 729.999C913.885 716.139 913.885 716.139 913.388 701.999C906.567 701.339 899.746 700.679 892.719 699.999C892.719 699.669 892.719 699.339 892.719 698.999Z" fill="#689AC5"/>
<path d="M743.974 679.939C744.933 679.944 745.892 679.948 746.881 679.953C749.234 679.965 751.587 679.981 753.94 680.002C753.94 680.332 753.94 680.662 753.94 681.002C753.13 681.051 752.321 681.1 751.487 681.15C745.444 681.561 739.595 682.132 733.682 683.474C732.013 683.844 730.332 684.16 728.645 684.435C723.555 685.288 721.008 685.955 717.522 690.002C714.352 691.316 712.09 692.002 708.664 692.002C714.242 687.344 719.832 683.002 727.365 683.002C727.365 682.342 727.365 681.682 727.365 681.002C732.911 679.797 738.335 679.889 743.974 679.939Z" fill="#B0D5EB"/>
<path d="M1308.07 715C1308.4 715.66 1308.72 716.32 1309.06 717C1307.7 719.682 1306.16 721.934 1304.26 724.25C1301.46 727.925 1299.39 731.907 1297.25 736C1296.6 736 1295.95 736 1295.28 736C1295.13 736.784 1294.99 737.567 1294.85 738.375C1294.29 741 1294.29 741 1293.31 743C1292.66 743 1292.01 743 1291.34 743C1293.46 731.364 1300.17 723.381 1308.07 715Z" fill="#5995C1"/>
<path d="M1012.8 826.001C1010.93 828.585 1009.81 829.008 1006.66 829.696C1005.38 829.838 1004.09 829.979 1002.77 830.126C1002.08 830.202 1001.39 830.278 1000.68 830.357C998.486 830.591 996.292 830.799 994.095 831.001C993.369 831.07 992.644 831.14 991.896 831.212C978.329 832.477 978.329 832.477 973.426 830.001C973.426 829.671 973.426 829.341 973.426 829.001C974.13 828.981 974.834 828.961 975.56 828.94C978.786 828.845 982.011 828.735 985.237 828.626C986.344 828.595 987.452 828.564 988.593 828.532C996.839 828.238 1004.63 825.655 1012.8 826.001Z" fill="#D5ECF9"/>
<path d="M759.844 650.002C766.746 649.662 772.033 650.771 778.545 653.002C779.895 653.406 781.249 653.803 782.605 654.189C783.538 654.457 784.472 654.725 785.434 655.002C785.434 655.662 785.434 656.322 785.434 657.002C786.409 657.332 787.383 657.662 788.387 658.002C788.712 658.662 789.037 659.322 789.371 660.002C790.346 660.218 790.346 660.218 791.34 660.439C791.989 660.625 792.639 660.81 793.308 661.002C793.796 662.487 793.796 662.487 794.293 664.002C790.999 663.068 788.686 662.258 786.049 660.002C782.638 657.361 779.774 656.866 775.592 656.002C775.592 655.342 775.592 654.682 775.592 654.002C774.455 653.857 773.318 653.713 772.147 653.564C768.046 653.043 763.945 652.522 759.844 652.002C759.844 651.342 759.844 650.682 759.844 650.002Z" fill="#D2ECF7"/>
<path d="M1034.45 793C1037.86 794.485 1037.86 794.485 1041.34 796C1040.11 803.815 1032.55 810.447 1026.57 815C1026.25 814.01 1025.92 813.02 1025.59 812C1029.53 808 1029.53 808 1031.19 806.438C1032.73 804.919 1032.73 804.919 1033.46 802C1034.11 801.67 1034.76 801.34 1035.43 801C1036.08 797.971 1036.08 797.971 1036.42 795C1035.77 795 1035.12 795 1034.45 795C1034.45 794.34 1034.45 793.68 1034.45 793Z" fill="#4584B4"/>
<path d="M835.629 701C845.373 701 855.117 701 865.156 701C867.176 705.104 867.213 706.599 867.125 711C867.308 711.887 867.49 712.774 867.679 713.688C868.109 716 868.109 716 867.125 719C866.151 719 865.176 719 864.172 719C864.172 713.39 864.172 707.78 864.172 702C854.753 702 845.334 702 835.629 702C835.629 701.67 835.629 701.34 835.629 701Z" fill="#D8F1FD"/>
<path d="M733.245 677.903C734.257 677.906 734.257 677.906 735.289 677.908C737.445 677.913 739.601 677.926 741.758 677.939C743.219 677.944 744.68 677.948 746.141 677.952C749.724 677.963 753.307 677.981 756.89 678.001C757.378 678.991 757.378 678.991 757.875 680.001C756.826 680.039 756.826 680.039 755.757 680.077C752.546 680.194 749.336 680.316 746.125 680.439C744.476 680.498 744.476 680.498 742.794 680.558C736.619 680.797 730.541 681.215 724.41 682.001C724.41 681.011 724.41 680.021 724.41 679.001C727.337 677.514 729.984 677.89 733.245 677.903Z" fill="#3A7BB4"/>
<path d="M1104.33 724C1108.31 723.971 1112.29 723.953 1116.27 723.938C1117.95 723.925 1117.95 723.925 1119.67 723.912C1120.76 723.909 1121.85 723.906 1122.98 723.903C1123.98 723.897 1124.98 723.892 1126.01 723.887C1129.03 724.004 1131.88 724.432 1134.84 725C1135.33 726.485 1135.33 726.485 1135.83 728C1136.66 728.454 1137.49 728.908 1138.35 729.375C1139.14 729.911 1139.93 730.448 1140.75 731C1141.06 733.688 1141.06 733.688 1140.75 736C1140.12 735.42 1140.12 735.42 1139.48 734.828C1138.91 734.308 1138.33 733.787 1137.73 733.25C1137.18 732.74 1136.62 732.229 1136.04 731.703C1129.52 726.609 1125.26 725.391 1117.13 725.625C1116.28 725.627 1115.43 725.628 1114.55 725.629C1109.48 725.7 1105.2 726.343 1100.39 728C1100.72 727.34 1101.04 726.68 1101.38 726C1102.35 726 1103.33 726 1104.33 726C1104.33 725.34 1104.33 724.68 1104.33 724Z" fill="#5D94C1"/>
<path d="M1271.66 821C1273.62 823 1273.62 823 1273.62 826C1263.87 828.643 1254.11 828.193 1244.1 828C1244.1 827.34 1244.1 826.68 1244.1 826C1242.15 826 1240.2 826 1238.19 826C1238.19 825.67 1238.19 825.34 1238.19 825C1243.91 824.897 1249.48 825.005 1255.17 825.625C1261.06 826.167 1265.09 825.783 1270.12 822.375C1270.88 821.694 1270.88 821.694 1271.66 821Z" fill="#397BB2"/>
<path d="M980.316 700C979.178 700.164 979.178 700.164 978.017 700.332C977.03 700.491 976.043 700.649 975.026 700.813C974.044 700.963 973.062 701.114 972.05 701.27C969.166 701.788 969.166 701.788 967.521 705C965.53 705.879 965.53 705.879 963.215 706.563C959.127 707.792 955.814 708.894 952.757 712C952.757 711.34 952.757 710.68 952.757 710C951.458 710.33 950.159 710.66 948.82 711C955.911 702.931 969.7 696.857 980.316 700Z" fill="#6499C3"/>
<path d="M882.873 730C884.172 730.33 885.471 730.66 886.81 731C886.276 731.471 885.742 731.941 885.191 732.426C884.487 733.048 883.783 733.671 883.058 734.312C882.361 734.927 881.664 735.542 880.947 736.176C878.952 737.922 878.952 737.922 877.387 739.73C875.983 741 875.983 741 873.031 741C872.923 741.638 872.815 742.276 872.704 742.934C872.548 743.76 872.392 744.586 872.231 745.438C872.082 746.261 871.934 747.085 871.781 747.934C871.544 748.616 871.306 749.297 871.062 750C870.088 750.33 869.113 750.66 868.109 751C867.784 751.99 867.46 752.98 867.125 754C867.45 751.69 867.775 749.38 868.109 747C868.759 747 869.408 747 870.078 747C870.17 746.261 870.263 745.523 870.358 744.762C871.165 741.594 872.269 740.19 874.445 737.812C875.053 737.138 875.661 736.464 876.287 735.77C877.483 734.498 878.696 733.244 879.92 732C880.895 732 881.869 732 882.873 732C882.873 731.34 882.873 730.68 882.873 730Z" fill="#C7E1F3"/>
<path d="M1191.93 704C1198.75 704 1205.57 704 1212.6 704C1211.95 705.32 1211.3 706.64 1210.63 708C1210.63 707.34 1210.63 706.68 1210.63 706C1202.35 706.495 1202.35 706.495 1193.9 707C1193.9 714.26 1193.9 721.52 1193.9 729C1193.25 729 1192.6 729 1191.93 729C1191.93 720.75 1191.93 712.5 1191.93 704Z" fill="#3F7DB8"/>
<path d="M688.979 724C689.304 724 689.629 724 689.964 724C689.978 724.837 689.992 725.673 690.007 726.535C690.068 729.674 690.141 732.812 690.222 735.951C690.27 737.963 690.305 739.976 690.338 741.988C690.531 749.071 691.158 754.506 693.901 761C693.576 761.99 693.251 762.98 692.916 764C685.897 754.599 687.237 739.214 687.995 728C688.291 726.659 688.61 725.322 688.979 724Z" fill="#C2E5F6"/>
<path d="M1143.7 813C1143.7 816.96 1143.7 820.92 1143.7 825C1153.45 825 1163.19 825 1173.23 825C1173.23 825.33 1173.23 825.66 1173.23 826C1168.9 826.025 1164.58 826.043 1160.25 826.055C1158.77 826.06 1157.3 826.067 1155.83 826.075C1153.72 826.088 1151.6 826.093 1149.49 826.098C1147.58 826.106 1147.58 826.106 1145.63 826.114C1142.72 826 1142.72 826 1141.73 825C1141.66 823.314 1141.65 821.625 1141.67 819.938C1141.68 819.018 1141.69 818.099 1141.7 817.152C1141.71 816.442 1141.72 815.732 1141.73 815C1140.76 815.99 1139.78 816.98 1138.78 818C1138.13 817.67 1137.48 817.34 1136.81 817C1140.38 813 1140.38 813 1143.7 813Z" fill="#9BC6E5"/>
<path d="M1111.22 769.001C1122.24 768.751 1132.8 769.331 1143.7 771.001C1143.7 771.991 1143.7 772.981 1143.7 774.001C1144.35 774.331 1145 774.661 1145.67 775.001C1145.02 775.001 1144.37 775.001 1143.7 775.001C1143.7 777.641 1143.7 780.281 1143.7 783.001C1143.38 783.001 1143.05 783.001 1142.72 783.001C1142.72 780.361 1142.72 777.721 1142.72 775.001C1140.28 774.506 1140.28 774.506 1137.8 774.001C1137.8 773.341 1137.8 772.681 1137.8 772.001C1129.03 771.341 1120.26 770.681 1111.22 770.001C1111.22 769.671 1111.22 769.341 1111.22 769.001Z" fill="#5F98C5"/>
<path d="M1065.94 770C1066.27 770.66 1066.59 771.32 1066.93 772C1066.6 772.99 1066.28 773.98 1065.94 775C1065.29 775 1064.65 775 1063.98 775C1063.98 784.24 1063.98 793.48 1063.98 803C1063.33 803 1062.68 803 1062.01 803C1059.04 793.969 1060.13 781.56 1063.98 773C1064.63 772.01 1065.28 771.02 1065.94 770Z" fill="#C3E2F4"/>
<path d="M1118.11 767.874C1119.15 767.883 1120.2 767.892 1121.27 767.902C1123.83 767.925 1126.38 767.958 1128.94 767.999C1129.42 768.989 1129.42 768.989 1129.92 769.999C1123.75 769.669 1117.58 769.339 1111.22 768.999C1111.22 769.659 1111.22 770.319 1111.22 770.999C1110.22 771.181 1110.22 771.181 1109.21 771.367C1107.89 771.618 1107.89 771.618 1106.55 771.874C1105.68 772.037 1104.81 772.199 1103.92 772.367C1101.51 772.967 1099.6 773.779 1097.44 774.999C1097.77 773.349 1098.09 771.699 1098.43 769.999C1105.08 767.934 1111.18 767.76 1118.11 767.874Z" fill="#427FB4"/>
<path d="M1406.5 801C1405.19 806.911 1402.07 811.074 1397.64 815C1395.25 816.146 1393.38 816.563 1390.75 817C1391.4 816.01 1392.05 815.02 1392.72 814C1393.37 814 1394.02 814 1394.69 814C1394.91 813.464 1395.13 812.928 1395.36 812.375C1397.46 808.529 1401.71 801 1406.5 801Z" fill="#D7EEF9"/>
<path d="M886.812 729C890.032 728.971 893.251 728.953 896.47 728.938C897.384 728.929 898.299 728.921 899.24 728.912C900.119 728.909 900.998 728.906 901.903 728.903C903.117 728.895 903.117 728.895 904.355 728.887C906.497 729 906.497 729 909.45 730C909.45 730.66 909.45 731.32 909.45 732C901.33 732 893.21 732 884.844 732C885.493 731.67 886.143 731.34 886.812 731C886.812 730.34 886.812 729.68 886.812 729Z" fill="#D4EEFA"/>
<path d="M753.938 681C756.536 681 759.134 681 761.812 681C761.812 681.66 761.812 682.32 761.812 683C764.735 683.495 764.735 683.495 767.717 684C767.717 684.66 767.717 685.32 767.717 686C768.428 686.268 769.138 686.536 769.87 686.812C772.615 687.99 775.041 689.391 777.56 691C776.91 691.66 776.26 692.32 775.591 693C775.591 692.34 775.591 691.68 775.591 691C773.642 691 771.693 691 769.686 691C769.686 690.01 769.686 689.02 769.686 688C768.711 688.33 767.737 688.66 766.733 689C766.408 688.01 766.083 687.02 765.749 686C762.825 685.505 762.825 685.505 759.843 685C759.843 684.01 759.843 683.02 759.843 682C757.894 682 755.945 682 753.938 682C753.938 681.67 753.938 681.34 753.938 681Z" fill="#DBF1FC"/>
<path d="M1099.41 774C1099.74 774.66 1100.06 775.32 1100.4 776C1099.42 777.953 1099.42 777.953 1098 780.25C1094.81 785.842 1095.02 789.799 1096.46 796C1097.11 796 1097.76 796 1098.43 796C1098.1 796.99 1097.78 797.98 1097.44 799C1092.92 794.101 1092.93 790.602 1093.11 784.113C1093.64 779.922 1094.61 778.045 1097.44 775C1098.09 774.67 1098.74 774.34 1099.41 774Z" fill="#AFD3EC"/>
<path d="M801.182 683C801.506 683.66 801.831 684.32 802.166 685C798.907 690.348 794.633 697.096 788.386 699C786.172 698.625 786.172 698.625 784.449 698C785.166 697.602 785.883 697.203 786.621 696.793C789.52 694.902 791.618 692.847 793.984 690.312C795.362 688.838 796.769 687.39 798.229 686C798.878 686 799.528 686 800.197 686C800.522 685.01 800.847 684.02 801.182 683Z" fill="#CCE0EF"/>
<path d="M723.426 828C733.17 828.33 742.914 828.66 752.953 829C752.953 829.33 752.953 829.66 752.953 830C732.745 832.957 732.745 832.957 723.426 829C723.426 828.67 723.426 828.34 723.426 828Z" fill="#D5ECF8"/>
<path d="M1272.64 795C1272.96 796.32 1273.29 797.64 1273.62 799C1270.51 801.11 1269.71 801.256 1266.14 801.266C1264.84 801.269 1264.84 801.269 1263.51 801.273C1262.6 801.266 1261.7 801.258 1260.77 801.25C1259.86 801.258 1258.95 801.265 1258.01 801.273C1256.71 801.27 1256.71 801.27 1255.38 801.266C1254.58 801.263 1253.79 801.261 1252.97 801.259C1250.98 801 1250.98 801 1249.02 799C1253.89 799.33 1258.76 799.66 1263.78 800C1263.78 799.34 1263.78 798.68 1263.78 798C1266.7 797.01 1269.63 796.02 1272.64 795Z" fill="#3E7EB4"/>
<path d="M1213.58 797C1214.56 797.495 1214.56 797.495 1215.55 798C1216.11 801.061 1216.43 804.122 1216.77 807.215C1217.22 810.101 1217.22 810.101 1219.38 811.23C1220.07 811.484 1220.75 811.738 1221.46 812C1224.22 814.375 1224.22 814.375 1226.38 817C1226.02 819.164 1226.02 819.164 1225.39 821C1224.92 820.434 1224.44 819.868 1223.96 819.285C1223.33 818.552 1222.71 817.818 1222.07 817.062C1221.45 816.332 1220.84 815.601 1220.2 814.848C1218.62 812.916 1218.62 812.916 1216.53 812C1215.7 809.383 1215.7 809.383 1214.94 806.125C1214.68 805.055 1214.42 803.985 1214.16 802.883C1213.58 800 1213.58 800 1213.58 797Z" fill="#5D96BE"/>
<path d="M687.006 733C687.331 733 687.656 733 687.99 733C688.045 733.599 688.099 734.199 688.156 734.817C688.406 737.565 688.66 740.314 688.913 743.062C688.999 744.005 689.084 744.948 689.173 745.92C689.64 750.972 690.183 755.985 690.943 761C689.025 760.223 689.025 760.223 687.006 759C685.107 750.54 686.376 741.583 687.006 733Z" fill="#4F8EBA"/>
<path d="M1122.05 826C1122.7 826.33 1123.35 826.66 1124.02 827C1123.04 827.33 1122.07 827.66 1121.06 828C1121.06 828.66 1121.06 829.32 1121.06 830C1119.51 830.217 1119.51 830.217 1117.93 830.438C1114.39 830.906 1114.39 830.906 1111.81 831.594C1108.92 832.053 1106.86 831.717 1104.02 831.062C1103.15 830.868 1102.29 830.673 1101.39 830.473C1100.41 830.239 1100.41 830.239 1099.41 830C1099.41 829.67 1099.41 829.34 1099.41 829C1100.63 828.951 1101.85 828.902 1103.11 828.852C1104.73 828.777 1106.34 828.701 1107.96 828.625C1108.76 828.594 1109.57 828.563 1110.4 828.531C1114.74 828.317 1118.03 827.796 1122.05 826Z" fill="#D2E7F7"/>
<path d="M1116.82 724.688C1117.69 724.659 1118.56 724.63 1119.46 724.6C1125.45 724.542 1128.97 725.418 1133.86 729.001C1134.35 729.991 1134.35 729.991 1134.84 731.001C1132.44 730.626 1132.44 730.626 1129.92 730.001C1129.6 729.341 1129.27 728.681 1128.94 728.001C1124.57 726.95 1120.31 726.866 1115.84 726.876C1114.62 726.873 1113.41 726.871 1112.16 726.868C1109.36 726.663 1109.36 726.663 1108.27 728.001C1106.3 728.042 1104.33 728.043 1102.36 728.001C1107.38 724.6 1110.9 724.752 1116.82 724.688Z" fill="#C8E7F7"/>
<path d="M807.088 802C808.388 802.33 809.687 802.66 811.026 803C804.374 811.222 804.374 811.222 801.183 813C798.476 813.188 798.476 813.188 796.262 813C798.712 810.439 801.136 808.038 803.89 805.812C806.178 804.197 806.178 804.197 807.088 802Z" fill="#CFE7F5"/>
<path d="M669.294 690C669.619 690.66 669.944 691.32 670.279 692C669.954 692.99 669.629 693.98 669.294 695C668.645 695 667.995 695 667.326 695C667.001 697.31 666.676 699.62 666.342 702C665.367 702 664.393 702 663.389 702C663.064 704.64 662.739 707.28 662.405 710C661.755 710 661.105 710 660.436 710C660.111 711.98 659.786 713.96 659.452 716C657.639 711.172 659.941 707.669 661.866 703.195C664.053 698.606 666.58 694.284 669.294 690Z" fill="#75A3CB"/>
<path d="M1290.35 783C1290.68 783 1291 783 1291.34 783C1291.52 784.072 1291.7 785.145 1291.89 786.25C1293.15 791.532 1295.94 795.8 1298.76 800.363C1300.2 803 1300.2 803 1300.2 806C1295.3 801.591 1290.86 796.224 1290.05 789.418C1290.05 787.276 1290.19 785.135 1290.35 783Z" fill="#C6E2F4"/>
<path d="M1209.65 668C1210.3 668 1210.95 668 1211.62 668C1211.62 678.89 1211.62 689.78 1211.62 701C1210.64 700.67 1209.67 700.34 1208.66 700C1208.99 699.67 1209.31 699.34 1209.65 699C1209.75 697.121 1209.78 695.237 1209.78 693.355C1209.78 692.204 1209.78 691.052 1209.78 689.865C1209.78 688.652 1209.78 687.438 1209.77 686.188C1209.78 684.985 1209.78 683.783 1209.78 682.545C1209.78 681.389 1209.78 680.234 1209.78 679.043C1209.78 677.981 1209.78 676.919 1209.78 675.825C1209.66 673.37 1209.26 671.361 1208.66 669C1208.99 668.67 1209.31 668.34 1209.65 668Z" fill="#EAF8FD"/>
<path d="M989.176 725C997.627 725 1001.75 728.3 1007.88 734C1004.92 735 1004.92 735 1001.97 734C1001.32 733.01 1000.67 732.02 1000 731C999.353 730.67 998.703 730.34 998.034 730C998.034 729.34 998.034 728.68 998.034 728C997.121 728.062 996.207 728.124 995.266 728.188C992.129 728 992.129 728 990.456 726.488C990.034 725.997 989.611 725.506 989.176 725Z" fill="#CEECFB"/>
<path d="M876.968 706C877.617 706.33 878.267 706.66 878.936 707C877.909 708.658 876.858 710.301 875.799 711.938C875.216 712.854 874.634 713.771 874.034 714.715C871.744 717.348 870.509 717.721 867.125 718C869.339 712.939 872.458 709.109 876.968 706Z" fill="#5792BD"/>
<path d="M733.269 680C740.09 680 746.911 680 753.938 680C753.938 680.33 753.938 680.66 753.938 681C753.129 681.049 752.319 681.098 751.485 681.148C745.276 681.571 739.345 682.204 733.292 683.695C731.3 684 731.3 684 728.348 683C729.972 682.67 731.596 682.34 733.269 682C733.269 681.34 733.269 680.68 733.269 680Z" fill="#BDDDF5"/>
<path d="M679.136 677C679.461 677 679.785 677 680.12 677C680.479 682.478 680.479 682.478 678.828 684.875C677.167 686 677.167 686 674.214 686C674.214 686.66 674.214 687.32 674.214 688C673.24 688 672.266 688 671.262 688C672.598 685.035 674.14 682.709 676.244 680.25C676.763 679.636 677.282 679.023 677.817 678.391C678.252 677.932 678.687 677.473 679.136 677Z" fill="#5392B9"/>
<path d="M792.323 688C792.973 688 793.622 688 794.291 688C793.466 692.584 791.144 695.371 787.402 698C784.572 697.875 784.572 697.875 782.48 697C782.48 696.34 782.48 695.68 782.48 695C783.232 694.732 783.983 694.464 784.757 694.188C787.308 693.042 788.473 692.003 790.354 690C791.004 690 791.654 690 792.323 690C792.323 689.34 792.323 688.68 792.323 688Z" fill="#4988B2"/>
<path d="M690.945 761C691.92 761.495 691.92 761.495 692.914 762C693.538 764.042 693.916 766.091 694.329 768.188C694.511 768.786 694.694 769.384 694.882 770C695.532 770.33 696.182 770.66 696.851 771C697.904 772.848 697.904 772.848 698.942 775.062C699.29 775.796 699.638 776.529 699.996 777.285C700.257 777.851 700.519 778.417 700.788 779C699.813 779 698.839 779 697.835 779C697.835 778.01 697.835 777.02 697.835 776C697.185 776 696.536 776 695.867 776C694.864 774.345 693.88 772.677 692.914 771C692.264 770.67 691.615 770.34 690.945 770C690.945 767.03 690.945 764.06 690.945 761Z" fill="#5992C2"/>
<path d="M1294.29 730C1294.94 730 1295.59 730 1296.26 730C1295.98 730.684 1295.7 731.369 1295.41 732.074C1294.18 735.284 1293.18 738.519 1292.2 741.812C1291.85 742.974 1291.5 744.135 1291.15 745.332C1290.88 746.212 1290.62 747.093 1290.35 748C1290.03 748 1289.7 748 1289.37 748C1287.66 741.856 1289.15 738.573 1292.1 733.039C1293.31 731 1293.31 731 1294.29 730Z" fill="#D4EFFB"/>
<path d="M969.488 724C976.959 724 984.429 724 992.126 724C992.126 724.33 992.126 724.66 992.126 725C990.681 725.056 990.681 725.056 989.208 725.113C981.842 725.489 975.407 726.17 968.504 729C968.829 727.35 969.154 725.7 969.488 724Z" fill="#558DBB"/>
<path d="M1390.75 817C1390.75 817.66 1390.75 818.32 1390.75 819C1389.77 819 1388.8 819 1387.8 819C1387.8 820.32 1387.8 821.64 1387.8 823C1386.24 823.533 1384.68 824.051 1383.12 824.562C1382.25 824.853 1381.38 825.143 1380.49 825.441C1377.88 826.017 1376.51 825.892 1374.02 825C1374.83 824.59 1375.65 824.18 1376.5 823.758C1377.57 823.219 1378.63 822.68 1379.74 822.125C1380.8 821.591 1381.86 821.058 1382.95 820.508C1389.64 817 1389.64 817 1390.75 817Z" fill="#C1E0F1"/>
<path d="M1066.93 764C1067.58 764 1068.23 764 1068.9 764C1067.29 769.55 1067.29 769.55 1065.46 771.875C1063.26 775.031 1062.81 778.238 1062.01 782C1061.69 782 1061.36 782 1061.03 782C1060.22 774.644 1062.42 769.795 1066.93 764Z" fill="#E7F9FE"/>
<path d="M981.299 725C981.299 725.66 981.299 726.32 981.299 727C975.393 729 969.488 731 963.582 733C968.512 727.414 974.021 725 981.299 725Z" fill="#BFDEF0"/>
<path d="M782.052 818.938C783.168 818.958 784.285 818.979 785.435 819C781.076 822.851 775.397 825.771 769.626 826.25C768.996 826.167 768.367 826.085 767.719 826C768.348 825.711 768.977 825.423 769.626 825.125C771.805 824.172 771.805 824.172 772.64 822C774.266 821.298 775.907 820.63 777.561 820C778.546 819 778.546 819 782.052 818.938Z" fill="#538EBD"/>
<path d="M1034.45 793C1037.86 794.485 1037.86 794.485 1041.34 796C1040.81 799.796 1039.17 801.472 1036.42 804C1036.42 801.03 1036.42 798.06 1036.42 795C1035.77 795 1035.12 795 1034.45 795C1034.45 794.34 1034.45 793.68 1034.45 793Z" fill="#548FB6"/>
<path d="M706.695 821C710.593 821.33 714.491 821.66 718.506 822C718.506 822.66 718.506 823.32 718.506 824C720.13 824 721.754 824 723.428 824C723.103 824.66 722.778 825.32 722.443 826C716.535 826.632 711.977 824.375 706.695 822C706.695 821.67 706.695 821.34 706.695 821Z" fill="#5A95C5"/>
<path d="M1019.69 816C1020.99 816 1022.28 816 1023.62 816C1023.62 816.66 1023.62 817.32 1023.62 818C1021.57 819.508 1021.57 819.508 1018.89 821.125C1018.01 821.664 1017.13 822.203 1016.22 822.758C1013.78 824 1013.78 824 1010.83 824C1010.83 823.34 1010.83 822.68 1010.83 822C1013.38 819.685 1015.43 818.802 1018.7 818C1019.03 817.34 1019.35 816.68 1019.69 816Z" fill="#4684B6"/>
<path d="M716.535 791C722.382 791.99 722.382 791.99 728.346 793C728.346 793.66 728.346 794.32 728.346 795C732.731 795.99 732.731 795.99 737.204 797C729.985 798.834 723.194 794.804 716.535 792C716.535 791.67 716.535 791.34 716.535 791Z" fill="#C4E5F5"/>
<path d="M1326.77 730C1328.4 730 1330.02 730 1331.69 730C1331.3 730.447 1330.91 730.895 1330.5 731.355C1327.58 734.748 1324.97 738.018 1322.83 742C1321.73 738.25 1321.73 738.25 1322.83 736C1323.48 736 1324.13 736 1324.8 736C1325.02 735.072 1325.02 735.072 1325.23 734.125C1325.79 732 1325.79 732 1326.77 730Z" fill="#4A87B7"/>
<path d="M1211.62 726C1211.29 726.99 1210.97 727.98 1210.63 729C1205.43 729 1200.24 729 1194.88 729C1194.88 728.34 1194.88 727.68 1194.88 727C1197.3 726.833 1199.72 726.666 1202.14 726.5C1202.83 726.452 1203.52 726.405 1204.23 726.355C1209.42 726 1209.42 726 1211.62 726Z" fill="#387AB0"/>
<path d="M1271.65 821C1273.62 823 1273.62 823 1273.62 826C1269.4 826.66 1265.18 827.32 1260.83 828C1260.83 827.34 1260.83 826.68 1260.83 826C1261.88 825.732 1262.94 825.464 1264.03 825.188C1267.29 824.138 1269.13 823.254 1271.65 821Z" fill="#4685B4"/>
<path d="M936.023 804C938.459 804.495 938.459 804.495 940.945 805C940.945 805.66 940.945 806.32 940.945 807C941.594 807 942.244 807 942.913 807C943.238 809.31 943.563 811.62 943.897 814C937.43 809 937.43 809 936.023 804Z" fill="#4D8BB6"/>
<path d="M858.27 704C860.218 704 862.167 704 864.175 704C864.175 708.95 864.175 713.9 864.175 719C863.525 718.67 862.876 718.34 862.207 718C861.855 714.927 861.769 711.876 861.657 708.785C861.513 707.866 861.37 706.947 861.222 706C860.248 705.34 859.273 704.68 858.27 704Z" fill="#4480B5"/>
<path d="M769.687 788C771.636 788 773.584 788 775.592 788C774.618 789.485 774.618 789.485 773.624 791C772.649 791 771.675 791 770.671 791C770.671 791.66 770.671 792.32 770.671 793C768.397 793.66 766.124 794.32 763.781 795C763.781 794.01 763.781 793.02 763.781 792C764.969 791.567 764.969 791.567 766.18 791.125C768.833 790.267 768.833 790.267 769.687 788Z" fill="#D5F0FB"/>
<path d="M1091.54 748.999C1089.46 751.106 1087.94 751.844 1085.26 752.999C1082.38 754.251 1079.56 755.55 1076.77 756.999C1076.96 755.186 1076.96 755.186 1077.76 752.999C1082.3 749.635 1086.02 748.843 1091.54 748.999Z" fill="#DAF2FC"/>
<path d="M1084.65 706.999C1084.06 707.385 1083.48 707.772 1082.88 708.171C1078.73 710.953 1074.69 713.745 1070.87 716.999C1070.87 712.999 1070.87 712.999 1072.49 711.331C1073.54 710.579 1073.54 710.579 1074.62 709.811C1075.32 709.302 1076.01 708.793 1076.73 708.268C1079.85 706.299 1081.09 705.795 1084.65 706.999Z" fill="#DCF1FB"/>
<path d="M954.727 821C961.699 822.394 968.424 823.944 974.412 828C966.932 827.626 961.38 825.424 954.727 822C954.727 821.67 954.727 821.34 954.727 821Z" fill="#6598C3"/>
<path d="M1011.81 790C1011.81 793 1011.81 793 1009.78 795.625C1006.42 798.388 1004.26 798.746 1000 799C1003.48 796.092 1007.07 793.516 1010.83 791C1011.15 790.67 1011.48 790.34 1011.81 790Z" fill="#6B9FC7"/>
<path d="M664.371 779C669.292 781 669.292 781 670.669 783.312C670.986 784.199 671.303 785.086 671.63 786C671.962 786.887 672.295 787.774 672.637 788.688C673.229 791 673.229 791 672.245 793C668.347 786.07 668.347 786.07 664.371 779Z" fill="#538EB9"/>
<path d="M1098.43 770C1102.65 770 1106.87 770 1111.22 770C1111.22 770.33 1111.22 770.66 1111.22 771C1110.22 771.182 1110.22 771.182 1109.21 771.367C1108.33 771.535 1107.45 771.702 1106.55 771.875C1105.24 772.119 1105.24 772.119 1103.92 772.367C1101.51 772.968 1099.6 773.78 1097.44 775C1097.77 773.35 1098.09 771.7 1098.43 770Z" fill="#5A91BE"/>
<path d="M1141.73 741C1142.06 741 1142.38 741 1142.72 741C1142.72 744.3 1142.72 747.6 1142.72 751C1136.87 750.01 1136.87 750.01 1130.91 749C1130.91 748.67 1130.91 748.34 1130.91 748C1134.48 748 1138.05 748 1141.73 748C1141.73 745.69 1141.73 743.38 1141.73 741Z" fill="#C6E8F6"/>
<path d="M1142.72 737C1144.69 738 1144.69 738 1145.86 741.25C1146.61 744.772 1146.84 746.647 1145.67 750C1144.7 750.495 1144.7 750.495 1143.7 751C1143.38 746.38 1143.05 741.76 1142.72 737Z" fill="#407CAF"/>
<path d="M1130.91 700C1136.86 700.55 1142.03 701.904 1147.64 704C1145.69 704.99 1145.69 704.99 1143.7 706C1142.73 705.34 1141.75 704.68 1140.75 704C1138.79 703.61 1136.82 703.268 1134.84 703C1134.84 702.34 1134.84 701.68 1134.84 701C1133.54 700.67 1132.24 700.34 1130.91 700Z" fill="#6399C3"/>
<path d="M1025.59 815C1026.24 815 1026.89 815 1027.56 815C1027 817.867 1026.71 818.861 1024.61 821C1022.48 821.633 1022.48 821.633 1020.06 822.125C1019.25 822.293 1018.45 822.46 1017.62 822.633C1016.69 822.815 1016.69 822.815 1015.75 823C1016.92 820.614 1017.86 820.163 1020.12 818.875C1020.73 818.522 1021.33 818.169 1021.96 817.805C1023.62 817 1023.62 817 1025.59 817C1025.59 816.34 1025.59 815.68 1025.59 815Z" fill="#C3E0F2"/>
<path d="M1318.9 778C1321.05 780.796 1322.83 783.633 1324.49 786.75C1325.14 787.949 1325.14 787.949 1325.8 789.172C1326.12 789.775 1326.44 790.378 1326.77 791C1325.15 790.67 1323.52 790.34 1321.85 790C1321.67 789.103 1321.67 789.103 1321.48 788.188C1320.91 785.738 1320.91 785.738 1318.9 783C1318.77 780.312 1318.77 780.312 1318.9 778Z" fill="#5C95C0"/>
<path d="M1326.77 735C1326.77 737.798 1326.41 739.979 1325.79 742.688C1325.61 743.496 1325.42 744.304 1325.23 745.137C1325.09 745.752 1324.95 746.366 1324.8 747C1325.78 747.33 1326.75 747.66 1327.76 748C1325.81 748 1323.86 748 1321.85 748C1323.57 738.405 1323.57 738.405 1326.77 735Z" fill="#D7EFF8"/>
<path d="M1350.15 724.939C1350.83 724.943 1351.52 724.948 1352.23 724.952C1353.91 724.964 1355.6 724.982 1357.28 725.001C1357.28 725.331 1357.28 725.661 1357.28 726.001C1353.06 726.001 1348.84 726.001 1344.49 726.001C1344.49 726.661 1344.49 727.321 1344.49 728.001C1341.89 728.001 1339.29 728.001 1336.61 728.001C1340.41 724.147 1345.05 724.875 1350.15 724.939Z" fill="#C8E9F6"/>
<path d="M987.39 698.939C988.643 698.948 989.895 698.957 991.185 698.966C992.626 698.983 992.626 698.983 994.096 699.001C994.096 699.331 994.096 699.661 994.096 700.001C993.419 700.05 992.743 700.099 992.046 700.149C990.716 700.262 990.716 700.262 989.359 700.376C988.48 700.446 987.6 700.515 986.694 700.587C984.013 700.868 984.013 700.868 981.3 703.001C980.326 703.001 979.351 703.001 978.348 703.001C978.023 702.011 977.698 701.021 977.363 700.001C980.868 698.814 983.7 698.904 987.39 698.939Z" fill="#4A85B1"/>
<path d="M730.315 652C729.99 652.66 729.665 653.32 729.33 654C727.04 654.374 724.743 654.708 722.441 655C722.116 655.33 721.791 655.66 721.456 656C719.816 656.041 718.175 656.043 716.535 656C718.504 653 718.504 653 720.103 652.313C723.523 651.856 726.866 651.942 730.315 652Z" fill="#3C7CB7"/>
<path d="M759.844 650C761.259 649.973 762.673 649.954 764.088 649.938C765.27 649.92 765.27 649.92 766.476 649.902C768.702 650 768.702 650 771.655 651C771.655 651.66 771.655 652.32 771.655 653C772.629 653.33 773.604 653.66 774.608 654C773.633 653.856 772.659 653.711 771.655 653.562C767.724 652.991 763.785 652.492 759.844 652C759.844 651.34 759.844 650.68 759.844 650Z" fill="#ABD6F1"/>
<path d="M776.576 826.001C773.031 828.402 770.17 828.439 766.057 828.626C765.366 828.665 764.675 828.704 763.963 828.743C762.262 828.837 760.561 828.92 758.859 829.001C761.878 826.957 763.654 826.457 767.164 825.814C768.097 825.635 769.029 825.455 769.99 825.271C772.533 825.012 774.175 825.188 776.576 826.001Z" fill="#D0EAFA"/>
<path d="M683.07 802C684.045 802.33 685.019 802.66 686.023 803C686.023 803.66 686.023 804.32 686.023 805C687.322 805 688.621 805 689.96 805C690.61 806.65 691.259 808.3 691.929 810C685.218 808.03 685.218 808.03 683.07 805C683.07 804.01 683.07 803.02 683.07 802Z" fill="#3F82B4"/>
<path d="M1298.23 801C1299.53 801 1300.83 801 1302.17 801C1304.1 803.577 1305.67 806.107 1307.09 809C1306.44 809.66 1305.79 810.32 1305.12 811C1303.97 809.523 1302.82 808.043 1301.68 806.562C1301.04 805.739 1300.4 804.915 1299.74 804.066C1298.23 802 1298.23 802 1298.23 801Z" fill="#5087B5"/>
<path d="M872.046 740C872.986 742.17 873.172 743.563 872.438 745.824C871.693 747.568 870.889 749.286 870.078 751C869.428 751 868.779 751 868.109 751C867.784 751.99 867.46 752.98 867.125 754C867.45 751.69 867.775 749.38 868.109 747C868.759 747 869.408 747 870.078 747C870.22 746.216 870.362 745.433 870.508 744.625C871.062 742 871.062 742 872.046 740Z" fill="#B7D8EE"/>
<path d="M937.99 717C938.639 717 939.289 717 939.958 717C938.207 721.044 935.632 724.461 933.068 728C932.121 724.956 931.95 724.301 933.315 721.25C933.883 720.507 934.451 719.765 935.037 719C936.011 719 936.986 719 937.99 719C937.99 718.34 937.99 717.68 937.99 717Z" fill="#DBF5FC"/>
<path d="M657.481 712C657.806 712 658.131 712 658.465 712C658.141 716.29 657.816 720.58 657.481 725C656.831 725 656.182 725 655.513 725C655.459 723.396 655.421 721.792 655.39 720.188C655.367 719.294 655.344 718.401 655.32 717.48C655.513 715 655.513 715 657.481 712Z" fill="#D0EBF9"/>
<path d="M719.488 649C725.01 649 730.531 649 736.22 649C736.22 649.33 736.22 649.66 736.22 650C727.451 650.99 727.451 650.99 718.504 652C718.829 651.01 719.154 650.02 719.488 649Z" fill="#DFF7FE"/>
<path d="M1026.57 790C1029.9 790.547 1031.58 791.055 1034.45 793C1034.45 793.66 1034.45 794.32 1034.45 795C1030.88 795.201 1028.68 794.858 1025.59 793C1025.91 792.01 1026.24 791.02 1026.57 790Z" fill="#4280B5"/>
<path d="M1099.41 774C1099.73 774.66 1100.06 775.32 1100.39 776C1099.41 778.164 1099.41 778.164 1097.99 780.625C1097.53 781.442 1097.06 782.26 1096.58 783.102C1096.22 783.728 1095.85 784.355 1095.47 785C1095.15 785 1094.82 785 1094.49 785C1094.18 782.312 1094.18 782.312 1094.49 779C1096.95 776.125 1096.95 776.125 1099.41 774Z" fill="#CAE7F7"/>
<path d="M707.678 655C703.987 657 703.987 657 701.773 657C701.773 657.99 701.773 658.98 701.773 660C699.824 660.66 697.875 661.32 695.867 662C695.867 661.01 695.867 660.02 695.867 659C699.849 655.629 702.509 654.5 707.678 655Z" fill="#ECFCFE"/>
<path d="M950.789 820C954.761 821.59 958.681 823.282 962.6 825C962.6 825.33 962.6 825.66 962.6 826C960.651 826 958.702 826 956.695 826C956.695 825.34 956.695 824.68 956.695 824C953.771 823.505 953.771 823.505 950.789 823C950.789 822.01 950.789 821.02 950.789 820Z" fill="#D4EEF9"/>
<path d="M791.34 776C792.314 776 793.289 776 794.293 776C796.999 778.812 796.999 778.812 799.214 782C798.889 782.99 798.564 783.98 798.23 785C797.075 783.881 795.928 782.755 794.785 781.625C794.145 780.999 793.506 780.372 792.847 779.727C791.34 778 791.34 778 791.34 776Z" fill="#D3EBF9"/>
<path d="M958.663 705C958.663 705.99 958.663 706.98 958.663 708C958.054 708.289 957.445 708.577 956.817 708.875C954.595 709.937 954.595 709.937 952.757 712C952.757 711.34 952.757 710.68 952.757 710C951.458 710.33 950.159 710.66 948.82 711C951.792 707.517 954.302 706.208 958.663 705Z" fill="#578CBA"/>
<path d="M1332.68 700C1335.28 700 1337.88 700 1340.55 700C1337.48 701.695 1334.45 702.742 1331.08 703.688C1329.66 704.095 1329.66 704.095 1328.21 704.512C1325.79 705 1325.79 705 1323.82 704C1327.14 702.502 1328.94 702 1332.68 702C1332.68 701.34 1332.68 700.68 1332.68 700Z" fill="#74A5CB"/>
<path d="M1134.84 814C1135.17 814.66 1135.49 815.32 1135.83 816C1136.48 816.33 1137.13 816.66 1137.8 817C1136.82 817.33 1135.85 817.66 1134.84 818C1134.56 818.639 1134.27 819.279 1133.98 819.938C1132.49 822.717 1130.85 823.071 1127.95 824C1128.42 823.588 1128.89 823.175 1129.37 822.75C1131.07 820.818 1131.46 819.518 1131.89 817C1132.86 817 1133.84 817 1134.84 817C1134.84 816.01 1134.84 815.02 1134.84 814Z" fill="#5D95C1"/>
<path d="M795.276 813C795.601 813.99 795.926 814.98 796.26 816C793.984 818.313 792.836 818.496 789.74 819.125C788.935 819.293 788.131 819.46 787.302 819.633C786.377 819.815 786.377 819.815 785.434 820C786.754 817.317 788.326 816.779 790.908 815.375C791.722 814.929 792.535 814.483 793.373 814.023C794.001 813.686 794.629 813.348 795.276 813Z" fill="#B4D8F1"/>
<path d="M1213.58 670C1219.75 670 1225.92 670 1232.28 670C1232.28 670.33 1232.28 670.66 1232.28 671C1231.18 671.049 1230.08 671.098 1228.94 671.148C1227.49 671.223 1226.04 671.299 1224.59 671.375C1223.87 671.406 1223.14 671.437 1222.39 671.469C1218.68 671.673 1216.74 671.864 1213.58 674C1213.58 672.68 1213.58 671.36 1213.58 670Z" fill="#3A7CB6"/>
<path d="M764.766 653C768.338 653.33 771.911 653.66 775.592 654C775.592 654.66 775.592 655.32 775.592 656C774.354 656.021 773.116 656.041 771.84 656.062C771.143 656.074 770.447 656.086 769.729 656.098C767.718 656 767.718 656 764.766 655C764.766 654.34 764.766 653.68 764.766 653Z" fill="#4487B3"/>
<path d="M1228.35 823C1230.07 823.622 1231.79 824.248 1233.51 824.875C1234.95 825.397 1234.95 825.397 1236.42 825.93C1238.74 826.833 1240.92 827.821 1243.11 829C1241.55 828.858 1239.99 828.711 1238.44 828.562C1237.57 828.481 1236.7 828.4 1235.81 828.316C1233.57 828.038 1231.5 827.612 1229.33 827C1229.01 825.68 1228.68 824.36 1228.35 823Z" fill="#D1EAF9"/>
<path d="M1399.61 793C1403.02 794.485 1403.02 794.485 1406.5 796C1405.88 798.929 1404.93 801.361 1403.54 804C1402.23 801.333 1402.88 799.833 1403.54 797C1402.89 797 1402.24 797 1401.57 797C1401.57 796.34 1401.57 795.68 1401.57 795C1400.92 795 1400.27 795 1399.61 795C1399.61 794.34 1399.61 793.68 1399.61 793Z" fill="#6094BB"/>
<path d="M1387.8 787C1389.1 787.33 1390.4 787.66 1391.73 788C1391.73 788.66 1391.73 789.32 1391.73 790C1392.89 790.186 1392.89 790.186 1394.07 790.375C1396.66 791 1396.66 791 1398.62 793C1396.53 793.812 1396.53 793.812 1393.7 794C1391.33 792.586 1389.78 791.012 1387.8 789C1387.8 788.34 1387.8 787.68 1387.8 787Z" fill="#538DB6"/>
<path d="M780.511 781C781.81 781 783.11 781 784.448 781C783.127 785.026 781.079 785.883 777.558 788C776.909 788 776.259 788 775.59 788C776.239 786.68 776.889 785.36 777.558 784C778.208 784 778.858 784 779.527 784C779.852 783.01 780.176 782.02 780.511 781Z" fill="#CDEBF9"/>
<path d="M1380.9 822C1378.59 824.35 1377.01 824.732 1373.89 825.625C1372.55 826.016 1372.55 826.016 1371.18 826.414C1370.49 826.608 1369.8 826.801 1369.09 827C1368.77 826.34 1368.44 825.68 1368.11 825C1369.73 825 1371.36 825 1373.03 825C1373.03 824.34 1373.03 823.68 1373.03 823C1375.7 821.646 1377.96 821.935 1380.9 822Z" fill="#518CBC"/>
<path d="M694.883 814C696.301 814.426 697.715 814.866 699.127 815.312C699.915 815.556 700.703 815.8 701.515 816.051C703.839 817.042 705.059 818.081 706.694 820C705.719 820.495 705.719 820.495 704.725 821C702.63 820.074 702.63 820.074 700.235 818.688C699.442 818.238 698.649 817.788 697.832 817.324C695.867 816 695.867 816 694.883 814Z" fill="#669AC3"/>
<path d="M926.184 780C927.158 780.495 927.158 780.495 928.152 781C928.775 783.504 928.775 783.504 929.259 786.562C929.424 787.574 929.589 788.586 929.759 789.629C929.878 790.411 929.998 791.194 930.121 792C929.471 792 928.821 792 928.152 792C927.032 787.734 926.184 784.435 926.184 780Z" fill="#3E7BB5"/>
<path d="M1082.68 755.999C1082.68 756.659 1082.68 757.319 1082.68 757.999C1077.14 760.999 1077.14 760.999 1073.82 760.999C1073.82 760.339 1073.82 759.679 1073.82 758.999C1076.73 756.152 1078.69 755.662 1082.68 755.999Z" fill="#548DBB"/>
<path d="M1093.51 731C1094.16 731.33 1094.81 731.66 1095.48 732C1094.4 735.171 1093.49 736.008 1090.62 737.812C1087.6 739 1087.6 739 1084.65 738C1087.57 735.69 1090.49 733.38 1093.51 731Z" fill="#C5DFF0"/>
<path d="M1302.17 718C1303.14 718.33 1304.12 718.66 1305.12 719C1302.85 721.97 1300.57 724.94 1298.23 728C1297.91 726.68 1297.58 725.36 1297.25 724C1297.9 724 1298.55 724 1299.21 724C1299.52 723.196 1299.82 722.391 1300.14 721.562C1301.18 719 1301.18 719 1302.17 718Z" fill="#D7F2FC"/>
<path d="M1382.88 708C1386.35 709.963 1389.02 712.041 1391.73 715C1385.09 713.25 1385.09 713.25 1382.88 711C1382.88 710.01 1382.88 709.02 1382.88 708Z" fill="#4A89BB"/>
<path d="M1328.93 700.936C1330.78 700.967 1330.78 700.967 1332.68 700.999C1328.89 703.082 1324.9 704.495 1320.87 705.999C1321.17 704.061 1321.17 704.061 1321.85 701.999C1324.56 701.082 1326.14 700.89 1328.93 700.936Z" fill="#D6EFFC"/>
<path d="M753.938 681C756.536 681 759.134 681 761.812 681C761.812 681.66 761.812 682.32 761.812 683C764.735 683.495 764.735 683.495 767.717 684C767.717 684.33 767.717 684.66 767.717 685C765.119 685 762.52 685 759.843 685C759.843 684.01 759.843 683.02 759.843 682C757.894 682 755.945 682 753.938 682C753.938 681.67 753.938 681.34 753.938 681Z" fill="#A1C9E7"/>
<path d="M1392.72 811C1393.69 811.33 1394.67 811.66 1395.67 812C1391.12 816.875 1391.12 816.875 1387.8 818C1387.8 816.68 1387.8 815.36 1387.8 814C1389.42 813.67 1391.04 813.34 1392.72 813C1392.72 812.34 1392.72 811.68 1392.72 811Z" fill="#4C88B5"/>
<path d="M1034.45 807C1034.77 807.66 1035.1 808.32 1035.43 809C1034.33 811.562 1034.33 811.562 1032.48 814C1029.83 814.812 1029.83 814.812 1027.56 815C1028.52 813.854 1029.49 812.708 1030.45 811.562C1030.99 810.924 1031.52 810.286 1032.08 809.629C1032.84 808.73 1033.62 807.841 1034.45 807Z" fill="#CAE5F6"/>
<path d="M1137.8 793C1138.45 793 1139.1 793 1139.76 793C1138.51 795.844 1137.35 798.138 1134.84 800C1132.69 799.688 1132.69 799.688 1130.91 799C1131.68 798.567 1132.45 798.134 1133.24 797.688C1136.04 796.108 1136.04 796.108 1137.8 793Z" fill="#538CB8"/>
<path d="M1153.54 707C1159.2 707.875 1159.2 707.875 1161.42 709C1161.09 710.32 1160.77 711.64 1160.43 713C1159.28 712.192 1158.13 711.378 1156.99 710.562C1156.35 710.11 1155.71 709.658 1155.05 709.191C1154.55 708.798 1154.06 708.405 1153.54 708C1153.54 707.67 1153.54 707.34 1153.54 707Z" fill="#D4EEFA"/>
<path d="M1125.98 700C1127.49 700.089 1128.98 700.245 1130.47 700.438C1131.69 700.59 1131.69 700.59 1132.94 700.746C1133.57 700.83 1134.2 700.914 1134.84 701C1134.84 701.66 1134.84 702.32 1134.84 703C1128.32 703.25 1128.32 703.25 1125 701C1125.32 700.67 1125.65 700.34 1125.98 700Z" fill="#3E82AD"/>
<path d="M1088.58 701C1091.18 701 1093.78 701 1096.46 701C1093.5 703 1093.5 703 1090.55 703C1090.55 703.66 1090.55 704.32 1090.55 705C1089.25 705.33 1087.95 705.66 1086.61 706C1087.26 704.35 1087.91 702.7 1088.58 701Z" fill="#D0EEFA"/>
<path d="M962.598 793C965.521 794.65 968.444 796.3 971.456 798C967.749 799.255 966.169 798.371 962.598 797C962.598 795.68 962.598 794.36 962.598 793Z" fill="#4E8BB8"/>
<path d="M1381.89 784C1383.19 784.33 1384.49 784.66 1385.83 785C1385.83 785.66 1385.83 786.32 1385.83 787C1383.88 787.33 1381.93 787.66 1379.92 788C1379.92 788.66 1379.92 789.32 1379.92 790C1379.27 789.67 1378.62 789.34 1377.95 789C1379.25 787.35 1380.55 785.7 1381.89 784Z" fill="#709EC2"/>
<path d="M665.355 692C666.005 692 666.654 692 667.323 692C666.085 696.508 664.465 699.491 661.418 703C661.916 698.645 662.78 695.558 665.355 692Z" fill="#E2F4FD"/>
<path d="M1316.93 820C1320.5 821.65 1324.08 823.3 1327.76 825C1327.76 825.33 1327.76 825.66 1327.76 826C1323.38 826.393 1320.73 825.153 1316.93 823C1316.93 822.01 1316.93 821.02 1316.93 820Z" fill="#D4EDFB"/>
<path d="M1025.59 788C1027.86 788.33 1030.14 788.66 1032.48 789C1032.8 789.99 1033.13 790.98 1033.46 792C1035.45 792.733 1035.45 792.733 1037.4 793C1036.43 793.495 1036.43 793.495 1035.43 794C1033.09 793.004 1033.09 793.004 1030.39 791.562C1029.49 791.089 1028.6 790.616 1027.67 790.129C1026.99 789.756 1026.3 789.384 1025.59 789C1025.59 788.67 1025.59 788.34 1025.59 788Z" fill="#B9DAEF"/>
<path d="M1010.83 736C1012.13 736 1013.43 736 1014.77 736C1014.77 738.64 1014.77 741.28 1014.77 744C1010.83 739.375 1010.83 739.375 1010.83 736Z" fill="#4482B5"/>
<path d="M1332.68 725C1334.3 725 1335.93 725 1337.6 725C1337.93 725.66 1338.25 726.32 1338.59 727C1335.17 728.485 1335.17 728.485 1331.7 730C1332.02 728.35 1332.34 726.7 1332.68 725Z" fill="#4886B3"/>
<path d="M1075.79 712C1075.79 715.576 1074.72 717.053 1072.84 720C1071.86 719.67 1070.89 719.34 1069.88 719C1069.88 718.34 1069.88 717.68 1069.88 717C1071.81 715.286 1073.78 713.616 1075.79 712Z" fill="#5E94BE"/>
<path d="M1012.8 705C1014.26 705.617 1015.71 706.244 1017.16 706.875C1018.38 707.397 1018.38 707.397 1019.62 707.93C1021.66 709 1021.66 709 1022.64 711C1021.18 710.577 1019.72 710.136 1018.27 709.688C1017.46 709.444 1016.65 709.2 1015.81 708.949C1014.81 708.479 1014.81 708.479 1013.78 708C1013.46 707.01 1013.13 706.02 1012.8 705Z" fill="#6DA1C6"/>
<path d="M1272.64 795C1272.96 796.32 1273.29 797.64 1273.62 799C1270.38 799 1267.13 799 1263.78 799C1266.72 797.506 1269.58 796.207 1272.64 795Z" fill="#6191B6"/>
<path d="M688.977 752C691.496 753.28 691.633 754.242 692.606 756.875C693.008 757.923 693.008 757.923 693.417 758.992C693.898 761 693.898 761 692.914 764C690.2 760.045 689.437 756.776 688.977 752Z" fill="#C8E7F7"/>
<path d="M989.176 725C990.633 725.114 992.088 725.241 993.543 725.375C994.354 725.445 995.165 725.514 996 725.586C997.007 725.791 997.007 725.791 998.034 726C998.359 726.66 998.684 727.32 999.018 728C992.548 728.372 992.548 728.372 990.425 726.488C989.807 725.752 989.807 725.752 989.176 725Z" fill="#B4D8F1"/>
<path d="M904.527 727C907.357 726.812 907.357 726.812 910.433 727C911.082 727.99 911.732 728.98 912.401 730C906.742 730.125 906.742 730.125 904.527 729C904.527 728.34 904.527 727.68 904.527 727Z" fill="#3B82B2"/>
<path d="M1155.51 711C1159.14 711.498 1161.03 712.101 1163.39 715C1163.06 715.66 1162.74 716.32 1162.4 717C1161.75 716.34 1161.1 715.68 1160.43 715C1157.9 714.352 1157.9 714.352 1155.51 714C1155.51 713.01 1155.51 712.02 1155.51 711Z" fill="#6096BC"/>
<path d="M1309.05 709C1310.68 709.33 1312.3 709.66 1313.98 710C1312.35 711.65 1310.73 713.3 1309.05 715C1308.4 714.34 1307.76 713.68 1307.09 713C1307.74 711.68 1308.39 710.36 1309.05 709Z" fill="#DAEEFA"/>
<path d="M1393.7 815C1394.68 815.33 1395.65 815.66 1396.66 816C1394.22 817.485 1394.22 817.485 1391.73 819C1391.41 818.34 1391.08 817.68 1390.75 817C1391.72 816.34 1392.7 815.68 1393.7 815ZM1387.8 819C1388.77 819.33 1389.75 819.66 1390.75 820C1389.78 820.99 1388.8 821.98 1387.8 823C1387.8 821.68 1387.8 820.36 1387.8 819Z" fill="#EDFBFE"/>
<path d="M1396.66 810C1396.98 810 1397.31 810 1397.64 810C1397.64 811.65 1397.64 813.3 1397.64 815C1395.37 815.66 1393.09 816.32 1390.75 817C1391.4 816.01 1392.05 815.02 1392.72 814C1393.37 814 1394.02 814 1394.69 814C1395.34 812.68 1395.99 811.36 1396.66 810Z" fill="#BBDDF2"/>
<path d="M684.055 806C687.369 807.393 688.962 808.979 690.944 812C689.32 812 687.696 812 686.023 812C685.374 810.02 684.724 808.04 684.055 806Z" fill="#C1E4F5"/>
<path d="M1368.11 797C1368.44 797.66 1368.76 798.32 1369.1 799C1368.45 799 1367.8 799 1367.13 799C1367.13 799.66 1367.13 800.32 1367.13 801C1365.5 801.66 1363.88 802.32 1362.21 803C1362.39 801.125 1362.39 801.125 1363.19 799C1365.71 797.75 1365.71 797.75 1368.11 797Z" fill="#5892BE"/>
<path d="M789.371 778C790.345 778.33 791.319 778.66 792.323 779C792.323 779.66 792.323 780.32 792.323 781C789.718 782.461 788.49 783 785.434 783C787.156 779.125 787.156 779.125 789.371 778Z" fill="#3C80B1"/>
<path d="M657.48 753C657.805 753.66 658.13 754.32 658.465 755C659.114 755 659.764 755 660.433 755C660.433 758.3 660.433 761.6 660.433 765C660.108 765 659.784 765 659.449 765C658.329 760.734 657.48 757.435 657.48 753Z" fill="#3F7FB1"/>
<path d="M1138.78 738C1139.43 738 1140.08 738 1140.75 738C1141.89 741.473 1141.8 744.361 1141.73 748C1141.08 747.67 1140.43 747.34 1139.77 747C1140.09 745.68 1140.42 744.36 1140.75 743C1140.1 743 1139.45 743 1138.78 743C1138.78 741.35 1138.78 739.7 1138.78 738Z" fill="#EBFDFE"/>
<path d="M1170.28 735C1170.6 735.99 1170.93 736.98 1171.26 738C1171.91 738 1172.56 738 1173.23 738C1173.23 740.64 1173.23 743.28 1173.23 746C1171.26 742.25 1171.26 742.25 1171.26 740C1170.61 739.67 1169.96 739.34 1169.29 739C1169.62 737.68 1169.94 736.36 1170.28 735Z" fill="#528AB5"/>
<path d="M932.089 728C933.074 731 933.074 731 932.335 733.625C931.105 736 931.105 736 928.152 737C929.332 733.917 930.59 730.937 932.089 728Z" fill="#6097C5"/>
<path d="M946.85 717.001C941.66 720.224 941.66 720.224 939.961 721.001C939.311 720.671 938.661 720.341 937.992 720.001C940.867 716.802 942.545 715.543 946.85 717.001Z" fill="#4588B8"/>
<path d="M1018.7 710C1021.57 711.074 1023.41 711.778 1025.59 714C1023.32 714 1021.05 714 1018.7 714C1018.7 712.68 1018.7 711.36 1018.7 710Z" fill="#4684B0"/>
<path d="M1139.77 815C1140.42 815 1141.06 815 1141.73 815C1141.73 818.3 1141.73 821.6 1141.73 825C1140.76 825 1139.79 825 1138.78 825C1139.11 821.7 1139.43 818.4 1139.77 815Z" fill="#E9FDFE"/>
<path d="M872.047 737C872.696 737.66 873.346 738.32 874.015 739C872.716 741.64 871.417 744.28 870.078 747C869.753 747 869.428 747 869.094 747C869.094 745.02 869.094 743.04 869.094 741C869.743 741 870.393 741 871.062 741C871.387 739.68 871.712 738.36 872.047 737Z" fill="#4E89B6"/>
<path d="M1031.5 722C1032.47 722.33 1033.44 722.66 1034.45 723C1035.62 725.562 1035.62 725.562 1036.42 728C1034.47 727.01 1032.52 726.02 1030.51 725C1030.84 724.01 1031.16 723.02 1031.5 722Z" fill="#598FBB"/>
<path d="M1157.48 714C1159.26 714.188 1159.26 714.188 1161.42 715C1163.14 717.562 1163.14 717.562 1164.37 720C1163.07 719.67 1161.77 719.34 1160.43 719C1160.43 718.01 1160.43 717.02 1160.43 716C1159.46 715.67 1158.48 715.34 1157.48 715C1157.48 714.67 1157.48 714.34 1157.48 714Z" fill="#3C7DB0"/>
<path d="M660.433 710C661.082 710 661.732 710 662.401 710C662.188 711.052 662.188 711.052 661.971 712.125C661.402 715.076 660.908 718.033 660.433 721C660.108 721 659.783 721 659.448 721C659.325 713.375 659.325 713.375 660.433 710Z" fill="#3F7CB0"/>
<path d="M700.789 699C701.113 699 701.438 699 701.773 699C701.773 700.65 701.773 702.3 701.773 704C700.149 704.66 698.525 705.32 696.852 706C698.036 703.506 699.267 701.319 700.789 699Z" fill="#C0E0F3"/>
<path d="M670.277 688C671.576 688 672.876 688 674.214 688C673.889 689.32 673.565 690.64 673.23 692C671.931 692.33 670.632 692.66 669.293 693C669.618 691.35 669.943 689.7 670.277 688Z" fill="#4182AE"/>
<path d="M714.566 684C715.865 684 717.164 684 718.503 684C718.503 684.66 718.503 685.32 718.503 686C714.187 689 714.187 689 711.613 689C713.459 685.125 713.459 685.125 714.566 684Z" fill="#3D80B1"/>
</svg>
