<svg width="2000" height="4000" viewBox="0 0 2000 4000" fill="none" xmlns="http://www.w3.org/2000/svg">
<path d="M2000 0V4000H0L1188 0H2000Z" fill="white"/>
<path d="M745.327 1685.39C746.083 1685.38 746.839 1685.36 747.618 1685.35C751.802 1685.38 755.724 1686.13 759.845 1688.31C759.845 1690.02 759.845 1691.74 759.845 1693.5C760.981 1693.4 762.118 1693.29 763.289 1693.18C767.664 1693.14 771.397 1695.54 775.593 1698.7C775.593 1700.41 775.593 1702.13 775.593 1703.89C776.709 1704 777.826 1704.11 778.976 1704.22C784.387 1705.9 788.032 1713.8 792.325 1722.08C793.299 1723.36 793.299 1723.36 794.293 1724.67C794.293 1726.39 794.293 1728.1 794.293 1729.87C794.862 1730.51 795.43 1731.15 796.016 1731.82C798.53 1735.5 800.141 1740.1 802.167 1745.45C802.878 1746.26 803.588 1747.06 804.32 1747.89C806.104 1750.65 806.104 1750.65 806.843 1757.46C806.924 1759.5 807.005 1761.54 807.089 1763.63C805.779 1766.45 805.779 1766.45 804.443 1769.32C800.747 1777.46 797.398 1786.31 794.159 1795.72C793.007 1798.96 793.007 1798.96 791.833 1802.27C791.112 1804.35 790.391 1806.44 789.649 1808.58C787.404 1812.98 787.404 1812.98 784.905 1812.89C782.225 1810.12 780.729 1807.05 778.668 1801.78C775.221 1793.38 771.873 1787.53 767.719 1781.82C767.719 1780.1 767.719 1778.39 767.719 1776.62C765.77 1775.76 763.821 1774.91 761.813 1774.02C761.813 1772.31 761.813 1770.59 761.813 1768.83C750.445 1768.83 739.077 1768.83 727.364 1768.83C727.364 1770.54 727.364 1772.26 727.364 1774.02C726.38 1774.79 726.38 1774.79 725.376 1775.57C711.929 1787.08 701.75 1810.24 694.576 1842.21C686.744 1883.04 686.887 1933.48 691.931 1976.62C692.19 1978.98 692.449 1981.34 692.715 1983.77C693.659 1992.03 693.659 1992.03 694.884 2000C695.858 2001.28 695.858 2001.28 696.852 2002.59C697.34 2005.11 697.827 2007.63 698.329 2010.22C701.35 2024.75 706.848 2043.34 712.908 2048.8C713.456 2048.98 714.004 2049.16 714.569 2049.35C714.569 2051.06 714.569 2052.78 714.569 2054.54C715.245 2055.05 715.921 2055.55 716.618 2056.06C717.505 2056.74 718.392 2057.42 719.306 2058.11C720.185 2058.78 721.064 2059.44 721.97 2060.12C724.411 2062.34 724.411 2062.34 727.364 2067.53C732.299 2070.58 737.21 2070.63 742.251 2070.61C743.075 2070.61 743.899 2070.61 744.748 2070.61C755.626 2070.52 755.626 2070.52 765.877 2062.15C767.719 2059.74 767.719 2059.74 770.671 2059.74C770.671 2058.02 770.671 2056.31 770.671 2054.54C771.686 2053.04 772.701 2051.54 773.747 2050C780.248 2040.93 780.248 2040.93 785.004 2026.78C786.419 2020.78 786.419 2020.78 788.703 2018.45C791.341 2018.18 791.341 2018.18 793.482 2022.4C794.176 2024.44 794.87 2026.47 795.585 2028.57C798.435 2036.63 801.269 2044.29 804.443 2051.46C807.079 2057.43 809.602 2063.51 812.01 2070.13C811.21 2075.16 811.21 2075.16 810.041 2080.52C809.067 2081.37 808.093 2082.23 807.089 2083.11C806.815 2084.65 806.541 2086.18 806.258 2087.76C800.952 2114.53 782.913 2135.2 772.64 2145.45C762.912 2152.71 753.548 2154.45 743.481 2154.22C741.54 2154.26 741.54 2154.26 739.56 2154.31C721.345 2154.17 701.604 2137.27 687.994 2103.89C687.994 2102.18 687.994 2100.46 687.994 2098.7C687.121 2097.61 687.121 2097.61 686.229 2096.51C678.959 2086.46 674.615 2069.79 670.278 2051.95C669.702 2049.58 669.126 2047.21 668.532 2044.77C664.372 2027.12 664.372 2027.12 664.372 2018.18C663.722 2018.18 663.073 2018.18 662.404 2018.18C655.338 1973.5 655.092 1930.81 655.514 1883.11C656.163 1883.11 656.813 1883.11 657.482 1883.11C657.496 1881.04 657.51 1878.96 657.525 1876.82C657.888 1854.73 659.617 1837.86 663.388 1818.18C663.947 1815.23 664.507 1812.28 665.083 1809.24C671.159 1778.65 680.215 1749.93 690.947 1729.87C691.921 1729.87 692.896 1729.87 693.9 1729.87C693.9 1728.15 693.9 1726.44 693.9 1724.67C696.011 1721.58 698.123 1718.49 700.24 1715.42C701.824 1713.07 703.394 1710.64 704.938 1708.11C711.725 1697.23 718.464 1693.5 726.38 1693.5C726.38 1691.79 726.38 1690.08 726.38 1688.31C732.715 1686.15 738.948 1685.43 745.327 1685.39Z" fill="#3A80C1"/>
<path d="M1158.56 1845.48C1162.29 1853.43 1164.99 1861.65 1167.33 1872.73C1167.33 1875.3 1167.33 1877.87 1167.33 1880.52C1167.98 1880.52 1168.63 1880.52 1169.29 1880.52C1173.47 1910.55 1173.75 1938.18 1173.62 1969.87C1173.61 1974.88 1173.6 1979.9 1173.6 1984.91C1173.58 1997.99 1173.55 2011.06 1173.5 2024.14C1173.46 2037.53 1173.44 2050.92 1173.42 2064.31C1173.38 2090.49 1173.31 2116.68 1173.23 2142.86C1163.49 2142.86 1153.74 2142.86 1143.7 2142.86C1143.7 2132.57 1143.7 2122.29 1143.7 2111.69C1138.72 2115.53 1138.72 2115.53 1136.81 2124.68C1136.16 2124.68 1135.51 2124.68 1134.85 2124.68C1134.47 2127.08 1134.47 2127.08 1134.08 2129.54C1132.7 2135.89 1131.8 2137.4 1129.31 2140.43C1128.38 2141.6 1128.38 2141.6 1127.43 2142.79C1126.23 2144.11 1126.23 2144.11 1125 2145.46C1123.25 2147.51 1123.25 2147.51 1121.46 2149.6C1116.51 2154.43 1111.72 2154.53 1106.49 2154.39C1105.53 2154.37 1104.57 2154.36 1103.58 2154.34C1096.64 2153.96 1090.87 2151.42 1084.65 2142.86C1083.57 2141.63 1082.5 2140.4 1081.39 2139.13C1076.21 2131.18 1072.83 2122.77 1069.88 2109.09C1068.91 2107.38 1067.94 2105.67 1066.93 2103.9C1066.93 2100.47 1066.93 2097.04 1066.93 2093.51C1066.28 2093.51 1065.63 2093.51 1064.96 2093.51C1063.25 2077.94 1062.81 2063.51 1062.81 2047.41C1062.81 2045.5 1062.81 2043.6 1062.81 2041.64C1062.85 2031.79 1063.09 2022.57 1063.98 2012.99C1064.63 2012.99 1065.28 2012.99 1065.95 2012.99C1066.02 2011.51 1066.09 2010.04 1066.17 2008.52C1067.62 1986.11 1071.68 1975.21 1078.44 1961.85C1088.86 1943.44 1099.65 1939.74 1111.9 1939.78C1113.19 1939.78 1113.19 1939.78 1114.51 1939.78C1124.19 1940.02 1133.39 1943.9 1142.72 1950.65C1142.52 1944.86 1142.29 1939.07 1142.04 1933.28C1141.92 1930.06 1141.79 1926.83 1141.66 1923.51C1140.58 1912.52 1139.07 1908.56 1135.83 1901.3C1135.28 1899.98 1134.73 1898.65 1134.16 1897.28C1127.03 1881.44 1118.62 1884.1 1109.69 1885.14C1101.21 1887.18 1094.68 1898.9 1088.52 1913.62C1086.62 1916.89 1086.62 1916.89 1084.58 1916.47C1082.13 1913.66 1080.32 1909.37 1078.33 1904.75C1076.59 1900.75 1076.59 1900.75 1073.7 1895.94C1071.05 1891.23 1068.9 1887.17 1066.93 1880.52C1066.84 1872.58 1068.01 1869.87 1070.01 1863.96C1070.94 1861.71 1071.88 1859.46 1072.84 1857.15C1073.36 1855.85 1073.88 1854.55 1074.42 1853.22C1078.97 1842.31 1084.19 1831.17 1090.55 1831.17C1090.55 1829.46 1090.55 1827.74 1090.55 1825.98C1091.91 1824.72 1093.26 1823.48 1094.61 1822.24C1095.74 1821.2 1095.74 1821.2 1096.9 1820.14C1117 1804.49 1141.6 1813.2 1158.56 1845.48Z" fill="#3980C2"/>
<path d="M1389.64 1850.1C1401.97 1877.93 1407.55 1908.86 1409.45 1950.65C1409.45 1967.79 1409.45 1984.94 1409.45 2002.6C1379.24 2002.6 1349.04 2002.6 1317.92 2002.6C1321.11 2026.59 1321.11 2026.59 1325.64 2047.39C1326.77 2051.95 1326.77 2051.95 1327.77 2057.6C1328.6 2062.9 1328.6 2062.9 1330.83 2064.29C1331.44 2064.5 1332.05 2064.72 1332.68 2064.94C1332.68 2066.65 1332.68 2068.36 1332.68 2070.13C1342.94 2079.96 1355.39 2083.79 1365.84 2073.54C1369.76 2068.62 1372.77 2062.18 1375.99 2054.55C1376.64 2054.55 1377.29 2054.55 1377.96 2054.55C1378.32 2051.49 1378.32 2051.49 1378.69 2048.38C1379.92 2041.56 1379.92 2041.56 1381.89 2037.99C1383.86 2036.36 1383.86 2036.36 1385.83 2038.96C1385.83 2040.68 1385.83 2042.39 1385.83 2044.16C1387.78 2045.01 1389.73 2045.87 1391.73 2046.75C1391.73 2048.47 1391.73 2050.18 1391.73 2051.95C1392.44 2052.24 1393.14 2052.53 1393.87 2052.83C1396.84 2054.66 1399.18 2057.49 1401.88 2061.2C1402.75 2062.38 1403.62 2063.57 1404.52 2064.78C1405.17 2065.69 1405.83 2066.6 1406.5 2067.53C1405.11 2082.78 1402.91 2090.25 1398.62 2101.3C1397.77 2104.35 1397.77 2104.35 1396.9 2107.47C1394.33 2115.38 1391.48 2120.68 1388.17 2126.14C1387.25 2127.66 1387.25 2127.66 1386.32 2129.22C1381.45 2137.14 1376.55 2143.65 1371.07 2148.05C1369.36 2149.43 1369.36 2149.43 1367.63 2150.84C1362.02 2154.44 1356.38 2154.2 1350.64 2154.22C1349.56 2154.29 1348.47 2154.35 1347.35 2154.41C1333.4 2154.54 1318.19 2140.36 1308.07 2114.29C1294.54 2077 1287.78 2037.02 1287.9 1985.07C1287.9 1982.12 1287.91 1979.18 1287.91 1976.15C1288.29 1927.19 1295.56 1889.67 1308.63 1855.42C1312.06 1846.99 1315.9 1840.21 1319.88 1833.77C1320.7 1832.36 1321.52 1830.95 1322.36 1829.51C1325.85 1824.46 1328.74 1824.26 1332.68 1823.38C1332.68 1821.66 1332.68 1819.95 1332.68 1818.18C1353.85 1810.3 1372.49 1814.03 1389.64 1850.1Z" fill="#3A81C1"/>
<path d="M985.732 1815.42C986.946 1815.44 986.946 1815.44 988.184 1815.46C990.156 1815.49 992.127 1815.54 994.098 1815.59C994.098 1817.3 994.098 1819.02 994.098 1820.78C995.955 1820.46 995.955 1820.46 997.85 1820.13C1003.68 1820.13 1008.48 1825.16 1013.78 1831.17C1014.53 1832.01 1015.28 1832.85 1016.05 1833.72C1020.41 1839.03 1023.35 1844.97 1026.58 1854.55C1027.17 1856.11 1027.77 1857.68 1028.39 1859.3C1034.26 1875.33 1040.97 1898.9 1041.53 1921.88C1041.47 1923.66 1041.4 1925.44 1041.34 1927.28C1041.99 1927.28 1042.64 1927.28 1043.31 1927.28C1044.88 1952.06 1044.29 1977.48 1044.29 2002.6C1014.41 2002.6 984.531 2002.6 953.743 2002.6C958.605 2044.94 958.605 2044.94 970.233 2072.49C974.308 2077.72 978.32 2078.24 982.798 2078.18C983.803 2078.17 984.809 2078.16 985.845 2078.15C987.403 2078.12 987.403 2078.12 988.992 2078.09C990.578 2078.07 990.578 2078.07 992.196 2078.05C994.799 2078.02 997.401 2077.98 1000 2077.92C1000 2076.21 1000 2074.5 1000 2072.73C1000.57 2072 1001.15 2071.28 1001.73 2070.53C1007.82 2062.29 1012.63 2052.82 1015.75 2036.37C1019.17 2037.21 1021.19 2037.94 1023.88 2043.79C1027.46 2051.18 1031.39 2054.89 1035.61 2058.99C1040.04 2063.61 1040.04 2063.61 1041.52 2069.74C1041.24 2078.54 1039.44 2082.86 1037.28 2089.45C1036.51 2091.86 1035.73 2094.27 1034.94 2096.75C1032.55 2103.71 1030.17 2110.5 1027.56 2116.89C1026.91 2116.89 1026.26 2116.89 1025.59 2116.89C1025.59 2118.6 1025.59 2120.31 1025.59 2122.08C1008.85 2152.64 991.393 2157.9 971.56 2152.13C955.018 2143.4 942.915 2118.61 933.013 2083.77C922.225 2036.02 920.645 1985.85 925.1 1931.73C930.654 1882.3 943.007 1850.64 959.649 1825.98C961.79 1823.6 961.79 1823.6 963.893 1821.76C964.58 1821.13 965.266 1820.51 965.973 1819.87C972.527 1815.51 979.019 1815.24 985.732 1815.42Z" fill="#3980C1"/>
<path d="M1212.6 1737.66C1222.67 1737.66 1232.74 1737.66 1243.11 1737.66C1243.44 1765.95 1243.76 1794.24 1244.1 1823.38C1253.51 1824.24 1262.93 1825.09 1272.64 1825.98C1272.64 1848.26 1272.64 1870.55 1272.64 1893.51C1262.89 1893.51 1253.15 1893.51 1243.11 1893.51C1243.16 1913.11 1243.21 1932.72 1243.29 1952.32C1243.33 1961.45 1243.36 1970.58 1243.38 1979.71C1243.4 1990.21 1243.44 2000.71 1243.5 2011.2C1243.5 2014.45 1243.5 2017.69 1243.5 2021.04C1243.63 2041.53 1244.3 2057.16 1249.86 2072.62C1252.65 2076.2 1255.03 2076.67 1258.12 2077.11C1259.71 2077.37 1259.71 2077.37 1261.33 2077.63C1262.14 2077.73 1262.95 2077.82 1263.78 2077.92C1263.78 2076.21 1263.78 2074.5 1263.78 2072.73C1267.03 2070.16 1270.28 2067.59 1273.62 2064.94C1273.62 2091.51 1273.62 2118.08 1273.62 2145.46C1270.37 2146.31 1267.13 2147.17 1263.78 2148.05C1263.78 2149.77 1263.78 2151.48 1263.78 2153.25C1235.87 2155.25 1235.87 2155.25 1226.17 2134.27C1223.81 2128.37 1221.72 2122.09 1219.71 2115.37C1218.54 2111.32 1218.54 2111.32 1216.54 2109.09C1212.91 2081.6 1212.04 2054.9 1212.21 2025.98C1212.22 2022.19 1212.23 2018.41 1212.23 2014.62C1212.25 2004.82 1212.28 1995.02 1212.33 1985.21C1212.37 1975.15 1212.39 1965.08 1212.41 1955.01C1212.45 1935.38 1212.52 1915.74 1212.6 1896.11C1205.78 1896.11 1198.96 1896.11 1191.93 1896.11C1191.93 1872.96 1191.93 1849.82 1191.93 1825.98C1202.16 1824.69 1202.16 1824.69 1212.6 1823.38C1212.6 1795.09 1212.6 1766.81 1212.6 1737.66Z" fill="#3980C2"/>
<path d="M915.353 1820.78C916.338 1823.38 916.338 1823.38 916.449 1830.82C916.442 1835.7 916.442 1835.7 916.434 1840.68C916.432 1842.4 916.431 1844.13 916.429 1845.91C916.424 1851.44 916.412 1856.97 916.399 1862.5C916.394 1866.24 916.39 1869.98 916.386 1873.73C916.375 1882.92 916.358 1892.11 916.338 1901.3C912.923 1900.11 909.769 1898.98 906.495 1896.1C904.678 1895.89 902.858 1895.83 901.039 1895.85C899.455 1895.86 899.455 1895.86 897.839 1895.88C896.737 1895.9 895.635 1895.92 894.499 1895.94C892.829 1895.96 892.829 1895.96 891.126 1895.98C888.375 1896.01 885.624 1896.05 882.873 1896.1C882.873 1897.82 882.873 1899.53 882.873 1901.3C881.838 1902.83 881.838 1902.83 880.781 1904.38C875.668 1912.89 871.848 1924.85 870.078 1940.26C869.428 1940.26 868.779 1940.26 868.109 1940.26C867.017 1962.79 866.912 1985.3 866.814 2007.98C866.793 2011.96 866.773 2015.94 866.752 2019.92C866.698 2030.31 866.649 2040.7 866.601 2051.1C866.543 2063.61 866.478 2076.13 866.414 2088.64C866.318 2107.58 866.23 2126.52 866.141 2145.45C856.072 2145.45 846.003 2145.45 835.629 2145.45C835.629 2040.03 835.629 1934.6 835.629 1825.97C845.048 1825.97 854.467 1825.97 864.172 1825.97C864.172 1839.69 864.172 1853.4 864.172 1867.53C865.147 1867.53 866.121 1867.53 867.125 1867.53C867.186 1866.14 867.247 1864.75 867.31 1863.31C869.458 1846.74 875.37 1834.67 880.905 1825.97C891.102 1812.8 904.69 1809.33 915.353 1820.78Z" fill="#3A80C1"/>
<path d="M1137.8 2005.21C1137.8 2006.92 1137.8 2008.63 1137.8 2010.4C1140.23 2011.69 1140.23 2011.69 1142.72 2013C1143.5 2034.94 1140.4 2052.05 1135.83 2070.14C1133.68 2073.87 1133.68 2073.87 1130.91 2077.93C1129.92 2079.71 1128.93 2081.48 1127.91 2083.31C1123.41 2090.09 1119.13 2089.77 1114.05 2089.46C1112.75 2089.49 1112.75 2089.49 1111.43 2089.51C1106.6 2089.39 1103.33 2088.7 1099.41 2080.53C1098.83 2079.36 1098.24 2078.19 1097.64 2076.98C1093.88 2067.09 1093.05 2059.3 1092.89 2045.3C1093.15 2031.13 1093.75 2023.29 1097.44 2013C1107.79 1989.97 1125.64 1999.24 1137.8 2005.21Z" fill="#F7FBFD"/>
<path d="M985.669 1882.63C986.408 1882.6 987.147 1882.57 987.908 1882.53C996.548 1882.47 1001.45 1891.89 1007.88 1906.49C1012.2 1918.49 1014.77 1931.33 1014.77 1948.05C994.628 1948.05 974.49 1948.05 953.742 1948.05C955.271 1927.88 959.788 1910.08 965.553 1896.1C972.1 1885.08 977.973 1882.65 985.669 1882.63Z" fill="#F9FDFD"/>
<path d="M1367.13 1893.51C1369.77 1899.35 1369.77 1899.35 1372.05 1906.49C1372.65 1908.08 1373.25 1909.67 1373.87 1911.3C1374.83 1913.91 1374.83 1913.91 1375.8 1916.56C1376.4 1918.16 1376.99 1919.76 1377.6 1921.41C1378.94 1927.27 1378.94 1927.27 1378.94 1945.46C1359.77 1945.46 1340.61 1945.46 1320.87 1945.46C1322.14 1921.97 1325.88 1908.79 1332.86 1894.17C1342.68 1876.31 1357.03 1877.67 1367.13 1893.51Z" fill="#F9FDFE"/>
<path d="M1211.62 1735.07C1222.66 1735.07 1233.7 1735.07 1245.08 1735.07C1245.08 1763.35 1245.08 1791.64 1245.08 1820.78C1254.18 1820.78 1263.27 1820.78 1272.64 1820.78C1272.64 1822.49 1272.64 1824.21 1272.64 1825.98C1268.59 1826.04 1264.55 1826.09 1260.5 1826.12C1259.12 1826.13 1257.74 1826.15 1256.37 1826.17C1254.39 1826.2 1252.41 1826.22 1250.44 1826.23C1249.25 1826.24 1248.06 1826.26 1246.83 1826.27C1244.1 1825.98 1244.1 1825.98 1243.11 1823.38C1243.03 1817.02 1243 1810.73 1243.02 1804.37C1243.02 1802.48 1243.02 1800.58 1243.02 1798.62C1243.03 1792.53 1243.04 1786.45 1243.05 1780.36C1243.06 1776.24 1243.06 1772.12 1243.06 1768.01C1243.07 1757.89 1243.09 1747.78 1243.11 1737.66C1233.04 1737.66 1222.97 1737.66 1212.6 1737.66C1212.6 1765.95 1212.6 1794.24 1212.6 1823.38C1210.29 1826.43 1208.92 1826.27 1206.35 1826.23C1205.22 1826.22 1205.22 1826.22 1204.06 1826.21C1202.63 1826.17 1202.63 1826.17 1201.16 1826.14C1198.11 1826.08 1195.07 1826.03 1191.93 1825.98C1191.93 1849.12 1191.93 1872.26 1191.93 1896.11C1198.75 1896.11 1205.57 1896.11 1212.6 1896.11C1212.6 1950.96 1212.6 2005.82 1212.6 2062.34C1212.28 2062.34 1211.95 2062.34 1211.62 2062.34C1211.62 2008.34 1211.62 1954.34 1211.62 1898.7C1204.8 1898.7 1197.97 1898.7 1190.95 1898.7C1189.56 1891.38 1189.85 1885.27 1189.87 1877.09C1189.87 1873.83 1189.87 1870.56 1189.88 1867.2C1189.88 1863.77 1189.89 1860.35 1189.9 1856.82C1189.91 1853.34 1189.91 1849.86 1189.92 1846.38C1189.93 1837.85 1189.94 1829.31 1189.96 1820.78C1197.11 1820.78 1204.25 1820.78 1211.62 1820.78C1211.62 1792.49 1211.62 1764.21 1211.62 1735.07Z" fill="#B5D5EE"/>
<path d="M842.284 1820.53C843.263 1820.53 843.263 1820.53 844.262 1820.54C846.348 1820.55 848.433 1820.59 850.519 1820.62C851.933 1820.63 853.347 1820.64 854.76 1820.65C858.227 1820.68 861.693 1820.73 865.16 1820.78C867.087 1830.05 867.211 1836.17 867.129 1846.76C867.311 1849.06 867.494 1851.36 867.682 1853.74C868.113 1859.74 868.113 1859.74 867.129 1867.54C866.154 1867.54 865.18 1867.54 864.176 1867.54C864.176 1853.82 864.176 1840.11 864.176 1825.98C854.757 1825.98 845.337 1825.98 835.633 1825.98C835.633 1931.41 835.633 2036.83 835.633 2145.46C834.983 2145.46 834.333 2145.46 833.664 2145.46C833.664 2039.17 833.664 1932.89 833.664 1823.38C836.54 1819.58 839.076 1820.49 842.284 1820.53Z" fill="#B9D7F0"/>
<path d="M1173.23 1916.89C1175.37 1928.19 1175.47 1936.25 1175.42 1948.48C1175.42 1950.61 1175.42 1952.74 1175.42 1954.94C1175.42 1961.96 1175.41 1968.99 1175.39 1976.02C1175.39 1980.9 1175.38 1985.77 1175.38 1990.65C1175.37 2003.48 1175.36 2016.3 1175.33 2029.13C1175.31 2042.22 1175.3 2055.32 1175.29 2068.41C1175.27 2094.09 1175.24 2119.78 1175.2 2145.46C1170.59 2145.52 1165.98 2145.57 1161.38 2145.6C1159.81 2145.61 1158.24 2145.63 1156.67 2145.65C1154.42 2145.69 1152.17 2145.7 1149.92 2145.71C1149.21 2145.73 1148.51 2145.74 1147.78 2145.75C1146.09 2145.75 1144.41 2145.62 1142.72 2145.46C1141.73 2142.86 1141.73 2142.86 1141.64 2136.93C1141.65 2134.54 1141.66 2132.16 1141.67 2129.71C1141.68 2127.32 1141.69 2124.94 1141.7 2122.48C1141.71 2120.63 1141.72 2118.79 1141.73 2116.89C1140.76 2119.46 1139.78 2122.03 1138.78 2124.68C1138.13 2123.82 1137.48 2122.96 1136.81 2122.08C1138.6 2116.89 1138.6 2116.89 1140.75 2111.69C1141.72 2111.69 1142.7 2111.69 1143.7 2111.69C1143.7 2121.98 1143.7 2132.26 1143.7 2142.86C1153.45 2142.86 1163.19 2142.86 1173.23 2142.86C1173.23 2068.29 1173.23 1993.72 1173.23 1916.89Z" fill="#C9E2F4"/>
<path d="M953.742 2007.79C982.974 2007.79 1012.21 2007.79 1042.32 2007.79C1040.36 2012.99 1040.36 2012.99 1037.08 2013.53C1035.65 2013.5 1034.22 2013.45 1032.79 2013.37C1032.01 2013.35 1031.22 2013.33 1030.42 2013.31C1028.72 2013.26 1027.02 2013.21 1025.32 2013.14C1022.63 2013.04 1019.94 2012.97 1017.26 2012.92C1009.61 2012.77 1001.96 2012.57 994.319 2012.29C989.645 2012.13 984.972 2012.02 980.298 2011.96C978.515 2011.92 976.733 2011.86 974.951 2011.77C972.457 2011.65 969.966 2011.62 967.472 2011.6C966.366 2011.51 966.366 2011.51 965.238 2011.43C962.916 2011.32 962.916 2011.32 959.648 2012.99C957.161 2019.14 957.161 2019.14 955.711 2025.97C954.273 2019.1 953.742 2015.86 953.742 2007.79Z" fill="#EAF8FE"/>
<path d="M1243.11 1893.51C1252.85 1893.51 1262.6 1893.51 1272.64 1893.51C1272.64 1895.22 1272.64 1896.94 1272.64 1898.7C1263.54 1898.7 1254.45 1898.7 1245.08 1898.7C1245.08 1950.13 1245.08 2001.56 1245.08 2054.55C1242.82 2045.59 1242.87 2042.34 1242.89 2031.8C1242.89 2028.73 1242.89 2025.67 1242.89 2022.51C1242.9 2019.19 1242.91 2015.88 1242.92 2012.47C1242.92 2009.08 1242.92 2005.69 1242.93 2002.2C1242.93 1993.19 1242.95 1984.19 1242.97 1975.18C1243 1965.99 1243 1956.79 1243.01 1947.6C1243.03 1929.57 1243.07 1911.54 1243.11 1893.51Z" fill="#B3D6F1"/>
<path d="M962.6 1903.9C962.925 1905.61 963.25 1907.33 963.585 1909.09C962.136 1918.8 962.136 1918.8 959.648 1922.08C958.097 1928.9 957.679 1932.13 957.679 1940.26C975.868 1941.12 994.057 1941.98 1012.8 1942.86C1012.31 1933.86 1012.31 1933.86 1011.81 1924.68C1012.46 1925.53 1013.11 1926.39 1013.78 1927.28C1014.27 1937.56 1014.27 1937.56 1014.77 1948.05C994.628 1948.05 974.49 1948.05 953.742 1948.05C954.56 1937.27 954.939 1933.06 957.064 1924.52C957.502 1922.74 957.939 1920.97 958.39 1919.15C959.737 1913.94 961.117 1908.84 962.6 1903.9Z" fill="#A1CEE9"/>
<path d="M1410.43 2007.8C1408.9 2011.86 1408.9 2011.86 1406.5 2015.59C1404.2 2014.79 1401.9 2013.91 1399.61 2012.99C1396.56 2012.66 1393.51 2012.75 1390.46 2012.83C1388.64 2012.85 1386.82 2012.87 1385 2012.9C1384.05 2012.91 1383.1 2012.93 1382.12 2012.94C1361.68 2013.28 1341.29 2012.37 1320.87 2010.39C1320.87 2009.54 1320.87 2008.68 1320.87 2007.8C1332.25 2007.4 1343.64 2007.01 1355.03 2006.65C1360.32 2006.48 1365.6 2006.3 1370.89 2006.11C1375.99 2005.93 1381.09 2005.77 1386.19 2005.61C1388.14 2005.55 1390.09 2005.48 1392.03 2005.41C1394.76 2005.31 1397.48 2005.22 1400.2 2005.14C1401.01 2005.11 1401.82 2005.08 1402.66 2005.04C1408.24 2004.9 1408.24 2004.9 1410.43 2007.8Z" fill="#ECFBFE"/>
<path d="M1170.28 1909.1C1170.6 1911.67 1170.93 1914.24 1171.26 1916.89C1171.91 1916.89 1172.56 1916.89 1173.23 1916.89C1173.23 1991.46 1173.23 2066.03 1173.23 2142.86C1163.49 2142.86 1153.74 2142.86 1143.7 2142.86C1143.7 2133.43 1143.7 2124 1143.7 2114.29C1144.03 2114.29 1144.35 2114.29 1144.69 2114.29C1144.69 2122.86 1144.69 2131.43 1144.69 2140.26C1153.78 2140.26 1162.88 2140.26 1172.25 2140.26C1171.92 2068.26 1171.6 1996.26 1171.26 1922.08C1170.61 1921.23 1169.96 1920.37 1169.29 1919.49C1169.62 1916.06 1169.94 1912.63 1170.28 1909.1Z" fill="#4883B1"/>
<path d="M1111.9 1939.77C1112.76 1939.77 1113.62 1939.77 1114.5 1939.77C1121.45 1939.93 1128.03 1941.79 1134.85 1945.46C1136.23 1946.18 1136.23 1946.18 1137.65 1946.93C1138.7 1947.48 1138.7 1947.48 1139.77 1948.05C1139.77 1948.91 1139.77 1949.77 1139.77 1950.65C1137.33 1950.72 1134.89 1950.77 1132.45 1950.81C1131.75 1950.83 1131.05 1950.86 1130.34 1950.88C1128.56 1950.9 1126.78 1950.79 1125 1950.65C1124.52 1949.36 1124.52 1949.36 1124.02 1948.05C1119.62 1947.39 1115.2 1947.57 1110.79 1947.57C1109.55 1947.53 1108.3 1947.5 1107.01 1947.47C1105.83 1947.46 1104.64 1947.46 1103.41 1947.45C1102.32 1947.44 1101.22 1947.43 1100.09 1947.42C1097.29 1947.34 1097.29 1947.34 1095.47 1953.25C1093.19 1955.05 1090.89 1956.78 1088.59 1958.44C1088.26 1959.3 1087.94 1960.16 1087.6 1961.04C1085.96 1961.15 1084.32 1961.15 1082.68 1961.04C1083.66 1953.25 1083.66 1953.25 1085.85 1950.31C1086.77 1949.46 1087.7 1948.6 1088.65 1947.73C1089.55 1946.86 1090.46 1946 1091.39 1945.11C1098.16 1940.2 1104.92 1939.76 1111.9 1939.77Z" fill="#5791BD"/>
<path d="M776.575 2145.46C773.208 2151.38 771.967 2151.22 768.025 2150.98C766.557 2150.91 766.557 2150.91 765.06 2150.84C764.313 2150.77 763.566 2150.71 762.796 2150.65C762.796 2152.37 762.796 2154.08 762.796 2155.85C757.311 2162.41 752.365 2161.9 746.433 2161.85C745.419 2161.9 744.405 2161.94 743.361 2161.98C736.288 2161.99 730.142 2159.05 723.426 2153.25C723.426 2152.39 723.426 2151.54 723.426 2150.65C724.928 2150.71 724.928 2150.71 726.46 2150.78C730.242 2150.92 734.025 2151.01 737.807 2151.08C739.432 2151.12 741.056 2151.17 742.681 2151.24C752.151 2151.63 760.688 2150.76 769.893 2144.29C772.596 2142.88 774.021 2143.01 776.575 2145.46Z" fill="#EBFBFE"/>
<path d="M1326.77 1909.1C1326.77 1916.89 1326.77 1916.89 1324.8 1940.26C1342.34 1941.12 1359.88 1941.98 1377.95 1942.86C1377.95 1938.58 1377.95 1934.29 1377.95 1929.87C1377.3 1929.87 1376.65 1929.87 1375.99 1929.87C1376.31 1926.45 1376.63 1923.02 1376.97 1919.49C1378.94 1927.28 1378.94 1927.28 1378.94 1945.46C1359.77 1945.46 1340.61 1945.46 1320.87 1945.46C1321.9 1926.4 1322.59 1922.97 1326.77 1909.1Z" fill="#C8E9FB"/>
<path d="M706.693 1800C707.343 1800 707.992 1800 708.662 1800C708.005 1813.2 704.287 1820.42 700.915 1829.53C698.662 1836.88 697.869 1842.98 696.851 1851.95C696.201 1853.67 695.551 1855.38 694.882 1857.15C694.488 1863.18 694.154 1869.24 693.898 1875.33C692.599 1876.19 691.3 1877.04 689.961 1877.93C690.297 1854.43 694.6 1832.5 700.788 1815.59C701.437 1815.59 702.087 1815.59 702.756 1815.59C703.04 1813.98 703.325 1812.37 703.617 1810.72C704.725 1805.2 704.725 1805.2 706.693 1800Z" fill="#D0EBF7"/>
<path d="M892.719 1815.58C895.385 1815.44 898.05 1815.34 900.716 1815.26C901.464 1815.22 902.213 1815.17 902.984 1815.13C907.504 1815.02 911.118 1816.07 915.357 1820.78C916.341 1823.38 916.341 1823.38 916.453 1830.82C916.447 1834.08 916.442 1837.33 916.437 1840.68C916.436 1842.4 916.434 1844.13 916.433 1845.91C916.427 1851.44 916.415 1856.97 916.402 1862.5C916.397 1866.24 916.393 1869.98 916.389 1873.73C916.378 1882.92 916.361 1892.11 916.341 1901.3C912.93 1900.01 912.93 1900.01 909.451 1898.7C909.451 1897.84 909.451 1896.99 909.451 1896.1C911.075 1896.1 912.699 1896.1 914.372 1896.1C913.885 1860.1 913.885 1860.1 913.388 1823.38C906.567 1821.66 899.746 1819.95 892.719 1818.18C892.719 1817.32 892.719 1816.47 892.719 1815.58Z" fill="#689AC5"/>
<path d="M743.974 1766.08C744.933 1766.09 745.892 1766.1 746.881 1766.11C749.234 1766.14 751.587 1766.19 753.94 1766.24C753.94 1767.1 753.94 1767.95 753.94 1768.84C753.13 1768.96 752.321 1769.09 751.487 1769.22C745.444 1770.29 739.595 1771.77 733.682 1775.26C732.013 1776.22 730.332 1777.04 728.645 1777.76C723.555 1779.97 721.008 1781.7 717.522 1792.21C714.352 1795.63 712.09 1797.41 708.664 1797.41C714.242 1785.31 719.832 1774.03 727.365 1774.03C727.365 1772.32 727.365 1770.6 727.365 1768.84C732.911 1765.71 738.335 1765.95 743.974 1766.08Z" fill="#B0D5EB"/>
<path d="M1308.07 1857.14C1308.4 1858.86 1308.72 1860.57 1309.06 1862.34C1307.7 1869.31 1306.16 1875.16 1304.26 1881.17C1301.46 1890.72 1299.39 1901.06 1297.25 1911.69C1296.6 1911.69 1295.95 1911.69 1295.28 1911.69C1295.13 1913.73 1294.99 1915.76 1294.85 1917.86C1294.29 1924.68 1294.29 1924.68 1293.31 1929.87C1292.66 1929.87 1292.01 1929.87 1291.34 1929.87C1293.46 1899.65 1300.17 1878.91 1308.07 1857.14Z" fill="#5995C1"/>
<path d="M1012.8 2145.46C1010.93 2152.17 1009.81 2153.27 1006.66 2155.06C1005.38 2155.43 1004.09 2155.79 1002.77 2156.17C1002.08 2156.37 1001.39 2156.57 1000.68 2156.77C998.486 2157.38 996.292 2157.92 994.095 2158.45C993.369 2158.63 992.644 2158.81 991.896 2159C978.329 2162.28 978.329 2162.28 973.426 2155.85C973.426 2154.99 973.426 2154.13 973.426 2153.25C974.13 2153.2 974.834 2153.15 975.56 2153.1C978.786 2152.85 982.011 2152.56 985.237 2152.28C986.344 2152.2 987.452 2152.12 988.593 2152.03C996.839 2151.27 1004.63 2144.56 1012.8 2145.46Z" fill="#D5ECF9"/>
<path d="M759.844 1688.32C766.746 1687.44 772.033 1690.31 778.545 1696.11C779.895 1697.16 781.249 1698.19 782.605 1699.19C783.538 1699.89 784.472 1700.59 785.434 1701.3C785.434 1703.02 785.434 1704.73 785.434 1706.5C786.409 1707.36 787.383 1708.21 788.387 1709.1C788.712 1710.81 789.037 1712.52 789.371 1714.29C790.346 1714.85 790.346 1714.85 791.34 1715.43C791.989 1715.91 792.639 1716.39 793.308 1716.89C793.796 1720.75 793.796 1720.75 794.293 1724.68C790.999 1722.25 788.686 1720.15 786.049 1714.29C782.638 1707.43 779.774 1706.15 775.592 1703.9C775.592 1702.19 775.592 1700.47 775.592 1698.71C774.455 1698.33 773.318 1697.96 772.147 1697.57C768.046 1696.22 763.945 1694.86 759.844 1693.51C759.844 1691.8 759.844 1690.08 759.844 1688.32Z" fill="#D2ECF7"/>
<path d="M1034.45 2059.74C1037.86 2063.6 1037.86 2063.6 1041.34 2067.53C1040.11 2087.83 1032.55 2105.06 1026.57 2116.89C1026.25 2114.31 1025.92 2111.74 1025.59 2109.09C1029.53 2098.7 1029.53 2098.7 1031.19 2094.64C1032.73 2090.7 1032.73 2090.7 1033.46 2083.12C1034.11 2082.26 1034.76 2081.4 1035.43 2080.52C1036.08 2072.65 1036.08 2072.65 1036.42 2064.94C1035.77 2064.94 1035.12 2064.94 1034.45 2064.94C1034.45 2063.22 1034.45 2061.51 1034.45 2059.74Z" fill="#4584B4"/>
<path d="M835.629 1820.78C845.373 1820.78 855.117 1820.78 865.156 1820.78C867.176 1831.44 867.213 1835.33 867.125 1846.76C867.308 1849.06 867.49 1851.36 867.679 1853.74C868.109 1859.74 868.109 1859.74 867.125 1867.54C866.151 1867.54 865.176 1867.54 864.172 1867.54C864.172 1852.97 864.172 1838.39 864.172 1823.38C854.753 1823.38 845.334 1823.38 835.629 1823.38C835.629 1822.52 835.629 1821.67 835.629 1820.78Z" fill="#D8F1FD"/>
<path d="M733.245 1760.79C734.257 1760.8 734.257 1760.8 735.289 1760.8C737.445 1760.82 739.601 1760.85 741.758 1760.88C743.219 1760.9 744.68 1760.91 746.141 1760.92C749.724 1760.95 753.307 1760.99 756.89 1761.05C757.378 1763.62 757.378 1763.62 757.875 1766.24C756.826 1766.34 756.826 1766.34 755.757 1766.44C752.546 1766.74 749.336 1767.06 746.125 1767.38C744.476 1767.53 744.476 1767.53 742.794 1767.69C736.619 1768.31 730.541 1769.39 724.41 1771.44C724.41 1768.86 724.41 1766.29 724.41 1763.64C727.337 1759.78 729.984 1760.76 733.245 1760.79Z" fill="#3A7BB4"/>
<path d="M1104.33 1880.52C1108.31 1880.45 1112.29 1880.4 1116.27 1880.36C1117.95 1880.33 1117.95 1880.33 1119.67 1880.29C1120.76 1880.28 1121.85 1880.28 1122.98 1880.27C1123.98 1880.25 1124.98 1880.24 1126.01 1880.23C1129.03 1880.53 1131.88 1881.64 1134.84 1883.12C1135.33 1886.98 1135.33 1886.98 1135.83 1890.91C1136.66 1892.09 1137.49 1893.27 1138.35 1894.48C1139.14 1895.88 1139.93 1897.27 1140.75 1898.7C1141.06 1905.68 1141.06 1905.68 1140.75 1911.69C1140.12 1910.18 1140.12 1910.18 1139.48 1908.65C1138.91 1907.29 1138.33 1905.94 1137.73 1904.55C1137.18 1903.22 1136.62 1901.9 1136.04 1900.53C1129.52 1887.3 1125.26 1884.13 1117.13 1884.74C1116.28 1884.75 1115.43 1884.75 1114.55 1884.75C1109.48 1884.94 1105.2 1886.61 1100.39 1890.91C1100.72 1889.2 1101.04 1887.48 1101.38 1885.72C1102.35 1885.72 1103.33 1885.72 1104.33 1885.72C1104.33 1884 1104.33 1882.29 1104.33 1880.52Z" fill="#5D94C1"/>
<path d="M1271.66 2132.47C1273.62 2137.67 1273.62 2137.67 1273.62 2145.46C1263.87 2152.32 1254.11 2151.15 1244.1 2150.65C1244.1 2148.94 1244.1 2147.22 1244.1 2145.46C1242.15 2145.46 1240.2 2145.46 1238.19 2145.46C1238.19 2144.6 1238.19 2143.74 1238.19 2142.86C1243.91 2142.59 1249.48 2142.87 1255.17 2144.48C1261.06 2145.89 1265.09 2144.89 1270.12 2136.04C1270.88 2134.27 1270.88 2134.27 1271.66 2132.47Z" fill="#397BB2"/>
<path d="M980.316 1818.18C979.178 1818.61 979.178 1818.61 978.017 1819.05C977.03 1819.46 976.043 1819.87 975.026 1820.29C974.044 1820.69 973.062 1821.08 972.05 1821.48C969.166 1822.83 969.166 1822.83 967.521 1831.17C965.53 1833.45 965.53 1833.45 963.215 1835.23C959.127 1838.42 955.814 1841.29 952.757 1849.35C952.757 1847.64 952.757 1845.92 952.757 1844.16C951.458 1845.01 950.159 1845.87 948.82 1846.76C955.911 1825.8 969.7 1810.02 980.316 1818.18Z" fill="#6499C3"/>
<path d="M882.873 1896.11C884.172 1896.96 885.471 1897.82 886.81 1898.7C886.276 1899.92 885.742 1901.15 885.191 1902.41C884.487 1904.02 883.783 1905.64 883.058 1907.31C882.361 1908.9 881.664 1910.5 880.947 1912.15C878.952 1916.68 878.952 1916.68 877.387 1921.38C875.983 1924.68 875.983 1924.68 873.031 1924.68C872.923 1926.33 872.815 1927.99 872.704 1929.7C872.548 1931.85 872.392 1933.99 872.231 1936.2C872.082 1938.34 871.934 1940.48 871.781 1942.69C871.544 1944.46 871.306 1946.23 871.062 1948.05C870.088 1948.91 869.113 1949.77 868.109 1950.65C867.784 1953.22 867.46 1955.79 867.125 1958.44C867.45 1952.44 867.775 1946.44 868.109 1940.26C868.759 1940.26 869.408 1940.26 870.078 1940.26C870.17 1938.34 870.263 1936.42 870.358 1934.45C871.165 1926.22 872.269 1922.57 874.445 1916.4C875.053 1914.65 875.661 1912.9 876.287 1911.09C877.483 1907.79 878.696 1904.53 879.92 1901.3C880.895 1901.3 881.869 1901.3 882.873 1901.3C882.873 1899.59 882.873 1897.87 882.873 1896.11Z" fill="#C7E1F3"/>
<path d="M1191.93 1828.57C1198.75 1828.57 1205.57 1828.57 1212.6 1828.57C1211.95 1832 1211.3 1835.43 1210.63 1838.96C1210.63 1837.25 1210.63 1835.54 1210.63 1833.77C1202.35 1835.05 1202.35 1835.05 1193.9 1836.37C1193.9 1855.22 1193.9 1874.08 1193.9 1893.51C1193.25 1893.51 1192.6 1893.51 1191.93 1893.51C1191.93 1872.08 1191.93 1850.65 1191.93 1828.57Z" fill="#3F7DB8"/>
<path d="M688.979 1880.52C689.304 1880.52 689.629 1880.52 689.964 1880.52C689.978 1882.7 689.992 1884.87 690.007 1887.11C690.068 1895.26 690.141 1903.41 690.222 1911.56C690.27 1916.79 690.305 1922.02 690.338 1927.25C690.531 1945.64 691.158 1959.76 693.901 1976.63C693.576 1979.2 693.251 1981.77 692.916 1984.42C685.897 1960 687.237 1920.04 687.995 1890.91C688.291 1887.43 688.61 1883.96 688.979 1880.52Z" fill="#C2E5F6"/>
<path d="M1143.7 2111.69C1143.7 2121.98 1143.7 2132.26 1143.7 2142.86C1153.45 2142.86 1163.19 2142.86 1173.23 2142.86C1173.23 2143.72 1173.23 2144.57 1173.23 2145.46C1168.9 2145.52 1164.58 2145.57 1160.25 2145.6C1158.77 2145.61 1157.3 2145.63 1155.83 2145.65C1153.72 2145.68 1151.6 2145.7 1149.49 2145.71C1147.58 2145.73 1147.58 2145.73 1145.63 2145.75C1142.72 2145.46 1142.72 2145.46 1141.73 2142.86C1141.66 2138.48 1141.65 2134.09 1141.67 2129.71C1141.68 2127.32 1141.69 2124.94 1141.7 2122.48C1141.71 2120.63 1141.72 2118.79 1141.73 2116.89C1140.76 2119.46 1139.78 2122.03 1138.78 2124.68C1138.13 2123.82 1137.48 2122.96 1136.81 2122.08C1140.38 2111.69 1140.38 2111.69 1143.7 2111.69Z" fill="#9BC6E5"/>
<path d="M1111.22 1997.41C1122.24 1996.76 1132.8 1998.26 1143.7 2002.6C1143.7 2005.17 1143.7 2007.74 1143.7 2010.39C1144.35 2011.25 1145 2012.11 1145.67 2012.99C1145.02 2012.99 1144.37 2012.99 1143.7 2012.99C1143.7 2019.85 1143.7 2026.7 1143.7 2033.77C1143.38 2033.77 1143.05 2033.77 1142.72 2033.77C1142.72 2026.91 1142.72 2020.05 1142.72 2012.99C1140.28 2011.7 1140.28 2011.7 1137.8 2010.39C1137.8 2008.68 1137.8 2006.96 1137.8 2005.2C1129.03 2003.48 1120.26 2001.77 1111.22 2000C1111.22 1999.15 1111.22 1998.29 1111.22 1997.41Z" fill="#5F98C5"/>
<path d="M1065.94 2000C1066.27 2001.72 1066.59 2003.43 1066.93 2005.2C1066.6 2007.77 1066.28 2010.34 1065.94 2012.99C1065.29 2012.99 1064.65 2012.99 1063.98 2012.99C1063.98 2036.99 1063.98 2060.99 1063.98 2085.72C1063.33 2085.72 1062.68 2085.72 1062.01 2085.72C1059.04 2062.26 1060.13 2030.03 1063.98 2007.8C1064.63 2005.22 1065.28 2002.65 1065.94 2000Z" fill="#C3E2F4"/>
<path d="M1118.11 1994.48C1119.15 1994.5 1120.2 1994.53 1121.27 1994.55C1123.83 1994.61 1126.38 1994.7 1128.94 1994.8C1129.42 1997.38 1129.42 1997.38 1129.92 2000C1123.75 1999.14 1117.58 1998.28 1111.22 1997.4C1111.22 1999.12 1111.22 2000.83 1111.22 2002.6C1110.22 2003.07 1110.22 2003.07 1109.21 2003.55C1107.89 2004.2 1107.89 2004.2 1106.55 2004.87C1105.68 2005.29 1104.81 2005.71 1103.92 2006.15C1101.51 2007.71 1099.6 2009.82 1097.44 2012.99C1097.77 2008.7 1098.09 2004.41 1098.43 2000C1105.08 1994.63 1111.18 1994.18 1118.11 1994.48Z" fill="#427FB4"/>
<path d="M1406.5 2080.52C1405.19 2095.88 1402.07 2106.69 1397.64 2116.89C1395.25 2119.86 1393.38 2120.95 1390.75 2122.08C1391.4 2119.51 1392.05 2116.94 1392.72 2114.29C1393.37 2114.29 1394.02 2114.29 1394.69 2114.29C1394.91 2112.9 1395.13 2111.5 1395.36 2110.07C1397.46 2100.08 1401.71 2080.52 1406.5 2080.52Z" fill="#D7EEF9"/>
<path d="M886.812 1893.51C890.032 1893.43 893.251 1893.39 896.47 1893.35C897.384 1893.33 898.299 1893.3 899.24 1893.28C900.119 1893.27 900.998 1893.26 901.903 1893.26C903.117 1893.24 903.117 1893.24 904.355 1893.21C906.497 1893.51 906.497 1893.51 909.45 1896.11C909.45 1897.82 909.45 1899.54 909.45 1901.3C901.33 1901.3 893.21 1901.3 884.844 1901.3C885.493 1900.44 886.143 1899.59 886.812 1898.7C886.812 1896.99 886.812 1895.28 886.812 1893.51Z" fill="#D4EEFA"/>
<path d="M753.938 1768.83C756.536 1768.83 759.134 1768.83 761.812 1768.83C761.812 1770.55 761.812 1772.26 761.812 1774.03C764.735 1775.31 764.735 1775.31 767.717 1776.62C767.717 1778.34 767.717 1780.05 767.717 1781.82C768.428 1782.52 769.138 1783.21 769.87 1783.93C772.615 1786.99 775.041 1790.63 777.56 1794.81C776.91 1796.52 776.26 1798.23 775.591 1800C775.591 1798.29 775.591 1796.57 775.591 1794.81C773.642 1794.81 771.693 1794.81 769.686 1794.81C769.686 1792.23 769.686 1789.66 769.686 1787.01C768.711 1787.87 767.737 1788.73 766.733 1789.61C766.408 1787.04 766.083 1784.47 765.749 1781.82C762.825 1780.53 762.825 1780.53 759.843 1779.22C759.843 1776.65 759.843 1774.08 759.843 1771.43C757.894 1771.43 755.945 1771.43 753.938 1771.43C753.938 1770.57 753.938 1769.72 753.938 1768.83Z" fill="#DBF1FC"/>
<path d="M1099.41 2010.39C1099.74 2012.1 1100.06 2013.82 1100.4 2015.58C1099.42 2020.66 1099.42 2020.66 1098 2026.62C1094.81 2041.15 1095.02 2051.42 1096.46 2067.53C1097.11 2067.53 1097.76 2067.53 1098.43 2067.53C1098.1 2070.1 1097.78 2072.67 1097.44 2075.32C1092.92 2062.6 1092.93 2053.51 1093.11 2036.66C1093.64 2025.77 1094.61 2020.9 1097.44 2012.99C1098.09 2012.13 1098.74 2011.27 1099.41 2010.39Z" fill="#AFD3EC"/>
<path d="M801.182 1774.03C801.506 1775.74 801.831 1777.46 802.166 1779.22C798.907 1793.11 794.633 1810.64 788.386 1815.59C786.172 1814.61 786.172 1814.61 784.449 1812.99C785.166 1811.95 785.883 1810.92 786.621 1809.85C789.52 1804.94 791.618 1799.6 793.984 1793.02C795.362 1789.19 796.769 1785.43 798.229 1781.82C798.878 1781.82 799.528 1781.82 800.197 1781.82C800.522 1779.25 800.847 1776.68 801.182 1774.03Z" fill="#CCE0EF"/>
<path d="M723.426 2150.65C733.17 2151.51 742.914 2152.37 752.953 2153.25C752.953 2154.11 752.953 2154.96 752.953 2155.85C732.745 2163.53 732.745 2163.53 723.426 2153.25C723.426 2152.39 723.426 2151.54 723.426 2150.65Z" fill="#D5ECF8"/>
<path d="M1272.64 2064.94C1272.96 2068.37 1273.29 2071.8 1273.62 2075.33C1270.51 2080.81 1269.71 2081.19 1266.14 2081.21C1264.84 2081.22 1264.84 2081.22 1263.51 2081.23C1262.6 2081.21 1261.7 2081.19 1260.77 2081.17C1259.86 2081.19 1258.95 2081.21 1258.01 2081.23C1256.71 2081.22 1256.71 2081.22 1255.38 2081.21C1254.58 2081.21 1253.79 2081.2 1252.97 2081.2C1250.98 2080.52 1250.98 2080.52 1249.02 2075.33C1253.89 2076.19 1258.76 2077.04 1263.78 2077.93C1263.78 2076.21 1263.78 2074.5 1263.78 2072.73C1266.7 2070.16 1269.63 2067.59 1272.64 2064.94Z" fill="#3E7EB4"/>
<path d="M1213.58 2070.13C1214.56 2071.42 1214.56 2071.42 1215.55 2072.73C1216.11 2080.68 1216.43 2088.63 1216.77 2096.66C1217.22 2104.16 1217.22 2104.16 1219.38 2107.1C1220.07 2107.75 1220.75 2108.41 1221.46 2109.09C1224.22 2115.26 1224.22 2115.26 1226.38 2122.08C1226.02 2127.7 1226.02 2127.7 1225.39 2132.47C1224.92 2131 1224.44 2129.53 1223.96 2128.02C1223.33 2126.11 1222.71 2124.21 1222.07 2122.24C1221.45 2120.34 1220.84 2118.45 1220.2 2116.49C1218.62 2111.47 1218.62 2111.47 1216.53 2109.09C1215.7 2102.3 1215.7 2102.3 1214.94 2093.83C1214.68 2091.06 1214.42 2088.28 1214.16 2085.41C1213.58 2077.93 1213.58 2077.93 1213.58 2070.13Z" fill="#5D96BE"/>
<path d="M687.006 1903.9C687.331 1903.9 687.656 1903.9 687.99 1903.9C688.045 1905.46 688.099 1907.01 688.156 1908.62C688.406 1915.76 688.66 1922.9 688.913 1930.03C688.999 1932.48 689.084 1934.93 689.173 1937.46C689.64 1950.58 690.183 1963.6 690.943 1976.63C689.025 1974.61 689.025 1974.61 687.006 1971.43C685.107 1949.46 686.376 1926.19 687.006 1903.9Z" fill="#4F8EBA"/>
<path d="M1122.05 2145.46C1122.7 2146.31 1123.35 2147.17 1124.02 2148.05C1123.04 2148.91 1122.07 2149.77 1121.06 2150.65C1121.06 2152.37 1121.06 2154.08 1121.06 2155.85C1119.51 2156.41 1119.51 2156.41 1117.93 2156.98C1114.39 2158.2 1114.39 2158.2 1111.81 2159.99C1108.92 2161.18 1106.86 2160.31 1104.02 2158.61C1103.15 2158.1 1102.29 2157.6 1101.39 2157.07C1100.41 2156.47 1100.41 2156.47 1099.41 2155.85C1099.41 2154.99 1099.41 2154.13 1099.41 2153.25C1100.63 2153.12 1101.85 2152.99 1103.11 2152.86C1104.73 2152.67 1106.34 2152.47 1107.96 2152.28C1108.76 2152.19 1109.57 2152.11 1110.4 2152.03C1114.74 2151.48 1118.03 2150.12 1122.05 2145.46Z" fill="#D2E7F7"/>
<path d="M1116.82 1882.31C1117.69 1882.23 1118.56 1882.16 1119.46 1882.08C1125.45 1881.93 1128.97 1884.2 1133.86 1893.51C1134.35 1896.08 1134.35 1896.08 1134.84 1898.71C1132.44 1897.73 1132.44 1897.73 1129.92 1896.11C1129.6 1894.39 1129.27 1892.68 1128.94 1890.91C1124.57 1888.18 1120.31 1887.97 1115.84 1887.99C1114.62 1887.98 1113.41 1887.98 1112.16 1887.97C1109.36 1887.44 1109.36 1887.44 1108.27 1890.91C1106.3 1891.02 1104.33 1891.02 1102.36 1890.91C1107.38 1882.08 1110.9 1882.48 1116.82 1882.31Z" fill="#C8E7F7"/>
<path d="M807.088 2083.12C808.388 2083.98 809.687 2084.84 811.026 2085.72C804.374 2107.07 804.374 2107.07 801.183 2111.69C798.476 2112.18 798.476 2112.18 796.262 2111.69C798.712 2105.04 801.136 2098.8 803.89 2093.02C806.178 2088.83 806.178 2088.83 807.088 2083.12Z" fill="#CFE7F5"/>
<path d="M669.294 1792.21C669.619 1793.93 669.944 1795.64 670.279 1797.41C669.954 1799.98 669.629 1802.55 669.294 1805.2C668.645 1805.2 667.995 1805.2 667.326 1805.2C667.001 1811.2 666.676 1817.2 666.342 1823.38C665.367 1823.38 664.393 1823.38 663.389 1823.38C663.064 1830.24 662.739 1837.09 662.405 1844.16C661.755 1844.16 661.105 1844.16 660.436 1844.16C660.111 1849.3 659.786 1854.44 659.452 1859.74C657.639 1847.2 659.941 1838.1 661.866 1826.48C664.053 1814.57 666.58 1803.34 669.294 1792.21Z" fill="#75A3CB"/>
<path d="M1290.35 2033.77C1290.68 2033.77 1291 2033.77 1291.34 2033.77C1291.52 2036.56 1291.7 2039.34 1291.89 2042.21C1293.15 2055.93 1295.94 2067.02 1298.76 2078.87C1300.2 2085.72 1300.2 2085.72 1300.2 2093.51C1295.3 2082.06 1290.86 2068.12 1290.05 2050.44C1290.05 2044.88 1290.19 2039.32 1290.35 2033.77Z" fill="#C6E2F4"/>
<path d="M1209.65 1735.07C1210.3 1735.07 1210.95 1735.07 1211.62 1735.07C1211.62 1763.35 1211.62 1791.64 1211.62 1820.78C1210.64 1819.92 1209.67 1819.07 1208.66 1818.18C1208.99 1817.33 1209.31 1816.47 1209.65 1815.59C1209.75 1810.7 1209.78 1805.81 1209.78 1800.92C1209.78 1797.93 1209.78 1794.94 1209.78 1791.86C1209.78 1788.71 1209.78 1785.55 1209.77 1782.31C1209.78 1779.18 1209.78 1776.06 1209.78 1772.85C1209.78 1769.84 1209.78 1766.84 1209.78 1763.75C1209.78 1760.99 1209.78 1758.23 1209.78 1755.39C1209.66 1749.01 1209.26 1743.8 1208.66 1737.66C1208.99 1736.81 1209.31 1735.95 1209.65 1735.07Z" fill="#EAF8FD"/>
<path d="M989.176 1883.12C997.627 1883.12 1001.75 1891.69 1007.88 1906.5C1004.92 1909.1 1004.92 1909.1 1001.97 1906.5C1001.32 1903.93 1000.67 1901.35 1000 1898.71C999.353 1897.85 998.703 1896.99 998.034 1896.11C998.034 1894.39 998.034 1892.68 998.034 1890.91C997.121 1891.07 996.207 1891.23 995.266 1891.4C992.129 1890.91 992.129 1890.91 990.456 1886.99C990.034 1885.71 989.611 1884.44 989.176 1883.12Z" fill="#CEECFB"/>
<path d="M876.968 1833.77C877.617 1834.63 878.267 1835.48 878.936 1836.37C877.909 1840.67 876.858 1844.94 875.799 1849.19C875.216 1851.57 874.634 1853.95 874.034 1856.41C871.744 1863.24 870.509 1864.21 867.125 1864.94C869.339 1851.79 872.458 1841.84 876.968 1833.77Z" fill="#5792BD"/>
<path d="M733.269 1766.23C740.09 1766.23 746.911 1766.23 753.938 1766.23C753.938 1767.09 753.938 1767.95 753.938 1768.83C753.129 1768.96 752.319 1769.08 751.485 1769.22C745.276 1770.31 739.345 1771.96 733.292 1775.83C731.3 1776.62 731.3 1776.62 728.348 1774.02C729.972 1773.17 731.596 1772.31 733.269 1771.43C733.269 1769.71 733.269 1768 733.269 1766.23Z" fill="#BDDDF5"/>
<path d="M679.136 1758.45C679.461 1758.45 679.785 1758.45 680.12 1758.45C680.479 1772.67 680.479 1772.67 678.828 1778.9C677.167 1781.82 677.167 1781.82 674.214 1781.82C674.214 1783.54 674.214 1785.25 674.214 1787.02C673.24 1787.02 672.266 1787.02 671.262 1787.02C672.598 1779.31 674.14 1773.27 676.244 1766.89C676.763 1765.29 677.282 1763.7 677.817 1762.06C678.252 1760.87 678.687 1759.67 679.136 1758.45Z" fill="#5392B9"/>
<path d="M792.323 1787.01C792.973 1787.01 793.622 1787.01 794.291 1787.01C793.466 1798.92 791.144 1806.16 787.402 1812.99C784.572 1812.66 784.572 1812.66 782.48 1810.39C782.48 1808.68 782.48 1806.96 782.48 1805.2C783.232 1804.5 783.983 1803.8 784.757 1803.09C787.308 1800.11 788.473 1797.41 790.354 1792.21C791.004 1792.21 791.654 1792.21 792.323 1792.21C792.323 1790.49 792.323 1788.78 792.323 1787.01Z" fill="#4988B2"/>
<path d="M690.945 1976.63C691.92 1977.91 691.92 1977.91 692.914 1979.22C693.538 1984.53 693.916 1989.85 694.329 1995.3C694.511 1996.85 694.694 1998.4 694.882 2000C695.532 2000.86 696.182 2001.72 696.851 2002.6C697.904 2007.4 697.904 2007.4 698.942 2013.15C699.29 2015.06 699.638 2016.96 699.996 2018.93C700.257 2020.4 700.519 2021.87 700.788 2023.38C699.813 2023.38 698.839 2023.38 697.835 2023.38C697.835 2020.81 697.835 2018.24 697.835 2015.59C697.185 2015.59 696.536 2015.59 695.867 2015.59C694.864 2011.29 693.88 2006.96 692.914 2002.6C692.264 2001.74 691.615 2000.89 690.945 2000C690.945 1992.29 690.945 1984.58 690.945 1976.63Z" fill="#5992C2"/>
<path d="M1294.29 1896.11C1294.94 1896.11 1295.59 1896.11 1296.26 1896.11C1295.98 1897.88 1295.7 1899.66 1295.41 1901.49C1294.18 1909.83 1293.18 1918.23 1292.2 1926.79C1291.85 1929.8 1291.5 1932.82 1291.15 1935.93C1290.88 1938.22 1290.62 1940.5 1290.35 1942.86C1290.03 1942.86 1289.7 1942.86 1289.37 1942.86C1287.66 1926.9 1289.15 1918.37 1292.1 1904C1293.31 1898.7 1293.31 1898.7 1294.29 1896.11Z" fill="#D4EFFB"/>
<path d="M969.488 1880.52C976.959 1880.52 984.429 1880.52 992.126 1880.52C992.126 1881.38 992.126 1882.24 992.126 1883.12C990.681 1883.27 990.681 1883.27 989.208 1883.42C981.842 1884.39 975.407 1886.16 968.504 1893.51C968.829 1889.22 969.154 1884.94 969.488 1880.52Z" fill="#558DBB"/>
<path d="M1390.75 2122.08C1390.75 2123.8 1390.75 2125.51 1390.75 2127.28C1389.77 2127.28 1388.8 2127.28 1387.8 2127.28C1387.8 2130.71 1387.8 2134.13 1387.8 2137.67C1386.24 2139.05 1384.68 2140.4 1383.12 2141.72C1382.25 2142.48 1381.38 2143.23 1380.49 2144.01C1377.88 2145.5 1376.51 2145.18 1374.02 2142.86C1374.83 2141.8 1375.65 2140.73 1376.5 2139.63C1377.57 2138.24 1378.63 2136.84 1379.74 2135.39C1380.8 2134.01 1381.86 2132.62 1382.95 2131.19C1389.64 2122.08 1389.64 2122.08 1390.75 2122.08Z" fill="#C1E0F1"/>
<path d="M1066.93 1984.42C1067.58 1984.42 1068.23 1984.42 1068.9 1984.42C1067.29 1998.83 1067.29 1998.83 1065.46 2004.87C1063.26 2013.07 1062.81 2021.4 1062.01 2031.17C1061.69 2031.17 1061.36 2031.17 1061.03 2031.17C1060.22 2012.06 1062.42 1999.47 1066.93 1984.42Z" fill="#E7F9FE"/>
<path d="M981.299 1883.12C981.299 1884.84 981.299 1886.55 981.299 1888.32C975.393 1893.51 969.488 1898.71 963.582 1903.9C968.512 1889.39 974.021 1883.12 981.299 1883.12Z" fill="#BFDEF0"/>
<path d="M782.052 2127.11C783.168 2127.17 784.285 2127.22 785.435 2127.28C781.076 2137.28 775.397 2144.86 769.626 2146.11C768.996 2145.89 768.367 2145.68 767.719 2145.46C768.348 2144.71 768.977 2143.96 769.626 2143.18C771.805 2140.71 771.805 2140.71 772.64 2135.07C774.266 2133.24 775.907 2131.51 777.561 2129.87C778.546 2127.28 778.546 2127.28 782.052 2127.11Z" fill="#538EBD"/>
<path d="M1034.45 2059.74C1037.86 2063.6 1037.86 2063.6 1041.34 2067.53C1040.81 2077.39 1039.17 2081.75 1036.42 2088.31C1036.42 2080.6 1036.42 2072.89 1036.42 2064.94C1035.77 2064.94 1035.12 2064.94 1034.45 2064.94C1034.45 2063.22 1034.45 2061.51 1034.45 2059.74Z" fill="#548FB6"/>
<path d="M706.695 2132.47C710.593 2133.33 714.491 2134.18 718.506 2135.07C718.506 2136.78 718.506 2138.5 718.506 2140.26C720.13 2140.26 721.754 2140.26 723.428 2140.26C723.103 2141.98 722.778 2143.69 722.443 2145.46C716.535 2147.1 711.977 2141.24 706.695 2135.07C706.695 2134.21 706.695 2133.35 706.695 2132.47Z" fill="#5A95C5"/>
<path d="M1019.69 2119.48C1020.99 2119.48 1022.28 2119.48 1023.62 2119.48C1023.62 2121.2 1023.62 2122.91 1023.62 2124.68C1021.57 2128.59 1021.57 2128.59 1018.89 2132.79C1018.01 2134.19 1017.13 2135.59 1016.22 2137.04C1013.78 2140.26 1013.78 2140.26 1010.83 2140.26C1010.83 2138.55 1010.83 2136.83 1010.83 2135.07C1013.38 2129.05 1015.43 2126.76 1018.7 2124.68C1019.03 2122.96 1019.35 2121.25 1019.69 2119.48Z" fill="#4684B6"/>
<path d="M716.535 2054.54C722.382 2057.12 722.382 2057.12 728.346 2059.74C728.346 2061.45 728.346 2063.17 728.346 2064.93C732.731 2067.51 732.731 2067.51 737.204 2070.13C729.985 2074.89 723.194 2064.43 716.535 2057.14C716.535 2056.29 716.535 2055.43 716.535 2054.54Z" fill="#C4E5F5"/>
<path d="M1326.77 1896.11C1328.4 1896.11 1330.02 1896.11 1331.69 1896.11C1331.3 1897.27 1330.91 1898.43 1330.5 1899.63C1327.58 1908.44 1324.97 1916.93 1322.83 1927.27C1321.73 1917.53 1321.73 1917.53 1322.83 1911.69C1323.48 1911.69 1324.13 1911.69 1324.8 1911.69C1325.02 1909.28 1325.02 1909.28 1325.23 1906.82C1325.79 1901.3 1325.79 1901.3 1326.77 1896.11Z" fill="#4A87B7"/>
<path d="M1211.62 1885.72C1211.29 1888.29 1210.97 1890.86 1210.63 1893.51C1205.43 1893.51 1200.24 1893.51 1194.88 1893.51C1194.88 1891.8 1194.88 1890.08 1194.88 1888.32C1197.3 1887.88 1199.72 1887.45 1202.14 1887.02C1202.83 1886.9 1203.52 1886.77 1204.23 1886.64C1209.42 1885.72 1209.42 1885.72 1211.62 1885.72Z" fill="#387AB0"/>
<path d="M1271.65 2132.47C1273.62 2137.67 1273.62 2137.67 1273.62 2145.46C1269.4 2147.17 1265.18 2148.89 1260.83 2150.65C1260.83 2148.94 1260.83 2147.22 1260.83 2145.46C1261.88 2144.76 1262.94 2144.06 1264.03 2143.35C1267.29 2140.62 1269.13 2138.32 1271.65 2132.47Z" fill="#4685B4"/>
<path d="M936.023 2088.31C938.459 2089.6 938.459 2089.6 940.945 2090.91C940.945 2092.63 940.945 2094.34 940.945 2096.11C941.594 2096.11 942.244 2096.11 942.913 2096.11C943.238 2102.11 943.563 2108.11 943.897 2114.29C937.43 2101.3 937.43 2101.3 936.023 2088.31Z" fill="#4D8BB6"/>
<path d="M858.27 1828.57C860.218 1828.57 862.167 1828.57 864.175 1828.57C864.175 1841.43 864.175 1854.29 864.175 1867.54C863.525 1866.68 862.876 1865.82 862.207 1864.94C861.855 1856.96 861.769 1849.03 861.657 1841C861.513 1838.62 861.37 1836.23 861.222 1833.77C860.248 1832.05 859.273 1830.34 858.27 1828.57Z" fill="#4480B5"/>
<path d="M769.687 2046.75C771.636 2046.75 773.584 2046.75 775.592 2046.75C774.618 2050.61 774.618 2050.61 773.624 2054.55C772.649 2054.55 771.675 2054.55 770.671 2054.55C770.671 2056.26 770.671 2057.97 770.671 2059.74C768.397 2061.46 766.124 2063.17 763.781 2064.94C763.781 2062.36 763.781 2059.79 763.781 2057.14C764.969 2056.02 764.969 2056.02 766.18 2054.87C768.833 2052.64 768.833 2052.64 769.687 2046.75Z" fill="#D5F0FB"/>
<path d="M1091.54 1945.46C1089.46 1950.93 1087.94 1952.85 1085.26 1955.85C1082.38 1959.1 1079.56 1962.47 1076.77 1966.24C1076.96 1961.53 1076.96 1961.53 1077.76 1955.85C1082.3 1947.11 1086.02 1945.05 1091.54 1945.46Z" fill="#DAF2FC"/>
<path d="M1084.65 1836.36C1084.06 1837.37 1083.48 1838.37 1082.88 1839.41C1078.73 1846.63 1074.69 1853.89 1070.87 1862.34C1070.87 1851.95 1070.87 1851.95 1072.49 1847.62C1073.54 1845.66 1073.54 1845.66 1074.62 1843.67C1075.32 1842.35 1076.01 1841.02 1076.73 1839.66C1079.85 1834.55 1081.09 1833.24 1084.65 1836.36Z" fill="#DCF1FB"/>
<path d="M954.727 2132.47C961.699 2136.09 968.424 2140.12 974.412 2150.65C966.932 2149.68 961.38 2143.96 954.727 2135.07C954.727 2134.21 954.727 2133.35 954.727 2132.47Z" fill="#6598C3"/>
<path d="M1011.81 2051.95C1011.81 2059.74 1011.81 2059.74 1009.78 2066.56C1006.42 2073.74 1004.26 2074.66 1000 2075.33C1003.48 2067.77 1007.07 2061.08 1010.83 2054.55C1011.15 2053.69 1011.48 2052.83 1011.81 2051.95Z" fill="#6B9FC7"/>
<path d="M664.371 2023.38C669.292 2028.57 669.292 2028.57 670.669 2034.58C670.986 2036.88 671.303 2039.19 671.63 2041.56C671.962 2043.86 672.295 2046.17 672.637 2048.54C673.229 2054.55 673.229 2054.55 672.245 2059.74C668.347 2041.74 668.347 2041.74 664.371 2023.38Z" fill="#538EB9"/>
<path d="M1098.43 2000C1102.65 2000 1106.87 2000 1111.22 2000C1111.22 2000.86 1111.22 2001.72 1111.22 2002.6C1110.22 2003.07 1110.22 2003.07 1109.21 2003.56C1108.33 2003.99 1107.45 2004.43 1106.55 2004.87C1105.24 2005.51 1105.24 2005.51 1103.92 2006.15C1101.51 2007.71 1099.6 2009.82 1097.44 2012.99C1097.77 2008.71 1098.09 2004.42 1098.43 2000Z" fill="#5A91BE"/>
<path d="M1141.73 1924.68C1142.06 1924.68 1142.38 1924.68 1142.72 1924.68C1142.72 1933.25 1142.72 1941.82 1142.72 1950.65C1136.87 1948.08 1136.87 1948.08 1130.91 1945.46C1130.91 1944.6 1130.91 1943.74 1130.91 1942.86C1134.48 1942.86 1138.05 1942.86 1141.73 1942.86C1141.73 1936.86 1141.73 1930.86 1141.73 1924.68Z" fill="#C6E8F6"/>
<path d="M1142.72 1914.29C1144.69 1916.89 1144.69 1916.89 1145.86 1925.33C1146.61 1934.48 1146.84 1939.35 1145.67 1948.06C1144.7 1949.34 1144.7 1949.34 1143.7 1950.65C1143.38 1938.65 1143.05 1926.65 1142.72 1914.29Z" fill="#407CAF"/>
<path d="M1130.91 1818.18C1136.86 1819.61 1142.03 1823.13 1147.64 1828.57C1145.69 1831.14 1145.69 1831.14 1143.7 1833.77C1142.73 1832.05 1141.75 1830.34 1140.75 1828.57C1138.79 1827.56 1136.82 1826.67 1134.84 1825.98C1134.84 1824.26 1134.84 1822.55 1134.84 1820.78C1133.54 1819.92 1132.24 1819.07 1130.91 1818.18Z" fill="#6399C3"/>
<path d="M1025.59 2116.89C1026.24 2116.89 1026.89 2116.89 1027.56 2116.89C1027 2124.33 1026.71 2126.92 1024.61 2132.47C1022.48 2134.11 1022.48 2134.11 1020.06 2135.39C1019.25 2135.83 1018.45 2136.26 1017.62 2136.71C1016.69 2137.18 1016.69 2137.18 1015.75 2137.67C1016.92 2131.47 1017.86 2130.3 1020.12 2126.95C1020.73 2126.03 1021.33 2125.12 1021.96 2124.17C1023.62 2122.08 1023.62 2122.08 1025.59 2122.08C1025.59 2120.37 1025.59 2118.65 1025.59 2116.89Z" fill="#C3E0F2"/>
<path d="M1318.9 2020.78C1321.05 2028.05 1322.83 2035.41 1324.49 2043.51C1325.14 2046.62 1325.14 2046.62 1325.8 2049.8C1326.12 2051.37 1326.44 2052.93 1326.77 2054.55C1325.15 2053.69 1323.52 2052.84 1321.85 2051.95C1321.67 2049.62 1321.67 2049.62 1321.48 2047.24C1320.91 2040.88 1320.91 2040.88 1318.9 2033.77C1318.77 2026.79 1318.77 2026.79 1318.9 2020.78Z" fill="#5C95C0"/>
<path d="M1326.77 1909.1C1326.77 1916.36 1326.41 1922.03 1325.79 1929.06C1325.61 1931.16 1325.42 1933.26 1325.23 1935.42C1325.09 1937.02 1324.95 1938.62 1324.8 1940.26C1325.78 1941.12 1326.75 1941.98 1327.76 1942.86C1325.81 1942.86 1323.86 1942.86 1321.85 1942.86C1323.57 1917.94 1323.57 1917.94 1326.77 1909.1Z" fill="#D7EFF8"/>
<path d="M1350.15 1882.96C1350.83 1882.97 1351.52 1882.99 1352.23 1883C1353.91 1883.03 1355.6 1883.07 1357.28 1883.12C1357.28 1883.98 1357.28 1884.84 1357.28 1885.72C1353.06 1885.72 1348.84 1885.72 1344.49 1885.72C1344.49 1887.44 1344.49 1889.15 1344.49 1890.92C1341.89 1890.92 1339.29 1890.92 1336.61 1890.92C1340.41 1880.91 1345.05 1882.8 1350.15 1882.96Z" fill="#C8E9F6"/>
<path d="M987.39 1815.43C988.643 1815.45 989.895 1815.47 991.185 1815.5C992.626 1815.54 992.626 1815.54 994.096 1815.59C994.096 1816.45 994.096 1817.3 994.096 1818.19C993.419 1818.31 992.743 1818.44 992.046 1818.57C990.716 1818.86 990.716 1818.86 989.359 1819.16C988.48 1819.34 987.6 1819.52 986.694 1819.71C984.013 1820.44 984.013 1820.44 981.3 1825.98C980.326 1825.98 979.351 1825.98 978.348 1825.98C978.023 1823.41 977.698 1820.84 977.363 1818.19C980.868 1815.1 983.7 1815.34 987.39 1815.43Z" fill="#4A85B1"/>
<path d="M730.315 1693.51C729.99 1695.22 729.665 1696.94 729.33 1698.7C727.04 1699.68 724.743 1700.54 722.441 1701.3C722.116 1702.16 721.791 1703.02 721.456 1703.9C719.816 1704 718.175 1704.01 716.535 1703.9C718.504 1696.11 718.504 1696.11 720.103 1694.32C723.523 1693.13 726.866 1693.36 730.315 1693.51Z" fill="#3C7CB7"/>
<path d="M759.844 1688.32C761.259 1688.25 762.673 1688.2 764.088 1688.16C765.27 1688.11 765.27 1688.11 766.476 1688.06C768.702 1688.32 768.702 1688.32 771.655 1690.92C771.655 1692.63 771.655 1694.34 771.655 1696.11C772.629 1696.97 773.604 1697.82 774.608 1698.71C773.633 1698.33 772.659 1697.96 771.655 1697.57C767.724 1696.09 763.785 1694.79 759.844 1693.51C759.844 1691.8 759.844 1690.08 759.844 1688.32Z" fill="#ABD6F1"/>
<path d="M776.576 2145.46C773.031 2151.7 770.17 2151.79 766.057 2152.28C765.366 2152.38 764.675 2152.48 763.963 2152.58C762.262 2152.83 760.561 2153.04 758.859 2153.25C761.878 2147.94 763.654 2146.65 767.164 2144.98C768.097 2144.51 769.029 2144.04 769.99 2143.56C772.533 2142.89 774.175 2143.35 776.576 2145.46Z" fill="#D0EAFA"/>
<path d="M683.07 2083.12C684.045 2083.98 685.019 2084.84 686.023 2085.72C686.023 2087.43 686.023 2089.15 686.023 2090.91C687.322 2090.91 688.621 2090.91 689.96 2090.91C690.61 2095.2 691.259 2099.48 691.929 2103.9C685.218 2098.78 685.218 2098.78 683.07 2090.91C683.07 2088.34 683.07 2085.77 683.07 2083.12Z" fill="#3F82B4"/>
<path d="M1298.23 2080.52C1299.53 2080.52 1300.83 2080.52 1302.17 2080.52C1304.1 2087.22 1305.67 2093.79 1307.09 2101.3C1306.44 2103.02 1305.79 2104.73 1305.12 2106.5C1303.97 2102.66 1302.82 2098.82 1301.68 2094.97C1301.04 2092.83 1300.4 2090.69 1299.74 2088.49C1298.23 2083.12 1298.23 2083.12 1298.23 2080.52Z" fill="#5087B5"/>
<path d="M872.046 1922.08C872.986 1927.72 873.172 1931.34 872.438 1937.21C871.693 1941.74 870.889 1946.2 870.078 1950.65C869.428 1950.65 868.779 1950.65 868.109 1950.65C867.784 1953.22 867.46 1955.8 867.125 1958.45C867.45 1952.45 867.775 1946.45 868.109 1940.26C868.759 1940.26 869.408 1940.26 870.078 1940.26C870.22 1938.23 870.362 1936.19 870.508 1934.1C871.062 1927.28 871.062 1927.28 872.046 1922.08Z" fill="#B7D8EE"/>
<path d="M937.99 1862.34C938.639 1862.34 939.289 1862.34 939.958 1862.34C938.207 1872.84 935.632 1881.72 933.068 1890.91C932.121 1883.01 931.95 1881.3 933.315 1873.38C933.883 1871.45 934.451 1869.52 935.037 1867.53C936.011 1867.53 936.986 1867.53 937.99 1867.53C937.99 1865.82 937.99 1864.11 937.99 1862.34Z" fill="#DBF5FC"/>
<path d="M657.481 1849.35C657.806 1849.35 658.131 1849.35 658.465 1849.35C658.141 1860.49 657.816 1871.64 657.481 1883.12C656.831 1883.12 656.182 1883.12 655.513 1883.12C655.459 1878.95 655.421 1874.79 655.39 1870.62C655.367 1868.3 655.344 1865.98 655.32 1863.59C655.513 1857.14 655.513 1857.14 657.481 1849.35Z" fill="#D0EBF9"/>
<path d="M719.488 1685.72C725.01 1685.72 730.531 1685.72 736.22 1685.72C736.22 1686.58 736.22 1687.43 736.22 1688.32C727.451 1690.89 727.451 1690.89 718.504 1693.51C718.829 1690.94 719.154 1688.37 719.488 1685.72Z" fill="#DFF7FE"/>
<path d="M1026.57 2051.95C1029.9 2053.37 1031.58 2054.69 1034.45 2059.74C1034.45 2061.46 1034.45 2063.17 1034.45 2064.94C1030.88 2065.46 1028.68 2064.57 1025.59 2059.74C1025.91 2057.17 1026.24 2054.6 1026.57 2051.95Z" fill="#4280B5"/>
<path d="M1099.41 2010.39C1099.73 2012.1 1100.06 2013.82 1100.39 2015.58C1099.41 2021.2 1099.41 2021.2 1097.99 2027.6C1097.53 2029.72 1097.06 2031.84 1096.58 2034.03C1096.22 2035.66 1095.85 2037.28 1095.47 2038.96C1095.15 2038.96 1094.82 2038.96 1094.49 2038.96C1094.18 2031.98 1094.18 2031.98 1094.49 2023.38C1096.95 2015.91 1096.95 2015.91 1099.41 2010.39Z" fill="#CAE7F7"/>
<path d="M707.678 1701.3C703.987 1706.5 703.987 1706.5 701.773 1706.5C701.773 1709.07 701.773 1711.64 701.773 1714.29C699.824 1716 697.875 1717.72 695.867 1719.48C695.867 1716.91 695.867 1714.34 695.867 1711.69C699.849 1702.93 702.509 1700 707.678 1701.3Z" fill="#ECFCFE"/>
<path d="M950.789 2129.87C954.761 2134 958.681 2138.4 962.6 2142.86C962.6 2143.72 962.6 2144.57 962.6 2145.46C960.651 2145.46 958.702 2145.46 956.695 2145.46C956.695 2143.74 956.695 2142.03 956.695 2140.26C953.771 2138.97 953.771 2138.97 950.789 2137.66C950.789 2135.09 950.789 2132.52 950.789 2129.87Z" fill="#D4EEF9"/>
<path d="M791.34 2015.59C792.314 2015.59 793.289 2015.59 794.293 2015.59C796.999 2022.89 796.999 2022.89 799.214 2031.17C798.889 2033.74 798.564 2036.31 798.23 2038.96C797.075 2036.06 795.928 2033.13 794.785 2030.2C794.145 2028.57 793.506 2026.94 792.847 2025.27C791.34 2020.78 791.34 2020.78 791.34 2015.59Z" fill="#D3EBF9"/>
<path d="M958.663 1831.17C958.663 1833.74 958.663 1836.31 958.663 1838.96C958.054 1839.71 957.445 1840.46 956.817 1841.23C954.595 1843.99 954.595 1843.99 952.757 1849.35C952.757 1847.64 952.757 1845.92 952.757 1844.16C951.458 1845.01 950.159 1845.87 948.82 1846.75C951.792 1837.71 954.302 1834.31 958.663 1831.17Z" fill="#578CBA"/>
<path d="M1332.68 1818.18C1335.28 1818.18 1337.88 1818.18 1340.55 1818.18C1337.48 1822.59 1334.45 1825.31 1331.08 1827.76C1329.66 1828.82 1329.66 1828.82 1328.21 1829.9C1325.79 1831.17 1325.79 1831.17 1323.82 1828.57C1327.14 1824.68 1328.94 1823.38 1332.68 1823.38C1332.68 1821.66 1332.68 1819.95 1332.68 1818.18Z" fill="#74A5CB"/>
<path d="M1134.84 2114.29C1135.17 2116 1135.49 2117.72 1135.83 2119.48C1136.48 2120.34 1137.13 2121.2 1137.8 2122.08C1136.82 2122.94 1135.85 2123.8 1134.84 2124.68C1134.56 2126.34 1134.27 2128 1133.98 2129.71C1132.49 2136.93 1130.85 2137.85 1127.95 2140.26C1128.42 2139.19 1128.89 2138.12 1129.37 2137.02C1131.07 2132 1131.46 2128.62 1131.89 2122.08C1132.86 2122.08 1133.84 2122.08 1134.84 2122.08C1134.84 2119.51 1134.84 2116.94 1134.84 2114.29Z" fill="#5D95C1"/>
<path d="M795.276 2111.69C795.601 2114.26 795.926 2116.83 796.26 2119.48C793.984 2125.49 792.836 2125.97 789.74 2127.6C788.935 2128.04 788.131 2128.47 787.302 2128.92C786.377 2129.39 786.377 2129.39 785.434 2129.87C786.754 2122.91 788.326 2121.51 790.908 2117.86C791.722 2116.7 792.535 2115.54 793.373 2114.35C794.001 2113.47 794.629 2112.6 795.276 2111.69Z" fill="#B4D8F1"/>
<path d="M1213.58 1740.26C1219.75 1740.26 1225.92 1740.26 1232.28 1740.26C1232.28 1741.12 1232.28 1741.98 1232.28 1742.86C1231.18 1742.99 1230.08 1743.11 1228.94 1743.24C1227.49 1743.44 1226.04 1743.64 1224.59 1743.83C1223.87 1743.91 1223.14 1743.99 1222.39 1744.08C1218.68 1744.61 1216.74 1745.1 1213.58 1750.65C1213.58 1747.22 1213.58 1743.79 1213.58 1740.26Z" fill="#3A7CB6"/>
<path d="M764.766 1696.11C768.338 1696.96 771.911 1697.82 775.592 1698.7C775.592 1700.42 775.592 1702.13 775.592 1703.9C774.354 1703.95 773.116 1704 771.84 1704.06C771.143 1704.09 770.447 1704.12 769.729 1704.15C767.718 1703.9 767.718 1703.9 764.766 1701.3C764.766 1699.59 764.766 1697.87 764.766 1696.11Z" fill="#4487B3"/>
<path d="M1228.35 2137.66C1230.07 2139.28 1231.79 2140.9 1233.51 2142.53C1234.95 2143.89 1234.95 2143.89 1236.42 2145.27C1238.74 2147.62 1240.92 2150.19 1243.11 2153.25C1241.55 2152.88 1239.99 2152.5 1238.44 2152.11C1237.57 2151.9 1236.7 2151.69 1235.81 2151.47C1233.57 2150.75 1231.5 2149.64 1229.33 2148.05C1229.01 2144.63 1228.68 2141.2 1228.35 2137.66Z" fill="#D1EAF9"/>
<path d="M1399.61 2059.74C1403.02 2063.6 1403.02 2063.6 1406.5 2067.53C1405.88 2075.14 1404.93 2081.46 1403.54 2088.31C1402.23 2081.39 1402.88 2077.49 1403.54 2070.13C1402.89 2070.13 1402.24 2070.13 1401.57 2070.13C1401.57 2068.42 1401.57 2066.7 1401.57 2064.94C1400.92 2064.94 1400.27 2064.94 1399.61 2064.94C1399.61 2063.22 1399.61 2061.51 1399.61 2059.74Z" fill="#6094BB"/>
<path d="M1387.8 2044.16C1389.1 2045.02 1390.4 2045.87 1391.73 2046.76C1391.73 2048.47 1391.73 2050.19 1391.73 2051.95C1392.89 2052.43 1392.89 2052.43 1394.07 2052.93C1396.66 2054.55 1396.66 2054.55 1398.62 2059.74C1396.53 2061.85 1396.53 2061.85 1393.7 2062.34C1391.33 2058.67 1389.78 2054.58 1387.8 2049.35C1387.8 2047.64 1387.8 2045.93 1387.8 2044.16Z" fill="#538DB6"/>
<path d="M780.511 2028.57C781.81 2028.57 783.11 2028.57 784.448 2028.57C783.127 2039.03 781.079 2041.26 777.558 2046.76C776.909 2046.76 776.259 2046.76 775.59 2046.76C776.239 2043.33 776.889 2039.9 777.558 2036.37C778.208 2036.37 778.858 2036.37 779.527 2036.37C779.852 2033.79 780.176 2031.22 780.511 2028.57Z" fill="#CDEBF9"/>
<path d="M1380.9 2135.07C1378.59 2141.17 1377.01 2142.16 1373.89 2144.49C1372.55 2145.5 1372.55 2145.5 1371.18 2146.54C1370.49 2147.04 1369.8 2147.54 1369.09 2148.06C1368.77 2146.34 1368.44 2144.63 1368.11 2142.86C1369.73 2142.86 1371.36 2142.86 1373.03 2142.86C1373.03 2141.15 1373.03 2139.43 1373.03 2137.67C1375.7 2134.15 1377.96 2134.9 1380.9 2135.07Z" fill="#518CBC"/>
<path d="M694.883 2114.29C696.301 2115.4 697.715 2116.54 699.127 2117.7C699.915 2118.33 700.703 2118.96 701.515 2119.62C703.839 2122.19 705.059 2124.89 706.694 2129.87C705.719 2131.16 705.719 2131.16 704.725 2132.47C702.63 2130.07 702.63 2130.07 700.235 2126.46C699.442 2125.3 698.649 2124.13 697.832 2122.92C695.867 2119.48 695.867 2119.48 694.883 2114.29Z" fill="#669AC3"/>
<path d="M926.184 2025.98C927.158 2027.26 927.158 2027.26 928.152 2028.57C928.775 2035.08 928.775 2035.08 929.259 2043.02C929.424 2045.65 929.589 2048.28 929.759 2050.99C929.878 2053.02 929.998 2055.05 930.121 2057.15C929.471 2057.15 928.821 2057.15 928.152 2057.15C927.032 2046.06 926.184 2037.5 926.184 2025.98Z" fill="#3E7BB5"/>
<path d="M1082.68 1963.64C1082.68 1965.35 1082.68 1967.06 1082.68 1968.83C1077.14 1976.62 1077.14 1976.62 1073.82 1976.62C1073.82 1974.91 1073.82 1973.19 1073.82 1971.43C1076.73 1964.03 1078.69 1962.76 1082.68 1963.64Z" fill="#548DBB"/>
<path d="M1093.51 1898.7C1094.16 1899.56 1094.81 1900.42 1095.48 1901.3C1094.4 1909.54 1093.49 1911.71 1090.62 1916.4C1087.6 1919.48 1087.6 1919.48 1084.65 1916.88C1087.57 1910.88 1090.49 1904.88 1093.51 1898.7Z" fill="#C5DFF0"/>
<path d="M1302.17 1864.94C1303.14 1865.8 1304.12 1866.65 1305.12 1867.54C1302.85 1875.25 1300.57 1882.97 1298.23 1890.91C1297.91 1887.48 1297.58 1884.06 1297.25 1880.52C1297.9 1880.52 1298.55 1880.52 1299.21 1880.52C1299.52 1878.43 1299.82 1876.35 1300.14 1874.19C1301.18 1867.54 1301.18 1867.54 1302.17 1864.94Z" fill="#D7F2FC"/>
<path d="M1382.88 1838.96C1386.35 1844.06 1389.02 1849.46 1391.73 1857.15C1385.09 1852.6 1385.09 1852.6 1382.88 1846.76C1382.88 1844.19 1382.88 1841.61 1382.88 1838.96Z" fill="#4A89BB"/>
<path d="M1328.93 1820.61C1330.78 1820.69 1330.78 1820.69 1332.68 1820.78C1328.89 1826.19 1324.9 1829.86 1320.87 1833.76C1321.17 1828.73 1321.17 1828.73 1321.85 1823.37C1324.56 1820.99 1326.14 1820.49 1328.93 1820.61Z" fill="#D6EFFC"/>
<path d="M753.938 1768.83C756.536 1768.83 759.134 1768.83 761.812 1768.83C761.812 1770.55 761.812 1772.26 761.812 1774.03C764.735 1775.31 764.735 1775.31 767.717 1776.62C767.717 1777.48 767.717 1778.34 767.717 1779.22C765.119 1779.22 762.52 1779.22 759.843 1779.22C759.843 1776.65 759.843 1774.08 759.843 1771.43C757.894 1771.43 755.945 1771.43 753.938 1771.43C753.938 1770.57 753.938 1769.72 753.938 1768.83Z" fill="#A1C9E7"/>
<path d="M1392.72 2106.5C1393.69 2107.35 1394.67 2108.21 1395.67 2109.09C1391.12 2121.76 1391.12 2121.76 1387.8 2124.68C1387.8 2121.25 1387.8 2117.82 1387.8 2114.29C1389.42 2113.43 1391.04 2112.57 1392.72 2111.69C1392.72 2109.98 1392.72 2108.26 1392.72 2106.5Z" fill="#4C88B5"/>
<path d="M1034.45 2096.11C1034.77 2097.82 1035.1 2099.53 1035.43 2101.3C1034.33 2107.96 1034.33 2107.96 1032.48 2114.29C1029.83 2116.4 1029.83 2116.4 1027.56 2116.88C1028.52 2113.91 1029.49 2110.93 1030.45 2107.96C1030.99 2106.3 1031.52 2104.64 1032.08 2102.93C1032.84 2100.6 1033.62 2098.29 1034.45 2096.11Z" fill="#CAE5F6"/>
<path d="M1137.8 2059.74C1138.45 2059.74 1139.1 2059.74 1139.76 2059.74C1138.51 2067.13 1137.35 2073.09 1134.84 2077.92C1132.69 2077.11 1132.69 2077.11 1130.91 2075.33C1131.68 2074.2 1132.45 2073.08 1133.24 2071.92C1136.04 2067.81 1136.04 2067.81 1137.8 2059.74Z" fill="#538CB8"/>
<path d="M1153.54 1836.37C1159.2 1838.64 1159.2 1838.64 1161.42 1841.56C1161.09 1844.99 1160.77 1848.42 1160.43 1851.95C1159.28 1849.85 1158.13 1847.74 1156.99 1845.62C1156.35 1844.45 1155.71 1843.27 1155.05 1842.06C1154.55 1841.04 1154.06 1840.02 1153.54 1838.96C1153.54 1838.11 1153.54 1837.25 1153.54 1836.37Z" fill="#D4EEFA"/>
<path d="M1125.98 1818.18C1127.49 1818.42 1128.98 1818.82 1130.47 1819.32C1131.69 1819.72 1131.69 1819.72 1132.94 1820.12C1133.57 1820.34 1134.2 1820.56 1134.84 1820.78C1134.84 1822.5 1134.84 1824.21 1134.84 1825.98C1128.32 1826.63 1128.32 1826.63 1125 1820.78C1125.32 1819.92 1125.65 1819.07 1125.98 1818.18Z" fill="#3E82AD"/>
<path d="M1088.58 1820.78C1091.18 1820.78 1093.78 1820.78 1096.46 1820.78C1093.5 1825.98 1093.5 1825.98 1090.55 1825.98C1090.55 1827.69 1090.55 1829.41 1090.55 1831.17C1089.25 1832.03 1087.95 1832.89 1086.61 1833.77C1087.26 1829.48 1087.91 1825.2 1088.58 1820.78Z" fill="#D0EEFA"/>
<path d="M962.598 2059.74C965.521 2064.03 968.444 2068.31 971.456 2072.73C967.749 2075.99 966.169 2073.69 962.598 2070.13C962.598 2066.7 962.598 2063.27 962.598 2059.74Z" fill="#4E8BB8"/>
<path d="M1381.89 2036.37C1383.19 2037.22 1384.49 2038.08 1385.83 2038.96C1385.83 2040.68 1385.83 2042.39 1385.83 2044.16C1383.88 2045.02 1381.93 2045.87 1379.92 2046.76C1379.92 2048.47 1379.92 2050.19 1379.92 2051.95C1379.27 2051.09 1378.62 2050.24 1377.95 2049.35C1379.25 2045.07 1380.55 2040.78 1381.89 2036.37Z" fill="#709EC2"/>
<path d="M665.355 1797.41C666.005 1797.41 666.654 1797.41 667.323 1797.41C666.085 1809.12 664.465 1816.87 661.418 1825.98C661.916 1814.67 662.78 1806.65 665.355 1797.41Z" fill="#E2F4FD"/>
<path d="M1316.93 2129.87C1320.5 2134.16 1324.08 2138.44 1327.76 2142.86C1327.76 2143.72 1327.76 2144.57 1327.76 2145.46C1323.38 2146.48 1320.73 2143.26 1316.93 2137.66C1316.93 2135.09 1316.93 2132.52 1316.93 2129.87Z" fill="#D4EDFB"/>
<path d="M1025.59 2046.75C1027.86 2047.61 1030.14 2048.47 1032.48 2049.35C1032.8 2051.92 1033.13 2054.49 1033.46 2057.14C1035.45 2059.05 1035.45 2059.05 1037.4 2059.74C1036.43 2061.03 1036.43 2061.03 1035.43 2062.34C1033.09 2059.75 1033.09 2059.75 1030.39 2056.01C1029.49 2054.78 1028.6 2053.55 1027.67 2052.28C1026.99 2051.32 1026.3 2050.35 1025.59 2049.35C1025.59 2048.49 1025.59 2047.64 1025.59 2046.75Z" fill="#B9DAEF"/>
<path d="M1010.83 1911.69C1012.13 1911.69 1013.43 1911.69 1014.77 1911.69C1014.77 1918.55 1014.77 1925.41 1014.77 1932.47C1010.83 1920.46 1010.83 1920.46 1010.83 1911.69Z" fill="#4482B5"/>
<path d="M1332.68 1883.12C1334.3 1883.12 1335.93 1883.12 1337.6 1883.12C1337.93 1884.84 1338.25 1886.55 1338.59 1888.32C1335.17 1892.17 1335.17 1892.17 1331.7 1896.11C1332.02 1891.82 1332.34 1887.54 1332.68 1883.12Z" fill="#4886B3"/>
<path d="M1075.79 1849.35C1075.79 1858.64 1074.72 1862.48 1072.84 1870.13C1071.86 1869.27 1070.89 1868.42 1069.88 1867.53C1069.88 1865.82 1069.88 1864.1 1069.88 1862.34C1071.81 1857.89 1073.78 1853.55 1075.79 1849.35Z" fill="#5E94BE"/>
<path d="M1012.8 1831.17C1014.26 1832.77 1015.71 1834.4 1017.16 1836.04C1018.38 1837.4 1018.38 1837.4 1019.62 1838.78C1021.66 1841.56 1021.66 1841.56 1022.64 1846.75C1021.18 1845.66 1019.72 1844.51 1018.27 1843.35C1017.46 1842.71 1016.65 1842.08 1015.81 1841.43C1014.81 1840.21 1014.81 1840.21 1013.78 1838.96C1013.46 1836.39 1013.13 1833.82 1012.8 1831.17Z" fill="#6DA1C6"/>
<path d="M1272.64 2064.94C1272.96 2068.37 1273.29 2071.8 1273.62 2075.33C1270.38 2075.33 1267.13 2075.33 1263.78 2075.33C1266.72 2071.45 1269.58 2068.07 1272.64 2064.94Z" fill="#6191B6"/>
<path d="M688.977 1953.25C691.496 1956.58 691.633 1959.08 692.606 1965.91C693.008 1968.64 693.008 1968.64 693.417 1971.41C693.898 1976.63 693.898 1976.63 692.914 1984.42C690.2 1974.15 689.437 1965.66 688.977 1953.25Z" fill="#C8E7F7"/>
<path d="M989.176 1883.12C990.633 1883.42 992.088 1883.75 993.543 1884.1C994.354 1884.28 995.165 1884.46 996 1884.64C997.007 1885.18 997.007 1885.18 998.034 1885.72C998.359 1887.43 998.684 1889.15 999.018 1890.91C992.548 1891.88 992.548 1891.88 990.425 1886.99C989.807 1885.07 989.807 1885.07 989.176 1883.12Z" fill="#B4D8F1"/>
<path d="M904.527 1888.31C907.357 1887.83 907.357 1887.83 910.433 1888.31C911.082 1890.89 911.732 1893.46 912.401 1896.11C906.742 1896.43 906.742 1896.43 904.527 1893.51C904.527 1891.79 904.527 1890.08 904.527 1888.31Z" fill="#3B82B2"/>
<path d="M1155.51 1846.75C1159.14 1848.05 1161.03 1849.61 1163.39 1857.14C1163.06 1858.86 1162.74 1860.57 1162.4 1862.34C1161.75 1860.62 1161.1 1858.91 1160.43 1857.14C1157.9 1855.46 1157.9 1855.46 1155.51 1854.55C1155.51 1851.97 1155.51 1849.4 1155.51 1846.75Z" fill="#6096BC"/>
<path d="M1309.05 1841.56C1310.68 1842.42 1312.3 1843.28 1313.98 1844.16C1312.35 1848.45 1310.73 1852.73 1309.05 1857.15C1308.4 1855.43 1307.76 1853.72 1307.09 1851.95C1307.74 1848.53 1308.39 1845.1 1309.05 1841.56Z" fill="#DAEEFA"/>
<path d="M1393.7 2116.89C1394.68 2117.74 1395.65 2118.6 1396.66 2119.48C1394.22 2123.34 1394.22 2123.34 1391.73 2127.28C1391.41 2125.56 1391.08 2123.85 1390.75 2122.08C1391.72 2120.37 1392.7 2118.65 1393.7 2116.89ZM1387.8 2127.28C1388.77 2128.13 1389.75 2128.99 1390.75 2129.87C1389.78 2132.45 1388.8 2135.02 1387.8 2137.67C1387.8 2134.24 1387.8 2130.81 1387.8 2127.28Z" fill="#EDFBFE"/>
<path d="M1396.66 2103.9C1396.98 2103.9 1397.31 2103.9 1397.64 2103.9C1397.64 2108.18 1397.64 2112.47 1397.64 2116.89C1395.37 2118.6 1393.09 2120.31 1390.75 2122.08C1391.4 2119.51 1392.05 2116.94 1392.72 2114.29C1393.37 2114.29 1394.02 2114.29 1394.69 2114.29C1395.34 2110.86 1395.99 2107.43 1396.66 2103.9Z" fill="#BBDDF2"/>
<path d="M684.055 2093.51C687.369 2097.13 688.962 2101.25 690.944 2109.09C689.32 2109.09 687.696 2109.09 686.023 2109.09C685.374 2103.95 684.724 2098.81 684.055 2093.51Z" fill="#C1E4F5"/>
<path d="M1368.11 2070.13C1368.44 2071.85 1368.76 2073.56 1369.1 2075.33C1368.45 2075.33 1367.8 2075.33 1367.13 2075.33C1367.13 2077.04 1367.13 2078.76 1367.13 2080.52C1365.5 2082.24 1363.88 2083.95 1362.21 2085.72C1362.39 2080.85 1362.39 2080.85 1363.19 2075.33C1365.71 2072.08 1365.71 2072.08 1368.11 2070.13Z" fill="#5892BE"/>
<path d="M789.371 2020.78C790.345 2021.64 791.319 2022.5 792.323 2023.38C792.323 2025.09 792.323 2026.81 792.323 2028.58C789.718 2032.37 788.49 2033.77 785.434 2033.77C787.156 2023.71 787.156 2023.71 789.371 2020.78Z" fill="#3C80B1"/>
<path d="M657.48 1955.85C657.805 1957.56 658.13 1959.28 658.465 1961.04C659.114 1961.04 659.764 1961.04 660.433 1961.04C660.433 1969.61 660.433 1978.19 660.433 1987.02C660.108 1987.02 659.784 1987.02 659.449 1987.02C658.329 1975.94 657.48 1967.37 657.48 1955.85Z" fill="#3F7FB1"/>
<path d="M1138.78 1916.89C1139.43 1916.89 1140.08 1916.89 1140.75 1916.89C1141.89 1925.91 1141.8 1933.41 1141.73 1942.86C1141.08 1942 1140.43 1941.15 1139.77 1940.26C1140.09 1936.83 1140.42 1933.41 1140.75 1929.87C1140.1 1929.87 1139.45 1929.87 1138.78 1929.87C1138.78 1925.59 1138.78 1921.3 1138.78 1916.89Z" fill="#EBFDFE"/>
<path d="M1170.28 1909.1C1170.6 1911.67 1170.93 1914.24 1171.26 1916.89C1171.91 1916.89 1172.56 1916.89 1173.23 1916.89C1173.23 1923.75 1173.23 1930.6 1173.23 1937.67C1171.26 1927.93 1171.26 1927.93 1171.26 1922.08C1170.61 1921.23 1169.96 1920.37 1169.29 1919.49C1169.62 1916.06 1169.94 1912.63 1170.28 1909.1Z" fill="#528AB5"/>
<path d="M932.089 1890.91C933.074 1898.7 933.074 1898.7 932.335 1905.52C931.105 1911.69 931.105 1911.69 928.152 1914.29C929.332 1906.28 930.59 1898.54 932.089 1890.91Z" fill="#6097C5"/>
<path d="M946.85 1862.34C941.66 1870.71 941.66 1870.71 939.961 1872.73C939.311 1871.88 938.661 1871.02 937.992 1870.14C940.867 1861.83 942.545 1858.56 946.85 1862.34Z" fill="#4588B8"/>
<path d="M1018.7 1844.16C1021.57 1846.95 1023.41 1848.78 1025.59 1854.55C1023.32 1854.55 1021.05 1854.55 1018.7 1854.55C1018.7 1851.12 1018.7 1847.69 1018.7 1844.16Z" fill="#4684B0"/>
<path d="M1139.77 2116.89C1140.42 2116.89 1141.06 2116.89 1141.73 2116.89C1141.73 2125.46 1141.73 2134.03 1141.73 2142.86C1140.76 2142.86 1139.79 2142.86 1138.78 2142.86C1139.11 2134.29 1139.43 2125.72 1139.77 2116.89Z" fill="#E9FDFE"/>
<path d="M872.047 1914.29C872.696 1916 873.346 1917.72 874.015 1919.48C872.716 1926.34 871.417 1933.2 870.078 1940.26C869.753 1940.26 869.428 1940.26 869.094 1940.26C869.094 1935.12 869.094 1929.98 869.094 1924.68C869.743 1924.68 870.393 1924.68 871.062 1924.68C871.387 1921.25 871.712 1917.82 872.047 1914.29Z" fill="#4E89B6"/>
<path d="M1031.5 1875.33C1032.47 1876.18 1033.44 1877.04 1034.45 1877.92C1035.62 1884.58 1035.62 1884.58 1036.42 1890.91C1034.47 1888.34 1032.52 1885.77 1030.51 1883.12C1030.84 1880.55 1031.16 1877.98 1031.5 1875.33Z" fill="#598FBB"/>
<path d="M1157.48 1854.54C1159.26 1855.03 1159.26 1855.03 1161.42 1857.14C1163.14 1863.8 1163.14 1863.8 1164.37 1870.13C1163.07 1869.27 1161.77 1868.42 1160.43 1867.53C1160.43 1864.96 1160.43 1862.39 1160.43 1859.74C1159.46 1858.88 1158.48 1858.03 1157.48 1857.14C1157.48 1856.29 1157.48 1855.43 1157.48 1854.54Z" fill="#3C7DB0"/>
<path d="M660.433 1844.16C661.082 1844.16 661.732 1844.16 662.401 1844.16C662.188 1846.89 662.188 1846.89 661.971 1849.68C661.402 1857.34 660.908 1865.02 660.433 1872.73C660.108 1872.73 659.783 1872.73 659.448 1872.73C659.325 1852.93 659.325 1852.93 660.433 1844.16Z" fill="#3F7CB0"/>
<path d="M700.789 1815.59C701.113 1815.59 701.438 1815.59 701.773 1815.59C701.773 1819.87 701.773 1824.16 701.773 1828.57C700.149 1830.29 698.525 1832 696.852 1833.77C698.036 1827.29 699.267 1821.61 700.789 1815.59Z" fill="#C0E0F3"/>
<path d="M670.277 1787.01C671.576 1787.01 672.876 1787.01 674.214 1787.01C673.889 1790.44 673.565 1793.87 673.23 1797.4C671.931 1798.26 670.632 1799.12 669.293 1800C669.618 1795.71 669.943 1791.43 670.277 1787.01Z" fill="#4182AE"/>
<path d="M714.566 1776.63C715.865 1776.63 717.164 1776.63 718.503 1776.63C718.503 1778.34 718.503 1780.06 718.503 1781.82C714.187 1789.61 714.187 1789.61 711.613 1789.61C713.459 1779.55 713.459 1779.55 714.566 1776.63Z" fill="#3D80B1"/>
</svg>
